<svg xmlns="http://www.w3.org/2000/svg" viewBox="0 0 3311.87 1877.29"><defs><style>.cls-1{fill:#8bafaa;}.cls-2{fill:#929497;}.cls-3{fill:#395766;}.cls-4{fill:#4d6b7a;}.cls-5{fill:#6b8998;}.cls-6{fill:#ece6e1;}.cls-7{fill:#fbd77a;}.cls-8{fill:#7e2f34;}.cls-9{fill:#b63e38;}.cls-10{fill:#ee4e3b;}.cls-11{fill:#703d37;}.cls-12,.cls-14,.cls-17,.cls-18,.cls-19,.cls-21,.cls-22,.cls-24,.cls-31,.cls-32,.cls-34,.cls-35,.cls-36,.cls-37,.cls-38,.cls-39,.cls-40,.cls-43,.cls-46,.cls-47,.cls-49,.cls-50,.cls-53,.cls-54,.cls-55,.cls-56,.cls-57,.cls-58,.cls-59,.cls-63,.cls-65,.cls-66,.cls-67,.cls-68,.cls-69,.cls-70,.cls-71,.cls-72,.cls-75,.cls-76,.cls-77,.cls-78,.cls-79{fill:none;}.cls-12,.cls-75{stroke:#703d37;}.cls-12,.cls-14,.cls-17,.cls-18,.cls-19,.cls-22,.cls-24,.cls-31,.cls-32,.cls-34,.cls-35,.cls-37,.cls-38,.cls-40,.cls-43,.cls-49,.cls-50,.cls-53,.cls-54,.cls-56,.cls-59,.cls-63,.cls-65,.cls-67,.cls-68,.cls-69,.cls-72,.cls-75,.cls-76,.cls-77,.cls-78{stroke-linecap:round;}.cls-12,.cls-14,.cls-19,.cls-21,.cls-22,.cls-24,.cls-31,.cls-32,.cls-34,.cls-35,.cls-36,.cls-37,.cls-38,.cls-39,.cls-40,.cls-43,.cls-46,.cls-47,.cls-49,.cls-50,.cls-53,.cls-54,.cls-55,.cls-56,.cls-57,.cls-58,.cls-59,.cls-65,.cls-66,.cls-67,.cls-68,.cls-69,.cls-70,.cls-71,.cls-72,.cls-75,.cls-77,.cls-78{stroke-miterlimit:10;}.cls-12,.cls-37,.cls-38{stroke-width:46.66px;}.cls-13{fill:#001431;}.cls-14,.cls-19,.cls-21,.cls-22,.cls-31{stroke:#552323;}.cls-14{stroke-width:17.63px;}.cls-15{fill:#192c49;}.cls-16{fill:#ff9e37;}.cls-17{stroke:#001431;stroke-width:14.32px;}.cls-18,.cls-50,.cls-54,.cls-55,.cls-63,.cls-67,.cls-69,.cls-70,.cls-76,.cls-79{stroke:#0e0f2d;}.cls-18,.cls-76{stroke-linejoin:round;}.cls-18,.cls-49,.cls-50{stroke-width:11.75px;}.cls-19,.cls-21,.cls-34{stroke-width:14.69px;}.cls-19,.cls-34,.cls-75{opacity:0.77;}.cls-20{fill:#51a8b7;}.cls-22{stroke-width:23.51px;}.cls-23{fill:#37140e;}.cls-24{stroke:#b63e38;}.cls-24,.cls-32{stroke-width:70.52px;}.cls-25{fill:#102333;}.cls-26{fill:#ffa685;}.cls-27{fill:#552323;}.cls-28{fill:#f6921e;}.cls-29{fill:#f47f25;}.cls-30{fill:#d0d2d3;}.cls-31{stroke-width:35.26px;}.cls-32{stroke:#7e2f34;}.cls-33{fill:#2b303c;}.cls-34,.cls-43,.cls-47{stroke:#ff9072;}.cls-35{stroke:#2e7840;stroke-width:20.57px;}.cls-36,.cls-37,.cls-58,.cls-68{stroke:#d8d0bc;}.cls-36,.cls-46,.cls-47{stroke-width:46.66px;}.cls-38,.cls-39,.cls-40{stroke:#ee7f5c;}.cls-39{stroke-width:46.66px;}.cls-40,.cls-43{stroke-width:58.77px;}.cls-41{fill:#ee7f5c;}.cls-42{fill:#0e0f2d;}.cls-44{fill:#d8d0bc;}.cls-45{fill:#2e7840;}.cls-46,.cls-66,.cls-78{stroke:#ece6e1;}.cls-48{fill:#ff9072;}.cls-49{stroke:#ed7862;}.cls-51{fill:#ef697f;}.cls-52{fill:#f7fcef;}.cls-53,.cls-56{stroke:#ffb096;}.cls-53{stroke-width:44.93px;}.cls-54,.cls-55{stroke-width:89.87px;}.cls-56{stroke-width:46.34px;}.cls-57,.cls-59,.cls-65{stroke:#70532c;}.cls-57,.cls-59{stroke-width:60.73px;}.cls-58,.cls-65,.cls-66{stroke-width:60.73px;}.cls-60{fill:#70532c;}.cls-61{fill:#5c3f18;opacity:0.44;}.cls-62{fill:#ffb096;}.cls-63{stroke-width:11.01px;}.cls-64{fill:#e16d24;}.cls-67,.cls-68,.cls-77,.cls-78{stroke-width:63.11px;}.cls-69{stroke-width:54.15px;}.cls-70,.cls-71,.cls-72{stroke-width:86.88px;}.cls-71,.cls-72,.cls-77{stroke:#2e2b33;}.cls-73{fill:#1a3b51;}.cls-74{fill:#2e2b33;}.cls-75{stroke-width:16.64px;}.cls-76{stroke-width:13.31px;}.cls-79{stroke-width:16.71px;}</style></defs><title>Zasób 25</title><g id="Warstwa_2" data-name="Warstwa 2"><g id="Warstwa_2-2" data-name="Warstwa 2"><path class="cls-1" d="M3102.44,1877.29H223.6c-133.1,0-240.2-116.36-221.47-248.14q1.17-8.2,2.87-16.44l13.06-63.25c15.15-73.39,74.11-132,148.54-140.73a171.6,171.6,0,0,1,171.86,89.7l74.82,140.49c57,107,202.25,126.46,285.38,38.2L945.5,1415.05a98.74,98.74,0,0,1,118.28-19.44,581.19,581.19,0,0,0,417.09,49.88,244,244,0,0,1,282.55,135.12c27.35,60,111.08,63.86,143.88,6.69h0a443.21,443.21,0,0,1,372.12-222.47h17.8c102.92,0,200.82,38.9,280.32,104.27,118.71,97.61,287.1,122.21,435.67,49.21,95.9-47.13,211.55-7.64,254.24,90.32l4.39,10C3325,1740.74,3235.59,1877.29,3102.44,1877.29Z"/><rect class="cls-2" x="1387.68" y="590.36" width="483.13" height="807.38" transform="translate(3258.5 1988.1) rotate(180)"/><rect class="cls-3" x="1955.66" y="188.33" width="55.03" height="1688.85"/><rect class="cls-4" x="2725.19" y="188.33" width="55.03" height="1688.85"/><rect class="cls-5" x="1376.64" y="188.33" width="55.03" height="1688.85"/><rect class="cls-5" x="797.62" y="188.33" width="55.03" height="1688.85"/><rect class="cls-5" x="218.6" y="188.33" width="55.03" height="1688.85"/><path class="cls-4" d="M218.6,521V188.33h55V521c0,22.13-24.8,35.2-43.06,22.7h0A27.51,27.51,0,0,1,218.6,521Z"/><path class="cls-4" d="M797.62,998.82V188.33h55V998.82c0,22.13-24.8,35.2-43.06,22.7h0A27.51,27.51,0,0,1,797.62,998.82Z"/><path class="cls-4" d="M1376.64,1476.61V188.33h55V1476.61c0,22.13-24.8,35.2-43.06,22.7h0A27.51,27.51,0,0,1,1376.64,1476.61Z"/><path class="cls-4" d="M2411.92,0C2577,0,2742,62.78,2868.18,188.33H669.9V0Z"/><path class="cls-5" d="M1131.12,188.33H218.6C471-62.78,878.77-62.78,1131.12,188.33Z"/><rect class="cls-5" x="218.6" y="1651.66" width="2526.51" height="64.68" transform="translate(2963.71 3368) rotate(180)"/><path class="cls-4" d="M1737.19,1651.66H2745.11v64.68H1737.19a32.39,32.39,0,0,1-19.27-6.37h0C1692.9,1691.4,1706,1651.66,1737.19,1651.66Z"/><rect class="cls-4" x="218.6" y="443.45" width="2526.51" height="64.68" transform="translate(2963.71 951.58) rotate(180)"/><rect class="cls-6" x="1475.02" y="590.36" width="437.93" height="807.38" rx="42.14"/><rect class="cls-7" x="1769.33" y="639.73" width="91.16" height="330.41" rx="27.82"/><rect class="cls-7" x="1648.39" y="639.73" width="91.17" height="330.41" rx="27.82"/><rect class="cls-7" x="1527.49" y="639.73" width="91.17" height="229.63" rx="27.82"/><path class="cls-4" d="M229.7,295.18H2857.08a113.6,113.6,0,0,0,103.31-66.34c10.11-22.09-6.28-47.21-30.57-47.21H157c-24.28,0-40.67,25.12-30.57,47.2A113.56,113.56,0,0,0,229.7,295.18Z"/><path class="cls-5" d="M1116.46,295.18H229.7a113.6,113.6,0,0,1-103.31-66.34c-10.1-22.09,6.28-47.21,30.57-47.21H1189.2c24.28,0,40.67,25.12,30.57,47.2A113.58,113.58,0,0,1,1116.46,295.18Z"/><path class="cls-3" d="M2815.26,141q23.82,19,46.21,40.66H1014.27Q1036.64,160,1060.48,141Z"/><path class="cls-4" d="M1078,141q23.84,19,46.22,40.66H225.52Q247.87,160,271.73,141Z"/><path class="cls-4" d="M852.65,1489.18h-55v173.23a27.52,27.52,0,0,0,27.52,27.51h0a27.51,27.51,0,0,0,27.51-27.51Z"/><path class="cls-4" d="M246.12,1489.18h0a27.51,27.51,0,0,1,27.51,27.51v173.23a0,0,0,0,1,0,0h-55a0,0,0,0,1,0,0V1516.69A27.51,27.51,0,0,1,246.12,1489.18Z" transform="translate(492.23 3179.1) rotate(180)"/><path class="cls-8" d="M1376.64,1471.7v218.22l244.16-183.74a43.15,43.15,0,0,0,17.2-34.48H1376.64Z"/><path class="cls-9" d="M250.94,1442H1638a0,0,0,0,1,0,0v64.68a0,0,0,0,1,0,0H250.94a32.34,32.34,0,0,1-32.34-32.34v0A32.34,32.34,0,0,1,250.94,1442Z" transform="translate(1856.6 2948.63) rotate(180)"/><path class="cls-10" d="M250.94,1442H497.35a0,0,0,0,1,0,0v64.68a0,0,0,0,1,0,0H250.94a32.34,32.34,0,0,1-32.34-32.34v0A32.34,32.34,0,0,1,250.94,1442Z" transform="translate(715.95 2948.63) rotate(180)"/><path class="cls-11" d="M2236.17,1208.51a27.2,27.2,0,0,1,26.81,38.38,12.18,12.18,0,0,0,2.75,13.86,27.2,27.2,0,0,1-37.31,39.6,66.54,66.54,0,0,1-15-76A27.17,27.17,0,0,1,2236.17,1208.51Z"/><path class="cls-12" d="M2279.23,859.18l1.17,102.66a634.61,634.61,0,0,1-18,157.46L2234,1235.88"/><path class="cls-13" d="M2572.76,818.71a49.27,49.27,0,0,1-.48-30.06h0c8.14-26.62-7.41-53.81-33.88-62.42A49.78,49.78,0,0,1,2506,665.12c7.71-26.71-6.21-54.79-32.79-62.92h0A49.57,49.57,0,0,1,2444.32,579c-11.78-21-36.65-30.88-60-25.07l-81.81,20.33a49.77,49.77,0,0,0,33,62.15h0c25.94,7.94,41.74,35.47,33.33,61.25a49.77,49.77,0,0,0,32.75,63.06c31.89,9.75,39.17,35.77,31.6,68.25-9.74,41.77,12.61,84.52,55.68,94.1,33.9,7.54,69.51-10.11,83.93-41.7A74.51,74.51,0,0,0,2572.76,818.71Z"/><path class="cls-13" d="M2336.81,728.62a122.39,122.39,0,0,0,62.85,129l25.76,13.78a46.79,46.79,0,0,0,66.82-27.58h0c8.14-26.62-7.41-53.81-33.88-62.41a49.77,49.77,0,0,1-32.45-61c7.67-26.76-6.17-54.86-32.79-63h0Z"/><line class="cls-14" x1="2611.29" y1="1194.43" x2="2504.87" y2="867.55"/><path class="cls-6" d="M2354.45,1818.35l-7.6,12.23a30.9,30.9,0,0,1-14,12.15c-13.31,5.7-22,19.36-22.1,34.56l99.75,0,.21-16.9a110.48,110.48,0,0,0-7.83-42Z"/><path class="cls-6" d="M2614.77,1818.35l7.6,12.23a30.9,30.9,0,0,0,14,12.15c13.31,5.7,22,19.36,22.09,34.56l-99.74,0-.22-16.9a110.68,110.68,0,0,1,7.84-42Z"/><path class="cls-15" d="M2373.48,1320.65l187.46,497.7h55.83l-126.56-520.06q-9.36-38.44-21.76-76.06l-31.23-94.68H2275.37l-13.54,41a351.27,351.27,0,0,0-9.59,185.09l101.53,464.67H2408l-52.05-493.54a9.09,9.09,0,0,1,9-10h0A9.09,9.09,0,0,1,2373.48,1320.65Z"/><path class="cls-16" d="M2274,981.07h0a100.06,100.06,0,0,1,4.92,34.3l-3.5,112.18h161.85l36.58-126.91,43.73-116.74c-4.53-29.51-24.8-55.07-53.43-63.58-1.95-.58-3.94-1.09-5.95-1.53l-71.51-15.65-76.22,16.68-.84.18a110.59,110.59,0,0,0-47.49,23.93l9,43.14a103,103,0,0,1,.07,41.93l-.14.66A100.16,100.16,0,0,0,2274,981.07Z"/><path class="cls-11" d="M2386.64,803.14l-56.45,12.35,21.08,64.14a27.64,27.64,0,0,0,52.52,0l22.3-67.86Z"/><path class="cls-11" d="M2422.46,817.77l-17.39-70.33a25.88,25.88,0,0,0-50.26,12.36l18.07,73.44Z"/><path class="cls-13" d="M2329.17,655a50.69,50.69,0,1,0-43.47,57A50.68,50.68,0,0,0,2329.17,655Z"/><path class="cls-11" d="M2255.6,752c10.75,30,28.52,44,57.2,53.46,73.48-9.89,125.21-72.17,118-124.62l-5.27-38.65a90.17,90.17,0,0,0-105.11-76.58c-48,8.47-79.76,54.71-73.29,103,1,7.69,2,15.18,2.89,22.15a105,105,0,0,1,.48,22A93.36,93.36,0,0,0,2255.6,752Z"/><path class="cls-13" d="M2248.27,678.64c-8.86,4.21-19.24-1.85-20.55-11.57L2226.36,657a110.1,110.1,0,0,1,100.18-124.43c58.68-4.86,110.43,38.5,118.29,96.85l3.55,26.38-64,8.62a84.11,84.11,0,0,1-88.81-51l-5.85,1.88a60.08,60.08,0,0,0-41.41,63.37Z"/><path class="cls-13" d="M2293.63,606.74c-22.79-16.79-20.63-56.61,4-66.59,20.63-8.35,42.25-13,65.54-10.86,48.81,4.45,91.07,46.21,99.62,103.37a108.65,108.65,0,0,1,.77,17.79c-.61,27.5-18.84,49.33-42.43,50.26h0Z"/><path class="cls-11" d="M2418.34,663.47a29.65,29.65,0,0,0-25.43,33.34l4,29.37,29.39-4a29.64,29.64,0,1,0-7.91-58.75Z"/><path class="cls-17" d="M2431.34,696.3a32.76,32.76,0,0,0-12.45-.69h0a33,33,0,0,1-37.13-28.32h0A33,33,0,0,0,2344.64,639h0a33,33,0,0,1-37.12-28.32"/><path class="cls-18" d="M2327.5,701.81h0l2.25.83a14.59,14.59,0,0,0,14.71-2.73h0"/><path class="cls-18" d="M2263,701.81h0l2.25.83a14.59,14.59,0,0,0,14.71-2.73h0"/><line class="cls-19" x1="2323.91" y1="761.75" x2="2293.5" y2="761.75"/><line class="cls-14" x1="2455.81" y1="1211.01" x2="2457.19" y2="817.45"/><circle class="cls-8" cx="2535.12" cy="1216.4" r="87.99" transform="translate(-117.6 2148.87) rotate(-45)"/><circle class="cls-8" cx="2535.12" cy="1216.4" r="87.99" transform="translate(-117.6 2148.87) rotate(-45)"/><path class="cls-20" d="M2157.55,893.89l28.2-13.57a12,12,0,0,1,10.54.07l110.78,55.22a12,12,0,0,1-.15,21.52l-28.2,13.57a11.94,11.94,0,0,1-6.34,1.13,12.09,12.09,0,0,1-4.2-1.2L2157.4,915.41a12,12,0,0,1,.15-21.52Z"/><circle class="cls-21" cx="2535.12" cy="1216.4" r="59.74"/><path class="cls-12" d="M2494.5,886.9l-10.15,87.74a56.91,56.91,0,0,1-81.27,44.71l-124.34-60"/><path class="cls-11" d="M2206.14,942.76a27.21,27.21,0,0,1,46.14-8,12.15,12.15,0,0,0,13.71,3.41,27.2,27.2,0,0,1,20,50.61,66.53,66.53,0,0,1-75.11-18.75A27.16,27.16,0,0,1,2206.14,942.76Z"/><path class="cls-22" d="M3126.82,759h85a0,0,0,0,1,0,0V815a24.93,24.93,0,0,1-24.93,24.93h-24.26a35.82,35.82,0,0,1-35.82-35.82V759A0,0,0,0,1,3126.82,759Z" transform="translate(6338.65 1598.94) rotate(180)"/><path class="cls-23" d="M3202.31,1155.05h-53.39a85.11,85.11,0,0,1-84.94-90.46l12.95-206a68.36,68.36,0,0,1,68.22-64.06h60.93a68.35,68.35,0,0,1,68.22,64.06l13,206A85.12,85.12,0,0,1,3202.31,1155.05Z"/><line class="cls-24" x1="2953.78" y1="861.26" x2="2875.49" y2="1060.4"/><polygon class="cls-9" points="3112.06 783.75 3107.16 783.75 3047.58 783.75 3042.68 783.75 3001.98 834.59 3006.88 834.59 3147.86 834.59 3152.76 834.59 3112.06 783.75"/><path class="cls-25" d="M2944.16,1778V1321.81a13.58,13.58,0,0,1,13.56-13.61l75.86-.14-28.51,470Z"/><path class="cls-10" d="M2956.89,824.58A26.38,26.38,0,0,0,2936,852.16l7.23,104.62v244.14h232.15a87.25,87.25,0,0,0,23.56-59.64V956.78l8.77-126.92C3129.12,809.44,3042.8,806.4,2956.89,824.58Z"/><path class="cls-25" d="M2943.2,1200.38h232.17v85.07c0,35.68-25.3,64.6-56.53,64.6H2967.53a24.33,24.33,0,0,1-24.33-24.33Z"/><path class="cls-23" d="M3005.07,1790V1778h-60.53v9.8a33.49,33.49,0,0,1-11,24.81h0a33.52,33.52,0,0,1-22.53,8.7h-8a36.11,36.11,0,0,0-36.1,36.1v19.86h154.42v-37.35a42.38,42.38,0,0,0-8.15-25A42.4,42.4,0,0,1,3005.07,1790Z"/><polygon class="cls-9" points="3200.49 933.87 3203.7 887.45 2938.41 887.45 2941.62 933.87 3200.49 933.87"/><path class="cls-9" d="M3206.67,844.59l1-14.73c-78.56-20.42-164.88-23.46-250.79-5.28a26.38,26.38,0,0,0-20.24,20Z"/><rect class="cls-9" x="2943.21" y="1066.02" width="255.71" height="46.43"/><rect class="cls-9" x="2943.2" y="976.74" width="255.71" height="46.42"/><path class="cls-9" d="M3175.36,1200.92a87.15,87.15,0,0,0,22.35-45.61h-254.5v45.61Z"/><path class="cls-9" d="M3201.06,828.24q-22.82-5.62-46.42-9.26v381.94h20.72a87.25,87.25,0,0,0,23.56-59.64V956.78l2.15-31.15Z"/><path class="cls-9" d="M3022.49,814.77q-23.16,2.06-46.43,6.14v380h46.43Z"/><path class="cls-9" d="M3111.78,814.1q-23-1.7-46.43-1.45v388.27h46.43Z"/><rect class="cls-8" x="2976.06" y="1066.02" width="46.43" height="46.43"/><rect class="cls-8" x="3065.35" y="1066.02" width="46.43" height="46.43"/><rect class="cls-8" x="2976.06" y="887.45" width="46.43" height="46.43"/><rect class="cls-8" x="2976.06" y="976.74" width="46.43" height="46.42"/><rect class="cls-8" x="3065.35" y="976.74" width="46.43" height="46.42"/><rect class="cls-8" x="3065.35" y="887.45" width="46.43" height="46.43"/><rect class="cls-8" x="3154.64" y="1066.02" width="44.28" height="46.43"/><path class="cls-8" d="M3154.64,844.59h46.42V828.24q-22.82-5.62-46.42-9.26Z"/><rect class="cls-8" x="3154.64" y="976.74" width="44.27" height="46.42"/><polygon class="cls-8" points="3154.64 933.87 3200.49 933.87 3201.06 925.63 3201.06 887.45 3154.64 887.45 3154.64 933.87"/><rect class="cls-8" x="2976.06" y="1155.31" width="46.43" height="45.6"/><path class="cls-8" d="M3154.64,1155.31v45.61h20.72a87.15,87.15,0,0,0,22.35-45.61Z"/><polygon class="cls-8" points="3065.35 812.65 3065.35 844.59 3111.78 844.59 3111.89 832.3 3065.35 812.65"/><rect class="cls-8" x="3065.35" y="1155.31" width="46.43" height="45.6"/><path class="cls-8" d="M2976.06,844.59h46.43V814.77q-23.16,2.06-46.43,6.14Z"/><polygon class="cls-8" points="3083.21 852.67 3042.24 887.67 3111.86 887.67 3083.21 852.67"/><polygon class="cls-6" points="3042.24 812.73 3042.24 887.67 3112.07 831.81 3042.24 812.73"/><path class="cls-26" d="M3111.89,832.3l-26.73-122L3017,725.41l25.26,114.12c0,.16.07.32.11.48,4.61,18.89,27.56,25,42,13.8Z"/><path class="cls-8" d="M3022.49,819.67c-15.45,1.47-30.94,3.45-46.43,6.05v26.95l46.43,35.5Z"/><path class="cls-25" d="M3122.36,1778c-11.64-130.18-36.79-339.65-44.65-469.88h0A52.91,52.91,0,0,1,3130,1263l44.81-.07L3183,1778Z"/><path class="cls-27" d="M3183.93,1794.75,3183,1778h-60.62l1.34,23.65a23.39,23.39,0,0,1-2.64,12.2h0a23.66,23.66,0,0,1-11.37,10.6,36.06,36.06,0,0,0-21.4,33v19.85h105.2v-25.68a103.63,103.63,0,0,0-4.86-31.36A103.44,103.44,0,0,1,3183.93,1794.75Z"/><path class="cls-8" d="M3049.56,907.8a14.05,14.05,0,1,1-14-14A14,14,0,0,1,3049.56,907.8Z"/><path class="cls-8" d="M3049.56,1036.44a14,14,0,1,1-14-14.05A14,14,0,0,1,3049.56,1036.44Z"/><path class="cls-8" d="M3049.56,1165.07a14,14,0,1,1-14-14A14,14,0,0,1,3049.56,1165.07Z"/><path class="cls-28" d="M3109.66,1196.22V909.52a164.36,164.36,0,0,1,29.84-94.26c9.93,1.63,19.8,3.52,29.55,5.7a137.72,137.72,0,0,0-32.39,88.56v286.7Z"/><path class="cls-29" d="M2990.69,846.15v350.07h-27.17V846.15a74.23,74.23,0,0,1,4-23.63q16.76-3.46,33.69-5.86A47.38,47.38,0,0,0,2990.69,846.15Z"/><path class="cls-30" d="M2977,1215.06h0a13.47,13.47,0,0,0,13.48-13.48v-24.2h-27v24.2A13.48,13.48,0,0,0,2977,1215.06Z"/><path class="cls-30" d="M3123.14,1215.06h0a13.47,13.47,0,0,0,13.47-13.48v-24.2h-27v24.2A13.47,13.47,0,0,0,3123.14,1215.06Z"/><path class="cls-24" d="M3198.62,862.7l66.18,122a97.52,97.52,0,0,1-26.06,123.65l-89.88,69.5"/><path class="cls-26" d="M3155.69,1223.53h-29.05a17,17,0,0,1-17-17v-32.47a17,17,0,0,1,24-15.55l20.66,9.27a35.61,35.61,0,0,1,21,32.49v3.57A19.68,19.68,0,0,1,3155.69,1223.53Z"/><path class="cls-31" d="M3203.45,1042.12l-15.7-31.64a167.78,167.78,0,0,1-17.47-74.54V820.78"/><line class="cls-32" x1="2914.64" y1="988.77" x2="2875.49" y2="1060.4"/><path class="cls-26" d="M2934.45,806.92l-13.92-35.51c-5.11-13-6.22-27-5.43-41a38.41,38.41,0,0,0-2.6-16.29l-11.17-28.52a38.16,38.16,0,0,1,21.6-49.45L3068.67,579,3110,684.58A103,103,0,0,1,3051.75,818l-30.84,12.05a75.5,75.5,0,0,1-86.46-23.16Z"/><path class="cls-33" d="M2876.65,579.56l44-17.24a125,125,0,0,1,92.92.69l24.27,9.93h0a51,51,0,0,1,68.32,36.33l16.35,73.22-49.61,19.45a11.59,11.59,0,0,1-15-6.57l-5.42-13.82a31.46,31.46,0,0,0-23.63-14.82,17.58,17.58,0,0,1-16-15.83h0a17.37,17.37,0,0,0-23.64-14.69l-64.77,25.39c-16.6,6.51-35.41,5.71-50.91-3.1C2835.05,636.65,2846,591.59,2876.65,579.56Z"/><path class="cls-26" d="M3094.92,647.24h0c15.72-6.16,34.43.11,41.38,15.5a31.17,31.17,0,0,1-17,41.92l-25.85,10.13L3080.17,681A26,26,0,0,1,3094.92,647.24Z"/><path class="cls-33" d="M2936.31,801.63a11.55,11.55,0,0,0,11.13-9.63,17.36,17.36,0,0,1,17.18-14.23l34,.15a33.88,33.88,0,0,1,15.71,4h0a33.83,33.83,0,0,0,40.1-6.28l7.77-8a37.64,37.64,0,0,0,8.08-40l-12.61-32.15a13.13,13.13,0,0,1,7.44-17h0a13.12,13.12,0,0,1,17,7.43l17.2,43.88a80.4,80.4,0,0,1-5.57,70.13l-20.1,34.16a74.87,74.87,0,0,1-37.22,31.74l-1.2.47c-18.24,7.15-37.77,6.64-57.91.19a49.75,49.75,0,0,1-31-29.32l-13.89-35.45Z"/><line class="cls-34" x1="2976.1" y1="805.97" x2="3006.51" y2="805.97"/><path class="cls-18" d="M2951.3,720.84h0l-2.25.83a14.61,14.61,0,0,1-14.71-2.73h0"/><path class="cls-18" d="M3015.77,720.84h0l-2.26.83a14.6,14.6,0,0,1-14.7-2.73h0"/><path class="cls-6" d="M2983.61,988.21h-38.82a31.88,31.88,0,0,1-29.87-20.74l-34.24-91.82a12.9,12.9,0,0,1,12.09-17.42H2931a32.45,32.45,0,0,1,30.42,21.12L2995.55,971A12.74,12.74,0,0,1,2983.61,988.21Z"/><path class="cls-26" d="M2884.32,983.58l8.24,30.78a12.3,12.3,0,0,0,6.74,6.24c10.48,4.46,27.65-.53,38.36-11.13,3.08-3.05,8.58-6,13.92-5.67.75,0,1.5.06,2.26,0,20.28-.36,32.57-23.6,24.51-44.69l-1.38-3.61c-6-15.75-21.5-24.93-36.06-21.06-19,5-38,15.9-51.67,30.36a20.11,20.11,0,0,0-4.92,18.74Z"/><line class="cls-35" x1="1659.39" y1="1097.85" x2="1779.63" y2="868.24"/><path class="cls-36" d="M1964.25,911.76l-1.53,84.15c-.15,8.29,11.44,10.37,14.18,2.55l30.07-86"/><line class="cls-37" x1="1964.84" y1="859.18" x2="1964.25" y2="911.76"/><line class="cls-38" x1="2016.68" y1="884.69" x2="2031.16" y2="843.26"/><line class="cls-39" x1="2006.97" y1="912.45" x2="2016.68" y2="884.69"/><path class="cls-40" d="M1892.74,1235.88l-41.23,240.87q-4.12,24.11-6.39,48.48l-22.35,240.63"/><path class="cls-41" d="M1856.75,1875.07a29.36,29.36,0,0,1-38.24-16.26l-15.92-39.47a129.33,129.33,0,0,1-9.16-55,29.38,29.38,0,1,1,58.68,3.15,70.16,70.16,0,0,0,5,29.91l21.57,53.47Z"/><path class="cls-42" d="M1794.5,1772h0l34.54,55a39.33,39.33,0,0,0,33.09,18.4l24.57.06a16,16,0,0,1,13.53,7.59h0a15.94,15.94,0,0,1-13.57,24.29h-53.82l-40.31-46.08A43.39,43.39,0,0,1,1794.5,1772Z"/><path class="cls-42" d="M1798.65,1877.29h0a11.4,11.4,0,0,1-11.35-10.39l-5.3-60.1h28v59.1A11.39,11.39,0,0,1,1798.65,1877.29Z"/><path class="cls-42" d="M1990.35,1803.3l31.18,50.7a15.29,15.29,0,0,1-13,23.29h-42.63a44.7,44.7,0,0,1-41.83-28.92h0a87.81,87.81,0,0,1-5.67-31v-45.68Z"/><path class="cls-43" d="M1980.54,1841.89l-10.19-18.29a330.51,330.51,0,0,1-35.68-97.85l-30.89-159.54A824.75,824.75,0,0,0,1835.1,1361l-38.57-78.92"/><path class="cls-42" d="M2016.23,1845.76l6.86,11a13.42,13.42,0,0,1-11.39,20.51h-45.83a44.7,44.7,0,0,1-41.83-28.92h0a88,88,0,0,1-3.47-11.51l6.09-36.2h0a81.09,81.09,0,0,0,72.66,45.1Z"/><path class="cls-6" d="M1803.54,1148.36h158V886.93a68.45,68.45,0,0,0-68.45-68.45h-88.61a68.45,68.45,0,0,0-66.12,86.12L1775.65,1044a28.88,28.88,0,0,0,27.89,21.42h0Z"/><path class="cls-44" d="M1826.39,1140.51l7.22-132.73a71.34,71.34,0,0,0-53-72.84l-36.68-9.69L1775.65,1044a28.88,28.88,0,0,0,27.9,21.42h0v75.08Z"/><path class="cls-23" d="M1803.54,1065.43h158l18.48,84.08a556.64,556.64,0,0,1,4.18,218l-7.81,43.44h-208.7l-3-17.63a556.75,556.75,0,0,1,18.83-265.8Z"/><path class="cls-45" d="M1714.1,1239.78l-66.56-27.19a48.66,48.66,0,0,1-24.85-67.32l44.32-86a41.71,41.71,0,0,0,0-38.32h0a15.35,15.35,0,0,1,13.63-22.42h108a20.47,20.47,0,0,1,20.39,22.19l-14.47,169.91A58.48,58.48,0,0,1,1714.1,1239.78Z"/><path class="cls-35" d="M1796.22,1050.68l10.23-138.2a266.67,266.67,0,0,0-1.62-55.05l-5.67-42.4"/><path class="cls-46" d="M1757.88,879.07l-8.07,62.58a433.29,433.29,0,0,0,14.65,179.7l15.71,52.44"/><line class="cls-47" x1="1779.98" y1="1173.17" x2="1793.59" y2="1218.59"/><path class="cls-9" d="M1867.66,538.55a85.74,85.74,0,0,1,104.62,89.86L1964.39,736a25.45,25.45,0,0,0,15.33,25.25h0a25.46,25.46,0,0,1,15,27.6l-7.4,44.14a57.77,57.77,0,0,1-57,48.2h0a17.18,17.18,0,0,1-17-19.79h0a31.24,31.24,0,0,0-14-31.05l-29-18.57,4.69-263.93Z"/><path class="cls-8" d="M1966.55,748.18a25.32,25.32,0,0,1-2.16-12.23l5.78-78.86a19.74,19.74,0,0,0-19.69-21.19h-33l-45.93,111.72-1.14,64.11,29,18.57A31.14,31.14,0,0,1,1911.5,845l22.42-21.62a32.83,32.83,0,0,0,9.31-30.49h0A32.79,32.79,0,0,1,1952,763Z"/><rect class="cls-48" x="1823.4" y="709.89" width="58.65" height="131.38" rx="29.33" transform="translate(3705.44 1551.15) rotate(180)"/><path class="cls-48" d="M1886.56,782.61h0a63.19,63.19,0,0,0,63-58.57l6.37-87a69.58,69.58,0,0,0-69.39-74.67h0a74.87,74.87,0,0,0-74.87,74.87v70.48A74.87,74.87,0,0,0,1886.56,782.61Z"/><path class="cls-9" d="M1730.34,759.93v-7.28a43.32,43.32,0,0,1,14.54-32.38h0a43.35,43.35,0,0,0,14-25.83L1773.86,597a72.39,72.39,0,0,1,67.73-61.51,244.37,244.37,0,0,1,65.6,5.78,11.78,11.78,0,0,1,8.58,15.52l-14.85,40.92c-3.37,9.28-12,16-21.9,16a23,23,0,0,0-22.87,20.27l-.89,7.44a38.72,38.72,0,0,1-21.32,30.12,19,19,0,0,0-10.55,17V821.85a59.28,59.28,0,0,1-59.29,59.29h-14.47a50.57,50.57,0,0,1-50.57-50.57V791.21a15.64,15.64,0,0,1,15.64-15.64h0A15.64,15.64,0,0,0,1730.34,759.93Z"/><line class="cls-49" x1="1881.82" y1="733.01" x2="1911.74" y2="733.01"/><line class="cls-50" x1="1883.92" y1="665.31" x2="1867.66" y2="665.31"/><line class="cls-50" x1="1947.65" y1="665.31" x2="1931.39" y2="665.31"/><path class="cls-48" d="M1800.11,1190.45l-25.71,6.89a10.24,10.24,0,0,0-5.09,6.1c-3.48,9.63,1.15,25.73,10.35,36,2.65,2.94,5.26,8.12,5.13,13.09,0,.69,0,1.39,0,2.09.81,18.87,20.7,30.89,38.26,23.93l3-1.19a27.93,27.93,0,0,0,16.83-33c-5.67-21.32-18.35-42.86-34.62-55.93Z"/><path class="cls-8" d="M1823.39,825.39h0V690.58a27,27,0,0,1-16.06,24.66h0a28.34,28.34,0,0,0-16.9,25.92v22.18A74.87,74.87,0,0,0,1823.39,825.39Z"/><path class="cls-51" d="M2028.3,838.5H1997c-9.56,0-16.23-8.16-14.45-17.65l21.14-112.49a20.28,20.28,0,0,1,19.49-16.31h31.33c9.56,0,16.23,8.15,14.45,17.64l-21.14,112.49A20.29,20.29,0,0,1,2028.3,838.5Z"/><path class="cls-41" d="M2045,769.28a27.21,27.21,0,0,0-26.81,38.38,12.16,12.16,0,0,1-2.74,13.86,27.2,27.2,0,1,0,37.31,39.6,66.55,66.55,0,0,0,15-76A27.18,27.18,0,0,0,2045,769.28Z"/><path class="cls-52" d="M1353.43,1861.74l.29,15.55h143.54c-.93-14.85-15-28-36.22-33.61-9.41-2.47-17.44-6.76-23-12.3l-7.92-7.87a28.12,28.12,0,0,0-19.8-8.16h-25.26a28.16,28.16,0,0,0-26,17.44A72.28,72.28,0,0,0,1353.43,1861.74Z"/><path class="cls-52" d="M1174.37,1861.74l.29,15.55h143.53c-.92-14.85-15-28-36.22-33.61-9.41-2.47-17.43-6.76-23-12.3l-7.91-7.87a28.14,28.14,0,0,0-19.8-8.16H1206a28.18,28.18,0,0,0-26,17.44A72.44,72.44,0,0,0,1174.37,1861.74Z"/><line class="cls-53" x1="1392.43" y1="1823.61" x2="1401.26" y2="1770.32"/><line class="cls-53" x1="1213" y1="1823.61" x2="1221.83" y2="1770.32"/><path class="cls-54" d="M1428.08,1735,1450,1602.84a119.71,119.71,0,0,0-69.78-129.09l-118.77-52.4"/><line class="cls-55" x1="1417.81" y1="1796.99" x2="1429.34" y2="1727.4"/><path class="cls-54" d="M1246.77,1744.29l22-132.56A163.6,163.6,0,0,0,1202.53,1452l-40-28.6"/><line class="cls-55" x1="1237.57" y1="1799.8" x2="1248.95" y2="1731.12"/><path class="cls-56" d="M1370,1228.82h0c6.19,22,34.64,27.79,49,10l60.69-75.51"/><line class="cls-57" x1="1349.68" y1="1156.77" x2="1359.11" y2="1190.22"/><path class="cls-58" d="M1358.52,1188.1l11.41,40.46q.35,1.25.75,2.43"/><path class="cls-42" d="M1091.17,1317.6l.1,75.38a81.3,81.3,0,0,0,81.25,81.4l77.77,0a56,56,0,0,0,56-56.08l-.09-101.81Z"/><line class="cls-59" x1="1331.53" y1="1092.45" x2="1349.68" y2="1156.77"/><path class="cls-60" d="M1312.76,1372.07l.08-74.79a599.39,599.39,0,0,1,14.07-75l32.48-130.7a30.74,30.74,0,0,0-15.85-34.8l-102.82-52.45-74.38,17.6a71,71,0,0,0-53.56,57.15l-43.63,256.2a43.38,43.38,0,0,0,41.66,50.69l183.18,4.47A18.35,18.35,0,0,0,1312.76,1372.07Z"/><path class="cls-61" d="M1085.72,1238l15.88-93.27A531.11,531.11,0,0,0,1239,1172.5l98.67,6.62-10.72,43.13c-3.86,15.17-6.91,30.5-9.56,45.92l-106.59-6.77A528.24,528.24,0,0,1,1085.72,1238Z"/><path class="cls-6" d="M1197,1014.64l43.25,94.3c9.91,21.6,41.46,18.6,47.13-4.49l16.66-67.83-63.35-32.32Z"/><path class="cls-62" d="M1197,1014.64l14.13,30.82c19.54,42.59,81.73,36.67,92.91-8.84h0l-63.35-32.32Z"/><path class="cls-62" d="M1218.83,1013a235.61,235.61,0,0,0,36.73-108.45,29.12,29.12,0,1,1,58,4.81,294.79,294.79,0,0,1-21.12,87.88h0l-.12.26-.08.23-.07.14a294.73,294.73,0,0,1-24.43,46.67Z"/><line class="cls-63" x1="1381.8" y1="872.92" x2="1435.43" y2="921.73"/><path class="cls-62" d="M1305.2,1022.52A95,95,0,0,1,1236,907.34l28-112.91,144.43,35.86A35.27,35.27,0,0,1,1434.18,873h0a46.21,46.21,0,0,1-19.39,27.43h0l-6.63,26.7-15.38,61.94a53.52,53.52,0,0,1-64.79,39.1Z"/><path class="cls-62" d="M1235.69,860.84a26.53,26.53,0,0,0-12.78,51.49l41.82,10.39L1276,870.84Z"/><path class="cls-28" d="M1231.27,860.66h0a23.31,23.31,0,0,1,17,28.25l-.71,2.84a9.4,9.4,0,0,0,6.84,11.39h0a9.39,9.39,0,0,0,11.37-6.86l4.51-18.16a25.42,25.42,0,0,1,29.27-14.33l3.68-14.82a25.35,25.35,0,0,1,29.23-14.29l0-.17-89.22-22.15Z"/><line class="cls-63" x1="1247.69" y1="877.92" x2="1297.06" y2="922.85"/><path class="cls-63" d="M1331.78,953.45h-14.33c-9.77,0-17.1-7-17.46-16.56l-.62-16.58c-.33-8.7,7.57-16.77,16.41-16.77h32.65c8.74,0,14.18,7.88,11.36,16.51l-5.38,16.51C1351.22,946.33,1341.67,953.45,1331.78,953.45Z"/><path class="cls-63" d="M1409.71,953.45h-14.33c-9.77,0-17.09-7-17.45-16.56l-.62-16.58c-.33-8.7,7.56-16.77,16.41-16.77h32.64c8.75,0,14.18,7.88,11.37,16.51-1.73,5.3-3.65,11.18-5.38,16.51C1429.16,946.33,1419.61,953.45,1409.71,953.45Z"/><path class="cls-63" d="M1377.43,923.52a8,8,0,0,0-8.24-7.49,11.68,11.68,0,0,0-10.52,7.44"/><path class="cls-64" d="M1247.47,795.43a59.7,59.7,0,0,1,72.29-43.62l3.86,1a77.92,77.92,0,0,0,56.63-7.53l10-5.58a6.55,6.55,0,0,1,9.51,7.39,2.25,2.25,0,0,1-.09.35c-2.38,9.25,7.4,17,15.75,12.32A56.66,56.66,0,0,0,1426,752.2a28.5,28.5,0,0,1,25.93-6.55c51.83,12.87,62.65,81.17,23.17,107.1a4.33,4.33,0,0,0,1.24,7.8c5.61,1.53,7,8.67,2.17,11.85-15.9,10.41-37.33,11.89-55.58-2.64a135.14,135.14,0,0,0-51.58-25.6l-128.06-31.8Z"/><line class="cls-34" x1="1353.55" y1="993.36" x2="1324.19" y2="993.36"/><path class="cls-18" d="M1378.62,922.37h0l2.17.8a14.09,14.09,0,0,0,14.2-2.64h0"/><path class="cls-18" d="M1316.37,922.37h0l2.17.8a14.11,14.11,0,0,0,14.21-2.64h0"/><path class="cls-42" d="M1380.69,1139.43l44.16-80.85a30.1,30.1,0,0,1,26.55-15.67l32.93.15a10.53,10.53,0,0,1,9.19,15.58l-44.16,80.86a30.09,30.09,0,0,1-26.54,15.66l-32.93-.15A10.53,10.53,0,0,1,1380.69,1139.43Z"/><path class="cls-62" d="M1449.06,1096.33a25.91,25.91,0,0,0,.28,44.61,11.61,11.61,0,0,1,5.51,12.3,26,26,0,0,0,50.89,10.3,63.43,63.43,0,0,0-30.22-67.35A26,26,0,0,0,1449.06,1096.33Z"/><path class="cls-62" d="M1423.3,1096.34a25.91,25.91,0,0,1-17.65,41,11.59,11.59,0,0,0-9.87,9.17,26,26,0,0,1-50.88-10.35A63.44,63.44,0,0,1,1399,1085.9,26,26,0,0,1,1423.3,1096.34Z"/><path class="cls-56" d="M1370.61,1145.37l-88.75,79.52c-29.52,26.45-76.45,14.28-89.41-23.18"/><line class="cls-65" x1="1190.19" y1="1174.56" x2="1163.82" y2="1098.33"/><line class="cls-66" x1="1206.94" y1="1222.98" x2="1190.19" y2="1174.56"/><line class="cls-67" x1="979.81" y1="817.37" x2="1002.8" y2="1055.24"/><line class="cls-67" x1="1002.91" y1="1054.11" x2="1041.48" y2="1017.02"/><line class="cls-68" x1="1041.48" y1="1017.02" x2="1047.49" y2="1011.25"/><line class="cls-69" x1="945.32" y1="1765.38" x2="942.52" y2="1821.69"/><line class="cls-70" x1="924.95" y1="1196.22" x2="946.19" y2="1816.11"/><path class="cls-42" d="M1062.54,1877l-161.25.18-.36-19.28a83.3,83.3,0,0,1,10-40.59,24,24,0,0,1,21.31-12.78l32.4.1a29.34,29.34,0,0,1,20.56,8.52l10.73,10.66c6.26,6.22,15.27,11,25.84,13.82h0c24.6,6.46,40.71,22,40.77,39.37Z"/><line class="cls-69" x1="749.72" y1="1778.22" x2="744.28" y2="1842.17"/><path class="cls-42" d="M785.76,1804.58c4.29,0,8.24,4.81,10.23,12.61a157.87,157.87,0,0,1,4.83,40.71l-.22,19.28-78.44.11v-.06l-40.87.06c.07-17.34,7.94-32.93,19.91-39.45,5.15-2.8,9.54-7.63,12.6-13.86l4.63-9.44c3.06-6.23,7.18-9.76,11.48-9.8Z"/><path class="cls-42" d="M741.61,1280.41l-.19,61.26a23.1,23.1,0,0,0,25.27,23.06l30.61-2.9,15.63-17.12,93.27-8.83a77.41,77.41,0,0,0,65.47-79.71l-7-153.82-193.23,8h0l-26.18,133.38A193.64,193.64,0,0,0,741.61,1280.41Z"/><polyline class="cls-71" points="781.81 1381.62 778.09 1498.82 760.93 1813.21"/><line class="cls-72" x1="783.68" y1="1322.51" x2="781.81" y2="1381.62"/><path class="cls-6" d="M972.82,1024.76,918.1,753.93h0c-.18-.07-16.8-10.49-30.42-19a34.61,34.61,0,0,0-35.53-.76l-43.46,24.76h0l-80.59,91.3,30.42,183.44,4.2,129.2,86.34-3.58a129.24,129.24,0,0,0,123.77-134.49Z"/><polygon class="cls-73" points="921.44 984.87 884.68 958.62 869.59 789.15 933.79 958.62 921.44 984.87"/><path class="cls-11" d="M891.82,762.31,917.29,688a30,30,0,1,0-56.69-19.43l-26.23,76.53,35.22,44Z"/><path class="cls-74" d="M978.18,1080.28a741.53,741.53,0,0,1,6.38-140.93l18.24-128.8-.23-5.61a19.76,19.76,0,0,0-17.26-18.81,100.58,100.58,0,0,1-43-15.82l-24.23-16L908.28,953,808.57,758.9l-25.43,15.6c-18.34,11.26-51.12,20.37-68.27,25.68a14.12,14.12,0,0,0-9.93,14.09l5.65,94.39A491.93,491.93,0,0,0,724,996.84h0a361.66,361.66,0,0,1,5.35,144.31A356.05,356.05,0,0,0,725,1213l.14,65.09,253-10.49Z"/><polygon class="cls-42" points="908.28 953.02 808.68 758.89 778.53 791.37 792.87 811.49 775.06 841.3 908.28 953.02"/><polygon class="cls-42" points="908.28 953.02 918.09 753.93 938.49 767.78 933.76 798.72 944.13 827.36 908.28 953.02"/><path class="cls-42" d="M799.77,1277.47h0a139.76,139.76,0,0,0,122.09-124.7l1.82-18v142.74Z"/><circle class="cls-42" cx="908.28" cy="983.06" r="11.32" transform="translate(-305.46 418.96) rotate(-22.34)"/><path class="cls-42" d="M832.31,1153.47H770.53a9.37,9.37,0,0,1-9.36-9.37h0a9.37,9.37,0,0,1,9.36-9.37h61.78a9.37,9.37,0,0,1,9.36,9.37h0A9.37,9.37,0,0,1,832.31,1153.47Z"/><path class="cls-11" d="M1033.09,682.64a34.4,34.4,0,0,1,3.87,32.24l-6.32,16.23c-12.5,32-38,58.37-97.88,62C874.38,770.36,819.54,688.57,840.7,634.3c0,0,16.53-42.42,31.41-80.57s62.36-55.26,106.08-38.22l25,9.77a84.86,84.86,0,0,1,48.38,109.81c-3.18,8.15-15,38.51-18.53,47.55Z"/><path class="cls-11" d="M848.06,602.57a29.41,29.41,0,1,0-21.37,54.81L854.05,668l21.36-54.81Z"/><path class="cls-42" d="M994.46,771.39c-5.22,17.13-25.94,32.39-48.78,34.53-27.62,2.59-45.6-13.36-39.5-33.4l6.46-21.17a27.15,27.15,0,0,1,26-19.24h50a13.22,13.22,0,0,1,12.64,17.07Z"/><path class="cls-42" d="M929.15,541.16l-8.31,49.24-73.18-14.29,14.91-38.27a75.71,75.71,0,0,1,98-43L1024,519.5a27.3,27.3,0,0,1,15,36.71c-6.09,13.48-22.46,19-36.23,13.61Z"/><path class="cls-74" d="M920.84,590.4l-4.25,25.15A44.75,44.75,0,0,0,889,641.78l-5.06,13c-2.53,6.49-9.31,10.79-16.13,9.34a14,14,0,0,1-10.2-18.78l8-20.6c2.73-7-2.23-15.47-11.08-18.92l-16-6.25,9.14-23.42Z"/><line class="cls-75" x1="974.81" y1="756.16" x2="941.56" y2="756.16"/><path class="cls-76" d="M1003.21,675.74h0l2.46.91a16,16,0,0,0,16.09-3h0"/><path class="cls-76" d="M932.7,675.74h0l2.46.91a16,16,0,0,0,16.09-3h0"/><path class="cls-73" d="M962.41,984.17l46.13-84.47a31.47,31.47,0,0,1,27.74-16.37l34.4.16a11,11,0,0,1,9.6,16.28l-46.13,84.47a31.47,31.47,0,0,1-27.73,16.37l-34.41-.16A11,11,0,0,1,962.41,984.17Z"/><polygon class="cls-73" points="884.81 841.65 848.05 815.4 869.59 789.15 897.16 815.4 884.81 841.65"/><path class="cls-11" d="M1078.24,1011.43c9.08-19.68,4.12-43.21-12.58-57a78.14,78.14,0,0,0-51.72-17.94,32,32,0,0,0,1.51,63.95,14.29,14.29,0,0,1,13.73,9.35c.17.46.35.91.54,1.36,8.87,21.09,38.92,21.07,48.52.3Z"/><path class="cls-77" d="M894.67,936.72l-115.75,97.84c-19.26,16.27-48.78,3.08-49.51-22.11l-5.25-181.9"/><line class="cls-78" x1="909.72" y1="924" x2="894.67" y2="936.72"/><path class="cls-11" d="M980.16,881.77c-13.61-16.87-36.9-22.86-56.68-14a78.2,78.2,0,0,0-39,38.41,32,32,0,0,0,58,27A14.31,14.31,0,0,1,956.92,925l1.46.12c22.84,1.41,36.14-25.55,21.78-43.35Z"/><path class="cls-42" d="M760.14,1669.73H650.64v-54.55a23.78,23.78,0,0,1,23.77-23.72h62a23.76,23.76,0,0,1,23.73,23.72v54.55Zm-94.88-14.61h80.26v-39.94a9.12,9.12,0,0,0-9.11-9.1h-62a9.15,9.15,0,0,0-9.15,9.1v39.94Z"/><path class="cls-73" d="M844.62,1639.83H557.9a18.41,18.41,0,0,0-16.57,18.3v200.78a18.38,18.38,0,0,0,10,16.32,59.23,59.23,0,0,0,15.07,2H842.09s16.69-27.44,16.69-61.29Z"/><path class="cls-42" d="M863.53,1854.85V1659.06a19.22,19.22,0,0,0-19.22-19.23h0a19.24,19.24,0,0,0-19.17,17.65L807,1877.18h34.25A22.32,22.32,0,0,0,863.53,1854.85Z"/><line class="cls-79" x1="841.67" y1="1804.67" x2="541.33" y2="1804.67"/><path class="cls-2" d="M568.78,1778.22h28.48a0,0,0,0,1,0,0v35.62A14.24,14.24,0,0,1,583,1828.09h0a14.24,14.24,0,0,1-14.24-14.24v-35.62A0,0,0,0,1,568.78,1778.22Z"/><path class="cls-2" d="M753.56,1778.22H782a0,0,0,0,1,0,0v35.62a14.24,14.24,0,0,1-14.24,14.24h0a14.24,14.24,0,0,1-14.24-14.24v-35.62a0,0,0,0,1,0,0Z"/></g></g></svg>