<svg xmlns="http://www.w3.org/2000/svg" width="894.249" height="448.282" xmlns:v="https://vecta.io/nano"><path d="M294.494 448.282q-40.475 0-80.829-1.449c-38.44-1.381-78.19-2.808-115.136-23.299-25.845-14.333-48.735-37.329-66.194-66.504a223.77 223.77 0 0 1-25.369-63.604c-9.594-40.741-9.267-83.19.953-123.779 3.581-13.916 8.519-27.448 14.741-40.4C49.603 73.453 98.745 36 157.486 26.492c.485-.063.976-.073 1.463-.031.264.014.528.029.796.018l.346-.11a16.88 16.88 0 0 1 2.721-.698c90.594-13.487 186.365 13.802 276.952 78.914 70.042 50.351 162.868 77.464 283.781 82.889l1.717.09c33.66 1.934 66.218 15.811 94.16 40.133 27.579 24.006 48.287 56.034 59.884 92.624 1.426 4.461 2.733 9.105 3.884 13.801a26.04 26.04 0 0 1-6.941 24.69v.009l-.301.31a33.17 33.17 0 0 1-2.267 2.056l-.917.756c-7.727 6.365-13.83 11.394-21.135 15.299-4.872 2.587-10.053 4.543-15.419 5.821-29.465 7.184-59.388 13.844-88.936 19.797-57.385 11.57-116.281 21.115-175.054 28.368a2269.14 2269.14 0 0 1-277.726 17.056zM158.262 28.437c-.18-.002-.361.011-.539.037C99.531 37.893 50.854 74.978 24.178 130.219c-6.161 12.824-11.049 26.222-14.595 40a259.19 259.19 0 0 0-.941 122.681 221.62 221.62 0 0 0 25.123 62.996c17.288 28.889 39.944 51.654 65.518 65.836 36.614 20.308 76.176 21.729 114.436 23.102 119.663 4.276 239.476-.939 358.315-15.595 58.735-7.249 117.593-16.787 174.94-28.351 29.528-5.948 59.43-12.604 88.875-19.783a63.36 63.36 0 0 0 15.047-5.679c7.157-3.826 13.202-8.807 20.855-15.111l.917-.755c.67-.554 1.329-1.146 1.958-1.761l.181-.189c6.289-6.339 8.735-14.702 6.71-22.944v-.001c-1.139-4.646-2.432-9.24-3.844-13.655-23.69-74.746-84.974-127.569-152.496-131.447l-1.707-.09c-55.232-2.479-103.564-9.344-147.752-20.99-52.75-13.902-98.801-34.83-136.876-62.201-90.242-64.862-185.613-92.049-275.811-78.626-.843.145-1.672.36-2.479.643l-.623.174c-.354.016-.708.012-1.062-.013-.208-.011-.41-.021-.607-.021z" fill="#f0f0f0"/><path d="M279.327 146.056c-2.498-2.397-5.053-15.762-8.242-17.118 2.384 5.269.653 6.663.64 12.446.03 3.283-.353 6.557-1.141 9.745H216.56v-42.162c0-7.651 3.039-14.989 8.449-20.399s12.748-8.449 20.399-8.449c1.446.028 2.883.239 4.276.626a27.43 27.43 0 0 1 19.351 19.404c4.119 15.054 10.669 40.111 10.293 45.908z" fill="#2f2e41"/><path d="M219.73 197.923l.027-32.863-19.318 1.726 6.818 20.726-3.191 52.096c-4.314.968-7.076 5.191-6.234 9.531s4.982 7.224 9.345 6.509 7.366-4.769 6.779-9.151zm38.016 234.837l7.804-.001 3.713-30.102h-11.519l.002 30.103z" fill="#ffb6b6"/><path d="M255.103 428.91l12.337-.736v5.286l11.729 8.101a3.3 3.3 0 0 1-1.876 6.019h-14.688l-2.532-5.228-.988 5.228h-5.538z" fill="#2f2e41"/><path fill="#ffb6b6" d="M212.62 432.76l7.805-.001 3.712-30.102h-11.518l.001 30.103z"/><path d="M209.977 428.91l12.337-.736v5.286l11.729 8.101a3.3 3.3 0 0 1-1.876 6.019H217.48l-2.532-5.228-.988 5.228h-5.538z" fill="#2f2e41"/><path d="M250.796 129.571l-16.167.317-11.412 12.046-9.149 1.342a18.27 18.27 0 0 0-15.577 16.897h0l1.585 8.706h9.51l5.502 32.303c-2.139 5.451-2.285 9.754 2.107 11.444l13.631 25.678 40.26-18.069c2.042-3.51 2.696-7.036.609-10.464l2.878-49.45h9.677 0c0-9.249-3.128-17.046-12.32-18.075-3.65-.395-7.318-.605-10.989-.629z" fill="#e6e6e6"/><path d="M271.085 220.235s-39.309 6.974-53.891-7.608l-3.711 6.682c-.642 1.199-1.881 2.011-2.629 3.463-.68 1.32-2.429 2.942-3.17 4.439-.596 1.204.36 2.777-.26 4.078-7.468 15.664-16.193 37.759-14.322 52.348l6.322 54.816c.205 1.837-1.455 4.197-1.249 6.049.194 1.746 2.255 2.984 2.45 4.734.129 1.162-1.31 2.348-1.181 3.508.141 1.273 1.85 2.522 1.991 3.79l6.886 62.781h18.386l3.469-69.232-2.835-25.236 6.657-51.038 9.193 48.502 1.183 27.297 9.715 70.975h16.999v-68.708l1.268-3.569-1.268-4.578 1.268-4.932-1.268-5.372z" fill="#2f2e41"/><path d="M255.759 120.196a18.33 18.33 0 0 1-32.585-14.742 18.33 18.33 0 0 1 35.761-.572l.14.665a18.3 18.3 0 0 1-3.315 14.65z" fill="#ffb6b6"/><path d="M251.937 109.739c-.389-1.951-1.372-3.734-2.815-5.104a13.14 13.14 0 0 1-.761 5.51c-4.82.427-9.661-.532-13.955-2.764-3.233-2.194-7.348-2.004-12.141 0a17.75 17.75 0 0 1 17.752-17.752h3.17a17.76 17.76 0 0 1 17.752 17.752 52.85 52.85 0 0 1-9.003 2.358z" fill="#2f2e41"/><g fill="#f0f0f0"><circle cx="113.249" cy="285" r="51"/><circle cx="438.249" cy="51" r="51"/><circle cx="843.249" cy="293" r="51"/></g><path d="M530.249 56.562v115.646a9.12 9.12 0 0 1-9.024 9.119.8.8 0 0 1-.1.004h-13.46c-22.426 0-40.606-18.18-40.606-40.606V56.562c0-5.039 4.085-9.123 9.123-9.123h5.454c-2.527 7.371 31.765 10.474 33.648 0h5.841c5.039 0 9.123 4.085 9.123 9.123z" fill="#6c63ff"/><g fill="#3f3d56"><path d="M490.306 38.791a1.2 1.2 0 0 1 1.196-1.196h8.13c.659.002 1.192.537 1.192 1.196s-.533 1.194-1.192 1.196h-8.13a1.2 1.2 0 0 1-1.196-1.196zM523.919 196h-51.416c-8.306-.009-15.037-6.74-15.046-15.046v-80.841c-.573-.411-.912-1.074-.911-1.779v-8.13c-.001-.705.338-1.367.911-1.778v-2.182c-.573-.411-.912-1.073-.911-1.778v-8.131c-.001-.705.338-1.367.911-1.778v-3.944a2.18 2.18 0 0 1-1.15-1.93v-8.13c-.002-.806.44-1.548 1.15-1.93V47.815c.01-8.306 6.741-15.037 15.046-15.046h51.416c8.306.009 15.037 6.74 15.046 15.046v23.556c.551.345.885.948.886 1.598v15.503c0 .65-.335 1.254-.886 1.599v90.883c-.009 8.306-6.74 15.037-15.046 15.046zM472.503 34.769c-7.202.008-13.038 5.844-13.046 13.046v12.508l-.962.037c-.104.004-.187.088-.188.192v8.13c.002.104.085.188.188.192l.962.037v7.049l-.761.188c-.087.021-.148.097-.15.187v8.131c.002.089.064.166.15.187l.761.188v4.991l-.761.188c-.087.021-.148.097-.15.187v8.13c.002.089.064.166.15.187l.761.188v82.246c.008 7.202 5.845 13.038 13.046 13.046h51.416c7.202-.008 13.038-5.844 13.046-13.046v-92.6h.886V73.084h-.886V47.815c-.008-7.202-5.844-13.038-13.046-13.046z"/><circle cx="504.176" cy="38.791" r="1.196"/></g><path d="M244.08 270.403H110.293a7.19 7.19 0 0 1-7.17-7.169v-65.189a7.19 7.19 0 0 1 7.169-7.17h133.787a7.19 7.19 0 0 1 7.17 7.169v65.189a7.19 7.19 0 0 1-7.169 7.17z" fill="#fff"/><path d="M244.08 270.403H110.293a7.19 7.19 0 0 1-7.17-7.169v-65.189a7.19 7.19 0 0 1 7.169-7.17h133.787a7.19 7.19 0 0 1 7.17 7.169v65.189a7.19 7.19 0 0 1-7.169 7.17zm-133.787-77.528c-2.852.008-5.162 2.319-5.17 5.171v65.187c.008 2.852 2.319 5.162 5.171 5.17h133.784c2.853-.008 5.163-2.318 5.171-5.171v-65.187c-.008-2.852-2.319-5.162-5.171-5.17z" fill="#3f3d56"/><path d="M184.357 260.769c-26.386 0-53.899-.252-64.164-.416-2.809-.058-5.059-2.346-5.07-5.155v-53.962a1.83 1.83 0 0 1 1.823-1.828h120.476a1.83 1.83 0 0 1 1.827 1.823v36.612c-.047 12.432-10.027 22.543-22.457 22.752l-32.435.173z" fill="#6c63ff"/><path d="M230.271 234.48H121.411a4.44 4.44 0 0 1-4.164-2.936l-12.321-34.566c-.482-1.353-.277-2.855.55-4.03s2.172-1.874 3.608-1.877l136.072-.189c1.309-.001 2.552.578 3.394 1.581s1.195 2.328.966 3.617l.105.044-.391.912-.004.009-14.895 34.755a4.41 4.41 0 0 1-4.06 2.68zm14.892-41.598l-136.075.189c-.787.001-1.524.385-1.977 1.028s-.565 1.466-.301 2.207l12.321 34.565c.347.963 1.259 1.605 2.282 1.608h108.858c.968.001 1.842-.577 2.222-1.467l14.896-34.756.732.314-.732-.314a2.42 2.42 0 0 0-2.226-3.375z" fill="#3f3d56"/><g fill="#fff"><circle cx="176.983" cy="233.48" r="8.524"/><circle cx="498.983" cy="159.48" r="8.524"/></g><path d="M821.379 283.12l-22.77-22.48a11.88 11.88 0 0 0-8.43-3.46h-.08c-3.182.009-6.229 1.291-8.46 3.56-10.581 10.708-10.798 27.868-.49 38.84.24.26.49.51.74.76a27.25 27.25 0 0 0 4.56 3.65 27.68 27.68 0 0 0 15.11 4.43h.17c7.43-.025 14.541-3.021 19.75-8.32 4.652-4.72 4.608-12.315-.1-16.98zm-1.32 15.57c-8.714 8.779-22.396 10.232-32.76 3.48a26.81 26.81 0 0 1-4.01-3.25c-10.217-10.09-10.32-26.553-.23-36.77a9.91 9.91 0 0 1 7.06-2.97h.06a9.91 9.91 0 0 1 7.02 2.88l22.77 22.49a10.01 10.01 0 0 1 .09 14.14zm-73.39-89.35l-22.77-22.49c-2.241-2.224-5.273-3.468-8.43-3.46h-.07a11.95 11.95 0 0 0-8.47 3.57 28.08 28.08 0 0 0-4.72 33l.01.01a27.56 27.56 0 0 0 4.33 5.93l.63.66c5.229 5.19 12.302 8.096 19.67 8.08h.18c7.431-.031 14.541-3.03 19.75-8.33a12 12 0 0 0-.11-16.97zm-1.32 15.57a25.86 25.86 0 0 1-18.33 7.73h-.17a26 26 0 0 1-18.49-44.27 10.01 10.01 0 0 1 14.14-.09l22.77 22.48a10.02 10.02 0 0 1 .08 14.15z" fill="#3f3d56"/><path d="M822.834 290.188l-25.103-24.794a8.73 8.73 0 0 0-12.327.077 22 22 0 1 0 31.305 30.919zm-74.705-73.784l-25.103-24.794a8.73 8.73 0 0 0-12.327.077 22 22 0 1 0 31.305 30.919z" fill="#6c63ff"/><path d="M795.249 305.63l-.6 1.58q-4.23-1.605-8.2-3.22c-46.88-19.13-69.26-41.52-84.23-84.02l-.01-.01q-1.065-3-2.07-6.14l1.58-.51a25.54 25.54 0 0 0 2.3 5.78q1.23 3.495 2.53 6.81c14.07 35.87 34.82 56.37 74.6 73.68q3 1.305 6.15 2.59c2.438 1.589 5.126 2.758 7.95 3.46zm-73.173-71.387l1.406-1.423 51.938 51.298-1.406 1.423z" fill="#3f3d56"/><path d="M283.765 190.315l.027-32.863-19.318 1.726 6.818 20.726-24.747 37.514c-4.314.968-7.076 5.191-6.234 9.531s4.982 7.224 9.345 6.509 7.366-4.769 6.779-9.151z" fill="#ffb6b6"/></svg>