<svg xmlns="http://www.w3.org/2000/svg" width="214" height="212" fill="none" xmlns:v="https://vecta.io/nano"><g fill-rule="evenodd" fill="#2a396f"><path d="M8.369 71.051C2.92 71.952-.766 77.1.136 82.549l19.955 120.594a10 10 0 0 0 11.498 8.233l125.457-20.76a10 10 0 0 0 8.233-11.498L145.324 58.524a10 10 0 0 0-11.498-8.233L8.369 71.051zM21.396 85.26a8 8 0 0 0-6.587 9.199l15.061 91.016a2 2 0 0 0 2.3 1.647l116.36-19.255a2 2 0 0 0 1.647-2.299l-15.061-91.017c-.722-4.359-4.84-7.308-9.199-6.587L21.396 85.26z"/><path d="M68.243 8.364c.905-5.448 6.055-9.132 11.503-8.227l125.445 20.83c5.448.905 9.131 6.055 8.227 11.503l-20.023 120.583a10 10 0 0 1-11.503 8.226l-30.104-4.998-3.611-24.76 32.995 5.478a2 2 0 0 0 2.3-1.645l15.112-91.009a8 8 0 0 0-6.582-9.202L87.491 17.789a8 8 0 0 0-9.202 6.581l-6.958 41.903-13.019 1.899 9.931-59.808z"/></g><ellipse cx="60.003" cy="104.658" rx="15.5" ry="15" fill="#2a396f"/><path d="M33.503 147.658l8.5-11.5 33.5 21 34.5-44 25 21 3.5 27.5-100.03 14.796-4.97-28.796z" fill="#2a396f"/></svg>