<svg xmlns="http://www.w3.org/2000/svg" xmlns:xlink="http://www.w3.org/1999/xlink" width="82" height="79" fill="none" xmlns:v="https://vecta.io/nano"><style><![CDATA[.B{fill:#727cdb}.C{fill:#fff}.D{opacity:.4}.E{fill:#5d3423}.F{fill:#180c30}.G{fill:#c6b9e5}.H{fill:#c0cbd2}.I{fill:#d3cae7}]]></style><g clip-path="url(#c)"><g fill="#c7e4f9"><path d="M29.007 9.448c.432-.004.86.088 1.254.268a2.95 2.95 0 0 1 1.022.774 3.23 3.23 0 0 1 2.774-.936 3.23 3.23 0 0 1 2.392 1.687 2.56 2.56 0 0 1 .645-.082 2.53 2.53 0 0 1 1.535.517c.268-.413.658-.732 1.117-.913a2.36 2.36 0 0 1 1.439-.094c.478.119.907.385 1.226.759a2.36 2.36 0 0 1 .556 1.33.77.77 0 0 0 .006.1.73.73 0 0 1-.733.764H26.851a.73.73 0 0 1-.715-.568c-.058-.258-.081-.522-.068-.786a2.97 2.97 0 0 1 .91-1.992c.546-.524 1.272-.82 2.029-.828h0zM48.938 0a3.68 3.68 0 0 1 1.563.335 3.69 3.69 0 0 1 1.274.965 4.03 4.03 0 0 1 5.207-.474 4.02 4.02 0 0 1 1.239 1.412 3.16 3.16 0 0 1 1.418-.04c.469.094.912.294 1.293.584a2.95 2.95 0 0 1 1.394-1.131c.571-.223 1.197-.264 1.792-.115a2.95 2.95 0 0 1 2.225 2.597c0 .041.007.083.009.123a.91.91 0 0 1-.058.362c-.044.116-.11.221-.196.31a.92.92 0 0 1-.302.208c-.113.048-.236.073-.36.072H46.248a.91.91 0 0 1-.893-.709 3.69 3.69 0 0 1 .007-1.633 3.7 3.7 0 0 1 .71-1.471A3.69 3.69 0 0 1 47.347.374 3.7 3.7 0 0 1 48.938 0h0z"/></g><path d="M70.366 56.514c2.149-2.524 4.519-6.39 6.543-10.917 3.875-8.668 3.175-17.196 2.562-17.435-.55-.215-7.598 5.287-11.474 13.958-2.024 4.528-3.303 8.818-3.713 12.025l6.082 2.37z" fill="url(#A)"/><path d="M67.521 55.401l4.747-10.376c3.519-7.87 6.124-14.345 6.083-14.361s-3.138 6.27-6.658 14.138L67.129 55.25l.392.151z" fill="#007ac3"/><path d="M61.902 25.659h-6.141v3.693h6.141v-3.693z" class="H"/><g class="B"><path d="M61.902 25.659h-6.141v3.693h6.141v-3.693z"/><path d="M61.902 25.659h-6.141l1.416-2.173h3.31l1.415 2.173z"/><path d="M60.486 21.35h-3.309v2.135h3.309V21.35z"/><path d="M58.938 13.553h-.215s.157 7.374-1.547 7.797h3.308c-1.702-.423-1.546-7.797-1.546-7.797zm3.146 18.5h-6.503v23.931h6.503V32.053z"/></g><g fill="#646ec2"><use xlink:href="#f"/><path d="M60.755 25.659h-.404v30.325h.404V25.659zm-1.147 0h-.404v30.325h.404V25.659zm-1.148 0h-.404v30.325h.404V25.659zm-1.147 0h-.404v30.325h.404V25.659zm-1.148 0h-.404v30.325h.404V25.659z"/></g><g style="mix-blend-mode:multiply" opacity=".87" class="H"><path d="M61.902 27.577h-6.141v1.775h6.141v-1.775z"/></g><g style="mix-blend-mode:multiply" opacity=".87" class="H"><path d="M62.084 32.053h-6.503v4.262h6.503v-4.262z"/></g><path d="M62.961 27.878h-8.257v7.716h8.257v-7.716z" class="B"/><path d="M62.188 28.599h-6.712v6.272h6.712v-6.272z" fill="#646ec2"/><path d="M61.261 31.588c0-1.41-1.087-2.553-2.429-2.553s-2.428 1.143-2.428 2.553 1.087 2.554 2.428 2.554 2.429-1.143 2.429-2.554z" class="B"/><g class="C"><path d="M59.957 32.874l-1.279-1.319c-.022-.024-.035-.055-.035-.087s.012-.064.035-.088c.011-.011.024-.02.038-.027s.03-.009.045-.009.031.003.045.009.027.015.038.027l1.281 1.317c.022.024.034.055.034.087s-.012.064-.034.088h0c-.011.012-.024.021-.038.028s-.03.01-.046.01-.032-.003-.046-.01-.028-.016-.038-.027h0z"/><path d="M57.835 32.266l.833-.894c.011-.011.024-.02.038-.026s.03-.009.045-.009.031.003.045.009.027.015.038.026h0c.022.024.034.055.034.087s-.012.064-.034.088l-.833.894c-.01.012-.023.022-.037.029s-.03.01-.046.01-.031-.003-.046-.01-.027-.017-.037-.029h0c-.023-.023-.035-.055-.036-.087s.012-.064.035-.088h0z"/></g><path d="M41.987 56.163V29.672l11.403-.283 2.077 6.342 4.883 5.197c.126.093 3.605.989 3.605.989l2.054 6.12 3.312 1.46.215 6.663-27.549.003z" fill="#ffe9cb"/><g fill="#d1b07e"><path d="M44.808 40.119c-.547 0-.989.498-.989 1.112v2.544h1.98v-2.546c.003-.612-.439-1.11-.99-1.11zm3.982 0c-.548 0-.99.498-.99 1.112v2.544h1.98v-2.546c0-.612-.443-1.11-.989-1.11z"/><use xlink:href="#g"/><path d="M43.161 32.546h-.228v6.072h.228v-6.072zm3.38 0h-.228v6.072h.228v-6.072zm.37 0h-.228v6.072h.228v-6.072zm3.38 0h-.228v6.072h.228v-6.072zm.369 0h-.228v6.072h.228v-6.072zm3.38 0h-.228v6.072h.228v-6.072zm.37 0h-.228v6.072h.228v-6.072zm-1.643 7.573c-.547 0-.99.498-.99 1.112v2.544h1.981v-2.546c0-.612-.444-1.11-.991-1.11zm3.977 0c-.547 0-.991.498-.991 1.112v2.544h1.981v-2.546c0-.612-.444-1.11-.991-1.11zm4.968 1.208l-1.345-.39-.016-.009a10.78 10.78 0 0 1-.391-.401 1.18 1.18 0 0 0-.229.702v2.543h1.981v-2.446zm-16.904 4.396c-.547 0-.989.498-.989 1.112v2.543h1.98v-2.543c.003-.614-.439-1.112-.99-1.112zm3.982 0c-.548 0-.99.498-.99 1.112v2.543h1.98v-2.543c0-.614-.443-1.112-.989-1.112zm3.977 0c-.547 0-.99.498-.99 1.112v2.543h1.981v-2.543c0-.614-.444-1.112-.991-1.112zm3.977 0c-.547 0-.991.498-.991 1.112v2.543h1.981v-2.543c0-.614-.444-1.112-.991-1.112zm3.978 0c-.547 0-.991.498-.991 1.112v2.543h1.981v-2.543c0-.614-.444-1.112-.991-1.112zm5.036 1.502l-.402-1.288a.91.91 0 0 0-.589-.215c-.547 0-.99.498-.99 1.112v2.544h1.98v-2.153zm-20.95 4.032c-.547 0-.989.498-.989 1.112v2.544h1.98v-2.544c.003-.618-.439-1.112-.99-1.112zm-2.821-6.081h23.127l-.235-.73H41.994l-.008.73zm17.468-6.094H41.987v.73H59.8l-.345-.73zM41.988 50.733H69.36l-.023-.73H41.988v.73z"/></g><g style="mix-blend-mode:multiply" opacity=".58"><path d="M45.882 29.575l-3.897.097v26.491H69.53c-20.747 0-23.803-16.287-23.648-26.587z" fill="#f7be76"/></g><g fill="#ffe9cb"><path d="M39.815 21.546l-8.047-2.051-1.883 8.168 8.047 2.051 1.883-8.168z"/><path d="M34.304 56.07l6.379-27.668c.055-.225.021-.462-.095-.663s-.306-.348-.529-.411l-11.023-2.81c-.11-.026-.225-.029-.337-.01s-.219.061-.314.122-.178.141-.242.235-.109.199-.131.31L20.889 56.07h13.415z"/></g><g fill="#d1b07e"><path d="M29.701 25.654a.71.71 0 0 0-.859.549l-.381 1.656 1.377.352.382-1.657a.75.75 0 0 0-.079-.554c-.097-.168-.254-.291-.44-.346h0zm2.249.574a.71.71 0 0 0-.283-.01c-.094.016-.184.05-.264.101s-.149.118-.203.197a.71.71 0 0 0-.11.261l-.383 1.656 1.378.351.381-1.656a.75.75 0 0 0-.518-.9h0zm2.25.573a.71.71 0 0 0-.546.092c-.08.051-.149.118-.203.197a.71.71 0 0 0-.11.26l-.381 1.656 1.379.351.385-1.656a.75.75 0 0 0-.522-.9h0zm2.249.578a.71.71 0 0 0-.283-.01c-.094.016-.184.05-.264.101s-.149.118-.203.197a.71.71 0 0 0-.11.261l-.381 1.656 1.377.351.381-1.656a.75.75 0 0 0-.518-.9h0zm-3.435-5.762a.71.71 0 0 0-.86.549l-.383 1.656 1.378.351.381-1.656a.75.75 0 0 0-.518-.9h0zm2.248.574a.71.71 0 0 0-.283-.01c-.094.016-.184.05-.264.101s-.149.118-.203.197a.71.71 0 0 0-.11.261l-.381 1.656 1.378.351.384-1.656a.75.75 0 0 0-.521-.9h0zm2.25.571a.71.71 0 0 0-.283-.01.7.7 0 0 0-.264.102.72.72 0 0 0-.203.197.71.71 0 0 0-.11.261l-.381 1.656 1.377.351.391-1.653a.75.75 0 0 0-.527-.902h0zm1.186 5.186a.71.71 0 0 0-.283-.01c-.094.016-.184.05-.264.101s-.149.118-.203.197a.71.71 0 0 0-.11.261l-.381 1.656 1.378.351.386-1.656a.75.75 0 0 0-.523-.9zm-9.993 2.027a.71.71 0 0 0-.86.549l-.381 1.657 1.381.352.385-1.658a.75.75 0 0 0-.524-.9h0zm2.249.573a.71.71 0 0 0-.859.549l-.381 1.657 1.378.351.381-1.657a.75.75 0 0 0-.519-.9zm2.251.573a.71.71 0 0 0-.859.549l-.381 1.656 1.377.352.382-1.657a.75.75 0 0 0-.079-.554c-.097-.167-.254-.291-.44-.346h0zm2.248.574a.71.71 0 0 0-.86.549l-.381 1.656 1.381.351.381-1.656a.75.75 0 0 0-.521-.9h0zm2.249.573a.71.71 0 0 0-.547.091c-.08.051-.149.118-.203.197a.71.71 0 0 0-.11.261l-.381 1.656 1.379.351.381-1.656a.75.75 0 0 0-.519-.9h0zm-9.993 2.027a.71.71 0 0 0-.86.55l-.379 1.66 1.378.351.381-1.656a.75.75 0 0 0-.521-.905h0zm2.249.573a.71.71 0 0 0-.859.549l-.381 1.657 1.378.351.381-1.656a.75.75 0 0 0-.519-.9zm2.25.574a.71.71 0 0 0-.859.548l-.381 1.657 1.378.351.383-1.657a.75.75 0 0 0-.52-.9h0zm2.248.573a.71.71 0 0 0-.86.549l-.378 1.659 1.383.349.381-1.657a.75.75 0 0 0-.526-.9h0zm2.25.574a.71.71 0 0 0-.749.288c-.054.078-.091.167-.11.26l-.381 1.656 1.378.351.381-1.656a.75.75 0 0 0-.519-.9h0zm-9.994 2.028a.71.71 0 0 0-.283-.011c-.094.015-.184.05-.264.101s-.149.118-.203.197a.69.69 0 0 0-.109.261l-.383 1.655 1.378.351.381-1.656a.75.75 0 0 0-.518-.9h0zm2.25.572a.71.71 0 0 0-.75.29c-.054.078-.091.167-.11.26l-.377 1.656 1.378.351.381-1.656a.75.75 0 0 0-.523-.901h0zm2.25.573a.71.71 0 0 0-.547.093c-.08.051-.149.118-.203.197a.71.71 0 0 0-.11.26l-.381 1.656 1.377.351.383-1.656a.75.75 0 0 0-.519-.901h0zm2.249.574a.71.71 0 0 0-.283-.01.7.7 0 0 0-.264.102.72.72 0 0 0-.203.197.71.71 0 0 0-.11.26l-.383 1.657 1.378.351.381-1.656a.75.75 0 0 0-.518-.901h0zm2.249.571a.71.71 0 0 0-.859.548l-.381 1.657 1.378.351.381-1.657a.75.75 0 0 0-.519-.9zm-9.994 2.03a.71.71 0 0 0-.283-.011c-.094.015-.184.05-.264.101s-.149.118-.203.197a.69.69 0 0 0-.109.261l-.383 1.656 1.378.351.381-1.656a.75.75 0 0 0-.518-.9h0zm2.25.573a.71.71 0 0 0-.283-.01c-.094.016-.184.05-.264.101a.71.71 0 0 0-.313.458l-.381 1.656 1.378.351.381-1.656a.75.75 0 0 0-.519-.9h0zm2.25.574a.71.71 0 0 0-.75.288.71.71 0 0 0-.11.261l-.381 1.656 1.377.351.381-1.652a.75.75 0 0 0-.518-.903h0zm2.249.572a.71.71 0 0 0-.283-.01.7.7 0 0 0-.264.102.71.71 0 0 0-.313.458l-.383 1.656 1.378.351.389-1.656a.75.75 0 0 0-.525-.901h0zm2.249.573a.71.71 0 0 0-.749.289c-.054.078-.091.167-.11.26l-.381 1.657 1.378.351.381-1.656a.75.75 0 0 0-.519-.901zm-9.997 2.029a.71.71 0 0 0-.547.091c-.08.051-.149.118-.203.197a.71.71 0 0 0-.11.261l-.383 1.656 1.386.356.381-1.656a.75.75 0 0 0-.525-.905zm2.256.573a.71.71 0 0 0-.547.091c-.08.051-.149.118-.203.197a.71.71 0 0 0-.11.261l-.381 1.653 1.378.351.381-1.656a.75.75 0 0 0-.519-.898zm2.247.573a.71.71 0 0 0-.283-.01.7.7 0 0 0-.264.102.72.72 0 0 0-.203.197.71.71 0 0 0-.11.261l-.381 1.656 1.377.351.383-1.656a.75.75 0 0 0-.519-.9h0zm2.249.574a.71.71 0 0 0-.283-.011c-.094.015-.184.05-.264.101s-.149.118-.203.197a.69.69 0 0 0-.109.261l-.383 1.656 1.383.354.381-1.656a.75.75 0 0 0-.522-.903h0zm2.249.572a.71.71 0 0 0-.86.55l-.378 1.651 1.378.351.381-1.656a.75.75 0 0 0-.522-.897h0zm-9.993 2.028a.71.71 0 0 0-.547.091c-.08.051-.149.118-.203.197a.71.71 0 0 0-.11.261l-.382 1.656 1.378.352.381-1.657a.75.75 0 0 0-.518-.9h0zm2.249.573a.71.71 0 0 0-.283-.01.7.7 0 0 0-.264.102.72.72 0 0 0-.203.197.71.71 0 0 0-.11.26l-.381 1.656 1.381.351.381-1.656a.75.75 0 0 0-.521-.9h0zm2.25.574a.71.71 0 0 0-.75.289c-.054.078-.091.167-.11.26l-.381 1.656 1.377.351.381-1.656a.75.75 0 0 0-.518-.9h0zm2.249.573c-.093-.023-.189-.026-.283-.01s-.184.05-.264.101-.149.118-.203.197a.69.69 0 0 0-.109.261l-.383 1.656 1.378.351.381-1.656a.75.75 0 0 0-.518-.9h0zm2.472 2.772l.3-1.299a.75.75 0 0 0-.522-.9.71.71 0 0 0-.283-.01.7.7 0 0 0-.264.102.72.72 0 0 0-.203.197.71.71 0 0 0-.11.261l-.377 1.65h1.459zm-9.908 0a.68.68 0 0 0-.95 0h.95zm17.107-23.829l-13.273-3.382-.046-.774 13.697 3.491-.378.666zm.899-3.9L27.77 24.958l-.046-.774 13.697 3.491-.378.667zm-.983-6.351l-8.65-2.204-.046-.774 9.074 2.313-.378.666zm-.919 14.606l-13.273-3.382-.047-.774 13.698 3.491-.378.666zm-1.005 4.355l-13.273-3.383-.046-.774 13.698 3.49-.379.667zm-1.003 4.354L23.86 41.922l-.046-.774 13.697 3.491-.378.666zm-1.004 4.354l-13.273-3.383-.046-.774 13.697 3.492-.378.666zm-1.003 4.354l-13.274-3.382-.046-.774 13.698 3.49-.378.666zM25.104 56.07h2.991l-7.293-1.859.046.774 4.256 1.084z"/></g><path d="M19.432 26.089c1.348 0 2.44-1.114 2.44-2.488s-1.092-2.488-2.44-2.488-2.44 1.114-2.44 2.488 1.092 2.488 2.44 2.488z" fill="url(#B)"/><path d="M19.086 21.801l.294-2.373c.025.041.486 2.453.384 2.453s-.678-.081-.678-.081z" fill="url(#C)"/><path d="M20.171 22.018l1.719-1.567c-.009.044-1.19 2.172-1.266 2.101s-.453-.535-.453-.535z" fill="url(#D)"/><path d="M20.934 22.355l2.256-.316c-.03.037-2.126 1.128-2.154 1.025s-.102-.71-.102-.71z" fill="url(#E)"/><path d="M21.215 23.231l2.181.685c-.042.02-2.381.107-2.364.006s.183-.691.183-.691z" fill="url(#F)"/><path d="M18.819 22.018L17.1 20.451c.009.044 1.191 2.172 1.266 2.101s.453-.535.453-.535z" fill="url(#G)"/><path d="M18.056 22.355l-2.256-.316c.031.037 2.127 1.128 2.149 1.025s.107-.71.107-.71z" fill="url(#H)"/><path d="M17.775 23.231l-2.181.685c.042.02 2.381.107 2.364.006s-.183-.691-.183-.691z" fill="url(#I)"/><path d="M20.582 25.067h-2.458v4.762h2.458v-4.762z" fill="url(#J)"/><path style="mix-blend-mode:multiply" opacity=".35" d="M18.124 26.454a1.75 1.75 0 0 0 1.309.595h0a1.74 1.74 0 0 0 1.15-.436v-1.546h-2.458v1.387z" fill="url(#K)"/><path d="M22.724 28.544c.062.069.956 3.033 1.362 3.561s2.587.203 2.432 3.436-1.216 6.716-2.298 2.84c-1.274-1.986-1.621-1.621-1.815-2.596l-.676-2.899.25-2.439.744-1.902z" fill="url(#L)"/><path d="M25.715 31.43c.046-.016-2.374 4.425-2.374 4.425l-.571 1.864 2.2.973 3.457-5.812-2.713-1.449z" fill="url(#M)"/><path style="mix-blend-mode:multiply" d="M24.971 38.691l3.457-5.812-.445-.238-3.403 5.878.39.172z" fill="url(#N)" class="D"/><path d="M15.233 37.584c.085.123-.516 2.551-.322 4.033s.274 4.65.078 5.926c-.314.947.117 3.457.234 4.939.107 1.365-1.046 3.202-1.289 3.577h10.645c-.464-.859-.354-4.277-.354-4.277s.274-.453.274-.7l.157-4.691.313-.206-.978-10.082-1.136-7.367s-2.149-.537-3.092-.537-2.19-2.215-2.699-2.507c0 1.646-1.826 7.49-1.826 7.49s-1.074 2.634-1.034 3.58.942.7 1.028.824z" fill="url(#O)"/><path d="M16.188 34.25c-.207-.093-1.804-2.147-1.833-2.424a30.66 30.66 0 0 1 0-2.331c.03-.28-.473-.87-.295-1.212s-1.094-1.807-.828-2.739 2.364-3.356 3.104-2.269.389 2.096.729 2.416 1.488 3.044 1.488 3.044l-.295 3.242-2.069 2.273z" fill="url(#P)"/><path style="mix-blend-mode:multiply" d="M14.352 29.419c.015.067 1.187-1.248 1.447-1.966-.83 1.011-1.719.727-1.719.727s1.329-1.18 1.44-2.089c-.417 1.062-1.037 1.489-1.584 1.681.107.232.173.413.124.508-.162.313.245.833.292 1.139z" fill="url(#Q)" class="D"/><path d="M14.553 25.751c-.313-1.524-1.091-5.583-.996-7.977.444-.653.916-.87 1.124-.901s1.003 5.731 1.261 7.056a.82.82 0 0 1-.013.379c-.172.615-.552 1.192-.849 1.575-.035.046-.083.08-.138.099s-.113.022-.169.008-.107-.044-.146-.087-.065-.095-.075-.152h0z" fill="url(#R)"/><path d="M14.973 16.471c-.03-1.046-.522-1.879-1.1-1.861s-1.023.88-.993 1.924.523 1.879 1.101 1.861 1.022-.879.992-1.924z" fill="url(#S)"/><path d="M14.31 14.806h-.959l-.212-.951h1.383l-.212.951z" fill="url(#T)"/><path d="M14.679 10.188c-.03.383-.322.606-.671.768a.61.61 0 0 1 .025-.26c.027-.084.072-.161.131-.226a3.67 3.67 0 0 0-1.026.578.92.92 0 0 0-.259.382c-.059.032-.108.078-.145.135s-.057.121-.062.188c-.008.315.11.62.327.848a1.19 1.19 0 0 0 .831.369 1.19 1.19 0 0 0 .83-.369c.217-.228.335-.533.327-.848-.025-.534-.129-1.06-.308-1.563z" fill="url(#U)"/><path style="mix-blend-mode:multiply" opacity=".35" d="M13.831 12.214c-.224-.003-.443-.071-.629-.196s-.332-.302-.419-.508a.34.34 0 0 0-.107.246c-.008.315.11.62.327.848a1.19 1.19 0 0 0 .831.369 1.19 1.19 0 0 0 .83-.369c.217-.228.335-.533.327-.848-.002-.154-.014-.308-.037-.461a1.17 1.17 0 0 1-1.123.919h0z" fill="url(#V)"/><path d="M15.371 12.543h-2.933c-.101 0-.184.082-.184.184v1.001c0 .101.082.184.184.184h2.933c.101 0 .184-.082.184-.184v-1.001c0-.101-.082-.184-.184-.184z" fill="url(#W)"/><path d="M19.432 26.684c-.993 0-1.797-.847-1.797-1.891v-1.597a1.06 1.06 0 0 1 .292-.759c.194-.204.462-.323.743-.33h1.524c.282.007.549.126.743.33s.299.477.292.759v1.597c0 1.044-.805 1.891-1.798 1.891z" fill="url(#X)"/><g style="mix-blend-mode:multiply" class="D"><path style="mix-blend-mode:multiply" d="M19.56 31.43c-1.782 2.234-4.15 1.933-4.15 1.933s.889-.22 1.944-1.597c-.935.825-1.934.813-2.286 1.151l.183.239-.007.021-.653 1.806c1.775-.474 4.351-1.967 4.97-3.554z" fill="url(#Y)" class="D"/></g><path style="mix-blend-mode:multiply" d="M17.351 52.032c.331-.644 3.354-2.41 3.354-2.41s-2.566.574-4.057 2.437a6.95 6.95 0 0 1-1.531 1.451l-.12.409c.956-.612 2.132-1.45 2.354-1.886z" fill="url(#Z)" class="D"/><path d="M35.603 55.045c0-2.977 2.295-5.39 5.126-5.39s5.126 2.413 5.126 5.39l-.013 1.053h3.108l-3.962-8.912H36.47l-3.962 8.912h3.107l-.012-1.053z" class="B"/><g style="mix-blend-mode:multiply" opacity=".46" class="B"><path d="M45.333 47.963l-.346-.779H36.47l-.347.779h9.211z"/></g><g class="B"><path d="M45.469 45.825h-9.481v1.56h9.481v-1.56z"/><path d="M39.493 40.43h2.47l1.04 5.598h1.589l-1.81-6.991h-4.106l-1.811 6.991h1.59l1.039-5.598z"/></g><g style="mix-blend-mode:multiply" opacity=".46" class="B"><path d="M42.897 39.483l-.115-.446h-4.106l-.116.446h4.337z"/></g><g class="B"><path d="M40.607 26.88h.242l1.011 11.57h.892L41.57 16.669h-1.682L38.705 38.45h.893l1.01-11.57zm.325-16.397h-.406v4.134h.406v-4.134z"/><path d="M43.281 38.45h-5.107v.689h5.107v-.689zM41.61 16.669h-1.763l-.376-.943h2.515l-.376.943zm-1.763-2.341h1.763l.376.943h-2.515l.376-.943z"/></g><path d="M48.461 56.294l3.504-2.723c1.045-.834 2.084-1.751 3.251-2.341 1.927-.966 3.457-.711 5.012-.729a2.5 2.5 0 0 0 1.371-.361c.296-.199.56-.441.783-.719.812-.946 1.438-1.943 2.477-2.813 1.366-1.145 3.276-1.792 4.19-1.421.897.363.799 1.485.603 2.551s-.439 2.224.249 2.77c.601.477 1.844.382 3.148-.047.934-.307 1.934-.779 2.779-.893 1.67-.224 2.052 1.047 1.665 2.42-.291 1.031-.893 2.147-1.289 3.212-.137.399-.347.769-.62 1.092l-27.124.001z" fill="#ffd130"/><path d="M55.894 50.934a12.98 12.98 0 0 0 1.652 1.489 10.46 10.46 0 0 0 2.078 1.249c-.192-.883-.191-1.869-.356-2.767l-.092-.417.287.006.059.266c.183.994.158 2.099.43 3.048 1.314.537 2.852.849 4.715.843l1.028-3.038c-1.391-.135-2.099-.972-2.7-1.79a4.67 4.67 0 0 1-.407-.65l.205-.252c.12.255.264.497.43.725.571.778 1.238 1.593 2.531 1.751l.215-.691.371-1.302c.001-.008.004-.017.006-.025l1.154-4.161.237-.056-1.115 4.019a27.85 27.85 0 0 0 3.129-2.093l-.025.197a27.83 27.83 0 0 1-3.158 2.093l-.454 1.581-.722 2.219h.018c.225.013.979-.511 1.227-.67l1.177-.805 1.818-1.424.034-.029a1.08 1.08 0 0 0 .085.114l-.487.404-2.355 1.732c-.406.266-1.176.839-1.586.88l-.724 2.05c1.255-.291 2.492-.653 3.706-1.083.462-.859 1.182-1.718 1.925-2.59l.832-.928h.215l-.995 1.113c-.662.776-1.289 1.547-1.719 2.315l3.223-1.316 1.78-.867c.506-.847 1.088-1.647 1.74-2.388l.262-.062a15.84 15.84 0 0 0-1.705 2.298l3.454-1.904a1.18 1.18 0 0 1 .082.12l-4.65 2.508c1.031.598 2.672.517 4.48.127l-.077.193c-1.916.417-3.635.484-4.701-.178l-.695.33-1.438.626c1.391 1.015 3.457 1.444 5.977 1.242l-.076.198c-2.619.215-4.754-.228-6.182-1.302-.007-.005-.011-.013-.012-.021l-2.335.859c.59.945 1.826 1.314 3.185 1.572H69.77c-1.029-.266-1.898-.674-2.352-1.452-.003-.009-.003-.019 0-.028l-2.88.804-.249.675h-.215l.524-1.437a13.45 13.45 0 0 1-3.438-.388c-1.638.79-3.355 1.402-5.124 1.825h-.733c1.808-.411 3.682-.946 5.638-1.881a10.26 10.26 0 0 1-3.427-1.67c-1.903.436-3.651.623-5.229.582l.247-.2a21.03 21.03 0 0 0 4.788-.512c-.619-.465-1.194-.986-1.719-1.556l.292-.12z" class="C"/><path d="M67.924 56.294c-.356-.791-.843-1.528-1.234-2.308-.353-.707-.65-1.484-1.263-1.983-1.013-.825-2.476-.602-3.783-.618-.336 0-.713-.046-.929-.305a1.11 1.11 0 0 1-.204-.61c-.086-.801.019-1.647-.306-2.385a2.27 2.27 0 0 0-2.647-1.204c-.993.308-1.626 1.258-2.138 2.162s-1.047 1.885-1.978 2.347c-.813.405-1.806.322-2.639-.04-.594-.26-1.143-.66-1.786-.752-1.273-.19-2.408.888-2.955 2.052-.411.874-.617 1.825-.96 2.723-.143.373-.2.666-.172.925l22.995-.005z" fill="url(#a)"/><path opacity=".77" d="M65.045 51.751l-2.351 1.263c-.829.408-1.683.761-2.558 1.059l2.066-2.345.344-.353H62.3l-.22.226-2.303 2.583c-1.465.471-2.995.712-4.535.715l1.067-2.577c1.265-.114 2.398-.824 3.429-1.517l.752-.551-.013-.215-.828.615c-.98.659-2.065 1.35-3.262 1.484l.259-.586.516-1.104c.004-.006.007-.013.01-.02l1.676-3.528-.166-.047-1.611 3.407c-.52-.526-.964-1.123-1.317-1.774l-.107.166a7.91 7.91 0 0 0 1.342 1.773l-.624 1.341-.803 1.881c-.213.011-.518-.43-.626-.568a7.17 7.17 0 0 1-.483-.683 9.16 9.16 0 0 1-.634-1.207c0-.009-.008-.017-.011-.025l-.145.097.156.341a8.26 8.26 0 0 0 .893 1.469c.174.225.462.711.782.752l-.694 1.737a14.91 14.91 0 0 1-2.451-.918c.156-.727.101-1.461.02-2.196l-.113-.786h-.177c.06.311.101.626.133.945.067.657.107 1.311-.024 1.962a14.3 14.3 0 0 1-1.89-1.115l-.956-.736c.111-.669.127-1.351.048-2.025l-.183-.053a7.01 7.01 0 0 1-.02 1.949l-1.719-1.611-.145.101c.732.761 1.515 1.471 2.342 2.127-1.255.507-2.596.438-3.878.107l-.057.163c1.358.353 2.772.411 4.098-.15l.379.279.82.53c-1.825.861-3.846 1.225-5.857 1.053l-.061.167a11.64 11.64 0 0 0 6.07-1.104c.009-.005.017-.011.024-.018.463.27.94.514 1.429.732-1.102.8-2.383 1.113-3.702 1.331h.938c1.043-.227 2.041-.571 2.919-1.23.009-.006.016-.014.021-.024.627.27 1.271.498 1.928.682l-.215.572h.185l.473-1.218a14.57 14.57 0 0 0 3.164-.329c.949.736 2.041 1.197 3.179 1.546h.621c-1.269-.349-2.516-.802-3.579-1.594 1.371-.325 2.702-.799 3.969-1.415l.01.005c1.32.36 2.685.525 4.053.489l-.083-.171c-1.26.025-2.517-.123-3.737-.439l2.445-1.319-.174-.101z" class="C"/></g><g clip-path="url(#d)"><path d="M41.301 53.876H21.717c0-.815.323-1.597.898-2.173a3.06 3.06 0 0 1 2.168-.9h14.843c.444 0 .87.177 1.184.491a1.68 1.68 0 0 1 .491 1.187v1.395z" class="E"/><path d="M22.367 51.986h18.859c-.009-.03-.02-.058-.031-.087H22.436l-.069.087z" fill="#feca48"/><g class="F"><path d="M62.38 77.872H51.086a.8.8 0 0 1-.739-.496.81.81 0 0 1-.061-.307v-6.811H63.18v6.811c0 .106-.021.21-.061.307s-.099.186-.173.261a.8.8 0 0 1-.566.235h0zM12.636 76.9l8.75.115 3.094-3.844-4.534-5.75-7.08-.346-1.324 3.593 1.094 6.231z"/></g><path d="M12.636 76.9H2.881c-.221 0-.434-.089-.59-.246a.84.84 0 0 1-.245-.592v-7.01l.354-3.522a31.64 31.64 0 0 1 2.36-9.214l.717-1.686c.095-.222.244-.416.435-.563a1.41 1.41 0 0 1 .654-.279l5.193-.776a23.99 23.99 0 0 1 3.5-.266l62.738-.19a2.45 2.45 0 0 1 1.636.621 2.46 2.46 0 0 1 .808 1.556l.468 4.064a34.59 34.59 0 0 1 .229 3.975v12.535a1.06 1.06 0 0 1-.286.724c-.184.196-.435.315-.703.332l-7.1.448-3.054.096h-8.571s.517-5.8-3.972-5.8-5.037 3.491-4.778 5.915H21.387s.604-5.972-4.289-5.972-4.49 5.218-4.461 5.853z" fill="#d5a490"/><path d="M11.268 57.93v10.883c0 .231-.058.458-.167.661a1.39 1.39 0 0 1-.46.502 5.5 5.5 0 0 1-2.162.828l-4.638.731.078-5.103c.049-3.167.644-6.302 1.758-9.267l4.742-.073c.111-.002.221.019.324.06a.84.84 0 0 1 .46.455.84.84 0 0 1 .065.324h0z" fill="#3b1562"/><path d="M6.491 55.219l-.213.604 4.786-.117a1.99 1.99 0 0 1 1.311.45 2 2 0 0 1 .702 1.197l1.04 5.828c.046.26.188.493.397.654a1.05 1.05 0 0 0 .733.214l7.349-.642 3.16-.138h53.221v-.317c.002-3.059-.364-6.106-1.088-9.077H15.491c-2.809 0-5.611.267-8.369.797a.83.83 0 0 0-.389.188c-.111.096-.194.22-.242.358z" fill="url(#b)"/><g class="G"><path d="M77.501 54.828H65.109v7.791h12.392v-7.791zm-13.946 0H51.163v7.791h12.392v-7.791zm-13.946 0H37.217v7.791h12.392v-7.791zm-13.945 0H23.272v7.791h12.392v-7.791zm-13.947 7.79h-6.951L14 56.857c-.034-.253-.014-.511.059-.756a1.79 1.79 0 0 1 .366-.664c.168-.193.375-.347.607-.452s.484-.16.739-.16h5.946v7.794z"/></g><g class="I"><path d="M77.501 54.828H65.109v1.069h12.392v-1.069zm-13.946 0H51.163v1.069h12.392v-1.069zm-13.946 0H37.217v1.069h12.392v-1.069zm-13.945 0H23.272v1.069h12.392v-1.069zm-13.947 0v1.07h-3.763a3.94 3.94 0 0 0-2.288.734 3.96 3.96 0 0 0-1.44 1.927l-.227-1.703a1.8 1.8 0 0 1 .06-.756 1.78 1.78 0 0 1 .366-.663 1.79 1.79 0 0 1 .607-.452c.232-.106.484-.16.739-.16l5.946.004z"/></g><g class="E"><path d="M78.97 76.432V63.268h-.085v13.17l.085-.005z"/><path d="M72.034 69.371l3.541-3.463h5.566v-.087H75.54l-3.541 3.463H11.107V76.9h.086v-7.53h60.84z"/><path d="M24.524 69.283h-.086v7.733h.086v-7.733zm13.125.015h-.086v7.718h.086v-7.718zm13.125.029h-.086v7.689h.086v-7.689zm13.126-.022h-.087v7.596h.087v-7.596zm7.481 7.575h.086v-7.551h-.086v7.551z"/></g><g class="F"><path d="M3.951 71.496h-.086V76.9h.086v-5.405z"/><path d="M3.907 73.455H2.043v.087h1.864v-.087z"/></g><path d="M13.33 75.331c0-.726.215-1.435.617-2.038s.974-1.073 1.643-1.351a3.65 3.65 0 0 1 2.114-.209c.71.142 1.362.491 1.874 1.004a3.67 3.67 0 0 1 1.002 1.878c.141.712.069 1.449-.208 2.12s-.746 1.243-1.348 1.646S17.713 79 16.99 79c-.971 0-1.902-.386-2.588-1.075s-1.072-1.621-1.072-2.594h0z" fill="#493769"/><path d="M19.482 75.786a2.54 2.54 0 0 0-2.04-2.952c-1.376-.25-2.695.665-2.944 2.045a2.54 2.54 0 0 0 2.04 2.952c1.377.25 2.695-.665 2.944-2.045z" class="G"/><path d="M16.99 75.756c-.469 0-.932-.111-1.349-.326s-.778-.526-1.051-.908a2.54 2.54 0 0 1 .923-1.252 2.53 2.53 0 0 1 2.956 0 2.54 2.54 0 0 1 .923 1.252c-.273.382-.634.694-1.051.908s-.88.326-1.349.326h0z" class="I"/><path d="M53.364 75.331c0-.726.215-1.435.617-2.038a3.66 3.66 0 0 1 1.642-1.351 3.65 3.65 0 0 1 2.114-.209c.71.142 1.362.491 1.874 1.004a3.67 3.67 0 0 1 1.002 1.878c.141.712.069 1.449-.208 2.12s-.746 1.243-1.348 1.646-1.309.618-2.033.618c-.971 0-1.901-.386-2.588-1.075s-1.072-1.621-1.072-2.594h0z" fill="#493769"/><path d="M58.814 77.126c.989-.992.989-2.599 0-3.591a2.53 2.53 0 0 0-3.582 0c-.989.992-.989 2.599 0 3.591a2.53 2.53 0 0 0 3.582 0z" class="G"/><path d="M57.024 75.756a2.95 2.95 0 0 1-1.35-.326c-.418-.215-.778-.526-1.052-.908a2.54 2.54 0 0 1 .923-1.251 2.53 2.53 0 0 1 2.955 0 2.54 2.54 0 0 1 .923 1.251c-.273.382-.634.693-1.051.908s-.88.327-1.349.326h0z" class="I"/><path d="M31.739 73.774h-1.36v.915h1.36v-.915z" class="F"/><path d="M31.583 73.395h-1.047v.379h1.047v-.379z" class="E"/><path d="M44.849 73.774h-1.36v.915h1.36v-.915z" class="F"/><path d="M44.691 73.395h-1.047v.379h1.047v-.379z" class="E"/><path d="M68.487 73.774h-1.36v.915h1.36v-.915z" class="F"/><path d="M68.33 73.395h-1.047v.379h1.047v-.379z" class="E"/><path d="M10.73 59.834v7.242H4.447l.075-1.778a18.98 18.98 0 0 1 1.048-5.464h5.16z" class="G"/><g fill="#635088"><path d="M5.785 55.665v1.5H4.414l-.716-.332H1.022v.491H.216v-1.659h5.57z"/><path d="M.834 62.345H0v-5.017h.808a.33.33 0 0 1 .233.096.33.33 0 0 1 .097.233v4.385c-.001.08-.033.157-.089.214s-.133.089-.214.089h0z"/></g><g clip-path="url(#e)" class="C"><path d="M40.065 55.562l.367 4.311c.031.468.187.609.655.648l6.348.605c.112.011.223.036.468.076l-.998.5-4.27 2.095c-.279.135-.399.268-.353.608.051.378.074.799-.038 1.155-.353 1.117-.171 2.239-.137 3.363l.002 1.107-.386-.199-3.394-2.015c-.333-.204-.598-.238-.969-.055l-5.364 2.558 2.355-5.168-4.249-3.601L34 61.197c.621-.054 1.249-.075 1.778-.472.224-.168.481-.315.651-.529l3.301-4.231.337-.401zm-3.715 9.253c-1.154-.663-1.758-.733-2.108-.29l.593.529-2.18 4.603 4.744-2.347c.271-.136.482-.144.742.022l1.502.872.072-.076-.374-.725-.491.205-.039-.091.415-.384-1.144-1.311-.814.423-.059-.104.682-.496c-.482-.287-.876-.606-1.325-.747-.178-.056-.48.285-.728.44-.014.009-.054-.023-.241-.108l.752-.413zm.465-4.465c2.747-.201 4.079.628 5.406 3.316l4.302-2.148-.034-.094-6.364-.593-.391-4.204-2.918 3.723zm.811.428l.146-.1.428.724c.062.106.106.266.199.306l1.591.635.112-.717.138.017.002.62c.004.146-.026.326.046.431l.996 1.336.171-.895.11.014v.785l.165.031c.033-.15.13-.321.09-.446-.655-1.994-2.655-3.356-5.107-2.839-.437.092-.732.692-.578 1.036l1.941-.137-.449-.801zm-4.468 2.857l1.26-2.105-3.435.293 2.176 1.811zm1.036-.934l-.081-.165 1.202-.544c.187-.094.513-.274.495-.348-.097-.406-.433-.147-.67-.16-.104-.006-.231.058-.315.128-.655.542-1.124 1.22-1.306 2.049-.036.164.235.414.399.593.045.05.214-.014.325-.025l-.008-.106-.546-.22c1.141-.175 1.141-.175 1.378-.656l-1.166.244-.034-.169 1.097-.262c.511-.106.742-.395.75-1.017l-1.519.658zm5.305 1.704l.777 1.674c1.062-1.122 1.017-2.334-.114-3.114l-.663 1.44zm1.027 3.562l-.208-.014-.197-1.22-.632.535c.142.29.355.539.374.802.047.603.312.367.557.185 1.16-.855 1.487-2.095.98-3.771l.05 1.062a5.13 5.13 0 0 1-.164 1.097c-.082.323-.243.629-.37.941l-.149-.053c.322-.754.584-1.517.454-2.348-.678.808-1.104 1.678-.696 2.784zm-2.678-4.817l1.454 1.005c.899-1.124.749-1.664-.606-2.109-.138-.045-.283-.071-.417-.104l-.432 1.208zm-.094.197l-1.013 1.257 1.324.931 1.203-1.089-1.514-1.099zm.274-1.423c-1.374-.329-1.934-.074-2.315.999l1.255.094c.735.088.745.094.958-.624.041-.142.063-.29.102-.469h.001zm.266 3.814l1.159 1.401c.202-.328.567-.651.525-.908-.088-.542-.389-1.049-.631-1.638l-1.053 1.145zm-3.414-1.827l1.456.524c.078.026.218.014.267-.038l.873-1.025c-1.338-.464-2.019-.306-2.596.54zm6.752 3.653l-1.229 1.078 1.313.746-.084-1.825v.001zm3.59-.55l1.021-2.3h.909l-.231 1.434 1.041-1.434h.909l-1.021 2.3h-.676l.312-.703.169-.358.223-.415h-.007l-1.074 1.476h-.522l.239-1.476h-.007l-.119.339-.144.358-.346.781h-.676zm3.062-.001l1.02-2.3h1.871l-.239.537h-1.12l-.146.329h.95l-.238.537h-.947l-.16.361h1.164l-.239.536h-1.917z"/><path d="M52.787 67.021h-.485l.071-.227a1.44 1.44 0 0 1-.364.203 1.24 1.24 0 0 1-.452.078c-.12.002-.239-.017-.352-.056-.097-.033-.184-.092-.251-.169a.54.54 0 0 1-.122-.284.99.99 0 0 1 .035-.394c.026-.095.059-.188.1-.278.079-.18.182-.35.305-.503s.259-.281.415-.393a1.89 1.89 0 0 1 .494-.256 1.67 1.67 0 0 1 .538-.089c.285 0 .493.073.624.219s.16.357.085.634h-.715c.031-.194-.055-.29-.257-.291a.58.58 0 0 0-.407.18c-.126.12-.235.285-.328.494a1.55 1.55 0 0 0-.075.207c-.034.128-.031.229.01.303s.131.112.271.112a.62.62 0 0 0 .272-.075.59.59 0 0 0 .23-.19h-.332l.223-.499h1.029l-.562 1.275zm.25-.008l1.844-2.3h.766l-.198 2.3H54.7l.046-.303h-.748l-.222.303h-.739zm1.913-1.606l-.6.824h.475l.125-.824zm7.773 2.154H61.46l-.155.349h1.263l.155-.349zm-4.695-.156a.37.37 0 0 1 .003-.187h-1.21a1.32 1.32 0 0 0-.051.15l-.009.039 1.267-.001zm4.919-.348h-1.263l-.155.349h1.263l.155-.349zm8.334.69l.057-.134.023-.052h-1.212l-.074.17-.075.179h1.209l.072-.163zm-2.19-.186h-1.262l-.155.349h1.262l.154-.349zm-10.111-.468c.094.047.13.114.106.204l-.004.016c-.005.006-.009.014-.011.022a.34.34 0 0 1-.042.071h1.204a2.19 2.19 0 0 0 .116-.226l.05-.122h-1.503l.084.037zm8.329.817l.03-.349h-3.442l-.279.349h1.201l.009-.013h1.258l-.002.013h1.225zm-1.745-1.01l.866-1.19-.18 1.19h1.146l.202-2.353h-1.285L64.427 66.9h1.137zm-5.434.661h-1.338a1.1 1.1 0 0 1-.37.057.53.53 0 0 1-.261-.057h-1.425a.86.86 0 0 0 .016.253.76.76 0 0 0 .028.096h3.025a1.95 1.95 0 0 0 .325-.348zm7.769-.156h1.262l.152-.343h.385c.225 0 .373.028.444.083s.085.139.058.261h1.227l.059-.178c.015-.056.025-.113.031-.171h-3.464l-.154.348zm-1.839.661l-.052.34h1.258l.029-.34H66.06zm.161-.973h-.797l.026-.037h-1.148l-.279.349h3.33l.03-.349h-1.156l-.006.037zm1.384.973l-.151.34h1.263l.151-.34h-1.263zm4.513-3.32c-.202-.132-.579-.198-1.132-.198h-1.82L68.122 66.9h3.391c-.006-.031-.018-.06-.036-.086-.057-.078-.169-.153-.336-.225a1.45 1.45 0 0 0 .635-.343 1.91 1.91 0 0 0 .53-.868c.076-.289.014-.499-.188-.632zM70.98 65.77c0 .004-.006.016-.015.038-.007.014-.013.028-.017.043-.051.124-.148.224-.27.279s-.288.086-.491.086h-.499l.339-.766h.589c.139 0 .242.026.308.08s.086.134.057.241h0zm-7.487 2.296l-.273.34h1.236l.248-.34h-1.212zm7.618.094l.033-.094h-1.205l-.075.233a.54.54 0 0 0-.013.07l-.01.038h1.279l.053-.118c-.064 0-.084-.043-.061-.129zm-9.876-.094l-.151.34h1.263l.151-.34h-1.263zm-3.508-1.444a1.26 1.26 0 0 0 .331.174l.339.105h2.044c.026-.113.019-.231-.018-.34a.61.61 0 0 0-.218-.284 1.32 1.32 0 0 0-.326-.171l-.452-.142c-.223-.061-.382-.115-.478-.163s-.132-.117-.108-.206l.011-.022c.069-.162.235-.235.503-.235.132 0 .231.023.297.07.075.054.096.141.062.262h1.199a1.38 1.38 0 0 0 .052-.495.72.72 0 0 0-.148-.386c-.085-.109-.212-.193-.38-.252s-.379-.088-.632-.088c-.499 0-.949.106-1.351.319s-.69.517-.863.912a1.42 1.42 0 0 0-.08.219.72.72 0 0 0-.004.434.61.61 0 0 0 .22.29h0z"/><path d="M61.753 66.9h1.263l.595-1.34h1.135l.448-1.013h-3.533l-.448 1.013h1.135l-.596 1.34zm-4.893 1.166a.8.8 0 0 0 .089.11 1.02 1.02 0 0 0 .405.244c.195.063.398.093.603.088a3.09 3.09 0 0 0 1.46-.338c.062-.031.121-.067.178-.105H56.86z"/></g></g><defs><linearGradient id="A" x1="64.284" y1="42.335" x2="79.952" y2="42.335" xlink:href="#h"><stop stop-color="#2e6fd1"/><stop offset="1" stop-color="#66b9ff"/></linearGradient><linearGradient id="B" x1="19.432" y1="45.807" x2="19.432" y2="13.806" xlink:href="#h"><stop stop-color="#34b099"/><stop offset="1" stop-color="#40abdb"/></linearGradient><linearGradient id="C" x1="453.626" y1="1066.34" x2="453.626" y2="334.967" xlink:href="#h"><stop stop-color="#34b099"/><stop offset="1" stop-color="#40abdb"/></linearGradient><linearGradient id="D" x1="1124.18" y1="918.009" x2="1124.18" y2="290.976" xlink:href="#h"><stop stop-color="#34b099"/><stop offset="1" stop-color="#40abdb"/></linearGradient><linearGradient id="E" x1="1491.77" y1="463.552" x2="1491.77" y2="155.11" xlink:href="#h"><stop stop-color="#34b099"/><stop offset="1" stop-color="#40abdb"/></linearGradient><linearGradient id="F" x1="1565.49" y1="338.634" x2="1565.49" y2="118.294" xlink:href="#h"><stop stop-color="#34b099"/><stop offset="1" stop-color="#40abdb"/></linearGradient><linearGradient id="G" x1="1071.95" y1="918.009" x2="1071.95" y2="290.976" xlink:href="#h"><stop stop-color="#34b099"/><stop offset="1" stop-color="#40abdb"/></linearGradient><linearGradient id="H" x1="1378.79" y1="463.552" x2="1378.79" y2="155.11" xlink:href="#h"><stop stop-color="#34b099"/><stop offset="1" stop-color="#40abdb"/></linearGradient><linearGradient id="I" x1="1440.37" y1="338.634" x2="1440.37" y2="118.294" xlink:href="#h"><stop stop-color="#34b099"/><stop offset="1" stop-color="#40abdb"/></linearGradient><linearGradient id="J" x1="1558.43" y1="2056.61" x2="1558.43" y2="637.376" xlink:href="#h"><stop stop-color="#34b099"/><stop offset="1" stop-color="#40abdb"/></linearGradient><linearGradient id="K" x1="1558.43" y1="677.379" x2="1558.43" y2="421.385" xlink:href="#h"><stop stop-color="#34b099"/><stop offset="1" stop-color="#40abdb"/></linearGradient><linearGradient id="L" x1="3240.35" y1="4954.94" x2="3240.35" y2="1513.37" xlink:href="#h"><stop stop-color="#34b099"/><stop offset="1" stop-color="#40abdb"/></linearGradient><linearGradient id="M" x1="3896.84" y1="3129.37" x2="3896.84" y2="965.153" xlink:href="#h"><stop stop-color="#34b099"/><stop offset="1" stop-color="#40abdb"/></linearGradient><linearGradient id="N" x1="2691.47" y1="2613.86" x2="2691.47" y2="810.624" xlink:href="#h"><stop stop-color="#34b099"/><stop offset="1" stop-color="#40abdb"/></linearGradient><linearGradient id="O" x1="6938.87" y1="12981.7" x2="6938.87" y2="3930.66" xlink:href="#h"><stop stop-color="#34b099"/><stop offset="1" stop-color="#40abdb"/></linearGradient><linearGradient id="P" x1="3197" y1="4822.8" x2="3197" y2="1469.67" xlink:href="#h"><stop stop-color="#34b099"/><stop offset="1" stop-color="#40abdb"/></linearGradient><linearGradient id="Q" x1="1197.76" y1="1053.41" x2="1246.34" y2="1080.59" xlink:href="#h"><stop stop-color="#34b099"/><stop offset="1" stop-color="#40abdb"/></linearGradient><linearGradient id="R" x1="1420.06" y1="3910.38" x2="1420.06" y2="1190.38" xlink:href="#h"><stop stop-color="#34b099"/><stop offset="1" stop-color="#40abdb"/></linearGradient><linearGradient id="S" x1="1220.25" y1="1629.56" x2="1220.25" y2="501.358" xlink:href="#h"><stop stop-color="#34b099"/><stop offset="1" stop-color="#40abdb"/></linearGradient><linearGradient id="T" x1="808.492" y1="419.706" x2="808.492" y2="136.179" xlink:href="#h"><stop stop-color="#34b099"/><stop offset="1" stop-color="#40abdb"/></linearGradient><linearGradient id="U" x1="1344.86" y1="1421.29" x2="1344.86" y2="382.282" xlink:href="#h"><stop stop-color="#34b099"/><stop offset="1" stop-color="#40abdb"/></linearGradient><linearGradient id="V" x1="1344.86" y1="604.407" x2="1344.86" y2="227.083" xlink:href="#h"><stop stop-color="#34b099"/><stop offset="1" stop-color="#40abdb"/></linearGradient><linearGradient id="W" x1="1913" y1="596.123" x2="1913" y2="188.435" xlink:href="#h"><stop stop-color="#34b099"/><stop offset="1" stop-color="#40abdb"/></linearGradient><linearGradient id="X" x1="2273.94" y1="1974.4" x2="2273.94" y2="610.532" xlink:href="#h"><stop stop-color="#34b099"/><stop offset="1" stop-color="#40abdb"/></linearGradient><linearGradient id="Y" x1="3023.41" y1="2633.3" x2="3023.41" y2="565.287" xlink:href="#h"><stop stop-color="#34b099"/><stop offset="1" stop-color="#40abdb"/></linearGradient><linearGradient id="Z" x1="3730.2" y1="2285.68" x2="3785.23" y2="2358.84" xlink:href="#h"><stop stop-color="#34b099"/><stop offset="1" stop-color="#40abdb"/></linearGradient><linearGradient id="a" x1="56.49" y1="56.632" x2="55.11" y2="49.23" xlink:href="#h"><stop stop-color="#455fe8"/><stop offset=".05" stop-color="#475de5"/><stop offset="1" stop-color="#6535b3"/></linearGradient><linearGradient id="b" x1="6.282" y1="58.965" x2="78.982" y2="58.965" xlink:href="#h"><stop stop-color="#3b1562"/><stop offset="1" stop-color="#180c30"/></linearGradient><clipPath id="c"><path transform="translate(12.255)" d="M0 0h67.697v56.514H0z" class="C"/></clipPath><clipPath id="d"><path transform="translate(0 50.803)" d="M0 0h81.142v28.197H0z" class="C"/></clipPath><clipPath id="e"><path transform="translate(30.101 55.681)" d="M0 0h42.236v14.753H0z" class="C"/></clipPath><path id="f" d="M61.902 25.659h-.404v30.325h.404V25.659z"/><path id="g" d="M42.791 32.546h-.228v6.072h.228v-6.072z"/><linearGradient id="h" gradientUnits="userSpaceOnUse"/></defs></svg>