<svg width="82" height="79" viewBox="0 0 82 79" fill="none" xmlns="http://www.w3.org/2000/svg">
<g clip-path="url(#clip0)">
<path d="M29.0072 9.4483C29.4397 9.44474 29.8676 9.53617 30.2608 9.71614C30.6541 9.8961 31.0029 10.1602 31.2827 10.4898C31.6389 10.1266 32.0757 9.85268 32.5578 9.69012C33.0399 9.52756 33.5536 9.48101 34.057 9.55425C34.5605 9.62749 35.0396 9.81845 35.4553 10.1116C35.871 10.4048 36.2116 10.7918 36.4494 11.2413C36.6599 11.1868 36.8765 11.1594 37.094 11.1597C37.6487 11.1591 38.1882 11.341 38.6293 11.6772C38.8972 11.2642 39.2875 10.9451 39.7458 10.7645C40.204 10.584 40.7072 10.551 41.1851 10.6703C41.663 10.7895 42.0917 11.0549 42.4113 11.4295C42.7309 11.8041 42.9254 12.2691 42.9676 12.7595C42.9676 12.7931 42.9697 12.8264 42.974 12.8593C42.9784 12.9582 42.9626 13.0569 42.9277 13.1495C42.8927 13.2422 42.8393 13.3267 42.7707 13.3981C42.7021 13.4695 42.6197 13.5262 42.5285 13.5648C42.4374 13.6034 42.3393 13.6231 42.2402 13.6227H26.8509C26.6848 13.6234 26.5234 13.5676 26.3933 13.4643C26.2633 13.3611 26.1723 13.2166 26.1354 13.0547C26.0774 12.797 26.0547 12.5326 26.0677 12.2688C26.1062 11.5131 26.4318 10.8004 26.978 10.2763C27.5243 9.75221 28.25 9.45606 29.0072 9.4483V9.4483Z" fill="#C7E4F9"/>
<path d="M48.9379 1.0055e-06C49.4772 -0.00412256 50.0108 0.110083 50.501 0.334558C50.9913 0.559033 51.4263 0.888306 51.7753 1.29914C52.2192 0.84517 52.7642 0.502499 53.3658 0.299083C53.9674 0.0956678 54.6086 0.037271 55.2371 0.128657C55.8656 0.220044 56.4636 0.458624 56.9822 0.824933C57.5009 1.19124 57.9256 1.6749 58.2216 2.23645C58.6852 2.11577 59.1703 2.10197 59.64 2.19608C60.1098 2.2902 60.552 2.48977 60.9333 2.77973C61.2691 2.26715 61.7562 1.87175 62.327 1.64839C62.8979 1.42503 63.5242 1.3848 64.1189 1.53328C64.7137 1.68175 65.2475 2.01158 65.6462 2.47697C66.0449 2.94236 66.2887 3.52024 66.3438 4.1304C66.3438 4.1712 66.3503 4.21307 66.3524 4.25387C66.3578 4.37729 66.3381 4.50052 66.2944 4.61608C66.2507 4.73165 66.184 4.83715 66.0983 4.92619C66.0126 5.01524 65.9097 5.08597 65.7959 5.1341C65.682 5.18223 65.5596 5.20677 65.436 5.20621H46.2477C46.0405 5.20702 45.8391 5.13728 45.6768 5.00848C45.5146 4.87968 45.401 4.69949 45.3549 4.49759C45.2352 3.95956 45.2374 3.40157 45.3614 2.86451C45.4854 2.32744 45.7281 1.8249 46.0716 1.39369C46.4151 0.962481 46.8508 0.613523 47.3468 0.372374C47.8427 0.131226 48.3864 0.00399528 48.9379 1.0055e-06V1.0055e-06Z" fill="#C7E4F9"/>
<path d="M70.3663 56.5136C72.515 53.9894 74.8851 50.1231 76.9092 45.5965C80.7844 36.9288 80.084 28.4006 79.4716 28.1612C78.9215 27.9465 71.8736 33.448 67.9973 42.1189C65.9732 46.6465 64.6947 50.9369 64.2842 54.144L70.3663 56.5136Z" fill="url(#paint0_linear)"/>
<path d="M67.5213 55.4012C68.7396 52.8244 70.4307 49.1342 72.2679 45.0253C75.7864 37.1553 78.3918 30.68 78.351 30.6639C78.3101 30.6478 75.2127 36.9342 71.6931 44.802C69.8559 48.9109 68.2358 52.6269 67.1292 55.2499L67.5213 55.4012Z" fill="#007AC3"/>
<path d="M61.9023 25.6585H55.7612V29.3519H61.9023V25.6585Z" fill="#C0CBD2"/>
<path d="M61.9023 25.6585H55.7612V29.3519H61.9023V25.6585Z" fill="#727CDB"/>
<path d="M61.9023 25.6585H55.7612L57.1773 23.4854H60.4874L61.9023 25.6585Z" fill="#727CDB"/>
<path d="M60.4863 21.3499H57.1772V23.4854H60.4863V21.3499Z" fill="#727CDB"/>
<path d="M58.9381 13.5529H58.7232C58.7232 13.5529 58.8801 20.9269 57.1761 21.3499H60.4841C58.7823 20.9269 58.9381 13.5529 58.9381 13.5529Z" fill="#727CDB"/>
<path d="M62.0839 32.0533H55.5807V55.9843H62.0839V32.0533Z" fill="#727CDB"/>
<path d="M61.9024 25.6585H61.4984V55.9832H61.9024V25.6585Z" fill="#646EC2"/>
<path d="M60.7549 25.6585H60.351V55.9832H60.7549V25.6585Z" fill="#646EC2"/>
<path d="M59.6075 25.6585H59.2036V55.9832H59.6075V25.6585Z" fill="#646EC2"/>
<path d="M58.4601 25.6585H58.0561V55.9832H58.4601V25.6585Z" fill="#646EC2"/>
<path d="M57.3126 25.6585H56.9087V55.9832H57.3126V25.6585Z" fill="#646EC2"/>
<path d="M56.1652 25.6585H55.7612V55.9832H56.1652V25.6585Z" fill="#646EC2"/>
<g style="mix-blend-mode:multiply" opacity="0.87">
<path d="M61.9023 27.5772H55.7612V29.3519H61.9023V27.5772Z" fill="#C0CBD2"/>
</g>
<g style="mix-blend-mode:multiply" opacity="0.87">
<path d="M62.0839 32.0533H55.5807V36.3157H62.0839V32.0533Z" fill="#C0CBD2"/>
</g>
<path d="M62.9606 27.8778H54.7041V35.5942H62.9606V27.8778Z" fill="#727CDB"/>
<path d="M62.1882 28.5993H55.4766V34.8717H62.1882V28.5993Z" fill="#646EC2"/>
<path d="M61.2609 31.5884C61.2609 30.1787 60.1737 29.0352 58.8318 29.0352C57.4899 29.0352 56.4037 30.1787 56.4037 31.5884C56.4037 32.9981 57.491 34.1427 58.8318 34.1427C60.1726 34.1427 61.2609 32.9992 61.2609 31.5884Z" fill="#727CDB"/>
<path d="M59.9567 32.8736L58.6782 31.5551C58.6559 31.5314 58.6435 31.5001 58.6435 31.4676C58.6435 31.4351 58.6559 31.4038 58.6782 31.3801C58.6888 31.3687 58.7017 31.3596 58.7161 31.3534C58.7304 31.3471 58.7458 31.3439 58.7614 31.3439C58.7771 31.3439 58.7925 31.3471 58.8068 31.3534C58.8212 31.3596 58.8341 31.3687 58.8447 31.3801L60.1254 32.6975C60.1474 32.7213 60.1597 32.7526 60.1597 32.785C60.1597 32.8174 60.1474 32.8487 60.1254 32.8725V32.8725C60.1148 32.8843 60.1018 32.8938 60.0873 32.9003C60.0728 32.9068 60.0571 32.9103 60.0413 32.9104C60.0254 32.9105 60.0096 32.9072 59.9951 32.9009C59.9805 32.8946 59.9674 32.8853 59.9567 32.8736V32.8736Z" fill="white"/>
<path d="M57.8347 32.2659L58.6674 31.3715C58.6781 31.3602 58.691 31.3513 58.7053 31.3451C58.7197 31.339 58.7351 31.3358 58.7506 31.3358C58.7662 31.3358 58.7816 31.339 58.7959 31.3451C58.8102 31.3513 58.8232 31.3602 58.8339 31.3715V31.3715C58.856 31.3953 58.8682 31.4266 58.8682 31.459C58.8682 31.4915 58.856 31.5227 58.8339 31.5465L58.0013 32.4409C57.9912 32.4531 57.9785 32.4628 57.9642 32.4696C57.9499 32.4763 57.9343 32.4798 57.9185 32.4798C57.9027 32.4798 57.8871 32.4763 57.8728 32.4696C57.8585 32.4628 57.8459 32.4531 57.8358 32.4409V32.4409C57.8131 32.4175 57.8004 32.3862 57.8002 32.3536C57.8 32.321 57.8124 32.2896 57.8347 32.2659V32.2659Z" fill="white"/>
<path d="M41.9867 56.1625V29.6719L53.3901 29.3885L55.4668 35.7306C55.4668 35.7306 60.2242 40.8337 60.3499 40.9272C60.4756 41.0206 63.9544 41.916 63.9544 41.916L66.0086 48.0359L69.3209 49.4961L69.5358 56.1593L41.9867 56.1625Z" fill="#FFE9CB"/>
<path d="M44.808 40.1187C44.2611 40.1187 43.8185 40.6169 43.8185 41.231V43.7745H45.7985V41.2289C45.8018 40.6169 45.3591 40.1187 44.808 40.1187Z" fill="#D1B07E"/>
<path d="M48.7896 40.1187C48.2417 40.1187 47.7991 40.6169 47.7991 41.231V43.7745H49.7791V41.2289C49.7791 40.6169 49.3365 40.1187 48.7896 40.1187Z" fill="#D1B07E"/>
<path d="M42.7914 32.5461H42.5636V38.6177H42.7914V32.5461Z" fill="#D1B07E"/>
<path d="M43.161 32.5461H42.9332V38.6177H43.161V32.5461Z" fill="#D1B07E"/>
<path d="M46.541 32.5461H46.3132V38.6177H46.541V32.5461Z" fill="#D1B07E"/>
<path d="M46.9106 32.5461H46.6828V38.6177H46.9106V32.5461Z" fill="#D1B07E"/>
<path d="M50.2905 32.5461H50.0627V38.6177H50.2905V32.5461Z" fill="#D1B07E"/>
<path d="M50.6601 32.5461H50.4324V38.6177H50.6601V32.5461Z" fill="#D1B07E"/>
<path d="M54.0401 32.5461H53.8123V38.6177H54.0401V32.5461Z" fill="#D1B07E"/>
<path d="M54.4096 32.5461H54.1819V38.6177H54.4096V32.5461Z" fill="#D1B07E"/>
<path d="M52.7669 40.1187C52.2201 40.1187 51.7764 40.6169 51.7764 41.231V43.7745H53.7575V41.2289C53.7575 40.6169 53.3138 40.1187 52.7669 40.1187Z" fill="#D1B07E"/>
<path d="M56.7443 40.1187C56.1974 40.1187 55.7537 40.6169 55.7537 41.231V43.7745H57.7349V41.2289C57.7349 40.6169 57.2912 40.1187 56.7443 40.1187Z" fill="#D1B07E"/>
<path d="M61.7122 41.3266C61.0526 41.1494 60.4778 40.9873 60.3671 40.9368L60.351 40.9282C60.3306 40.9132 60.1855 40.764 59.9599 40.5267C59.8105 40.7303 59.7303 40.9764 59.7311 41.2289V43.7724H61.7122V41.3266Z" fill="#D1B07E"/>
<path d="M44.808 45.7232C44.2611 45.7232 43.8185 46.2214 43.8185 46.8355V49.379H45.7985V46.8355C45.8018 46.2214 45.3591 45.7232 44.808 45.7232Z" fill="#D1B07E"/>
<path d="M48.7896 45.7232C48.2417 45.7232 47.7991 46.2214 47.7991 46.8355V49.379H49.7791V46.8355C49.7791 46.2214 49.3365 45.7232 48.7896 45.7232Z" fill="#D1B07E"/>
<path d="M52.7669 45.7232C52.2201 45.7232 51.7764 46.2214 51.7764 46.8355V49.379H53.7575V46.8355C53.7575 46.2214 53.3138 45.7232 52.7669 45.7232Z" fill="#D1B07E"/>
<path d="M56.7443 45.7232C56.1974 45.7232 55.7537 46.2214 55.7537 46.8355V49.379H57.7349V46.8355C57.7349 46.2214 57.2912 45.7232 56.7443 45.7232Z" fill="#D1B07E"/>
<path d="M60.7217 45.7232C60.1748 45.7232 59.7311 46.2214 59.7311 46.8355V49.379H61.7122V46.8355C61.7122 46.2214 61.2685 45.7232 60.7217 45.7232Z" fill="#D1B07E"/>
<path d="M65.7583 47.2253C65.6508 46.8688 65.509 46.4233 65.3564 45.9369C65.1917 45.7981 64.9832 45.722 64.7677 45.7222C64.2208 45.7222 63.7782 46.2203 63.7782 46.8345V49.378H65.7583V47.2253Z" fill="#D1B07E"/>
<path d="M44.808 51.2569C44.2611 51.2569 43.8185 51.7551 43.8185 52.3692V54.9128H45.7985V52.3692C45.8018 51.7508 45.3591 51.2569 44.808 51.2569Z" fill="#D1B07E"/>
<path d="M41.9867 45.1757H65.1136C65.0352 44.9319 64.9568 44.6871 64.8783 44.4456H41.9942L41.9867 45.1757Z" fill="#D1B07E"/>
<path d="M59.4549 39.0815H41.9867V39.8116H59.7998L59.4549 39.0815Z" fill="#D1B07E"/>
<path d="M41.9878 50.7329H69.3596L69.337 50.0029H41.9878V50.7329Z" fill="#D1B07E"/>
<g style="mix-blend-mode:multiply" opacity="0.58">
<path d="M45.8824 29.5753L41.9857 29.6719V56.1625H69.5304C48.7832 56.1625 45.7277 39.876 45.8824 29.5753Z" fill="#F7BE76"/>
</g>
<path d="M39.8154 21.5464L31.7683 19.4957L29.8849 27.6641L37.932 29.7148L39.8154 21.5464Z" fill="#FFE9CB"/>
<path d="M34.3039 56.0702L40.6824 28.4017C40.7378 28.1768 40.7036 27.9393 40.5872 27.739C40.4708 27.5388 40.2811 27.3915 40.0582 27.3281L29.0352 24.5183C28.9247 24.4923 28.8102 24.4888 28.6984 24.5079C28.5866 24.527 28.4797 24.5684 28.3842 24.6296C28.2887 24.6908 28.2065 24.7705 28.1424 24.8641C28.0783 24.9577 28.0338 25.0632 28.0113 25.1743L20.8893 56.0702H34.3039Z" fill="#FFE9CB"/>
<path d="M29.7012 25.6542C29.6087 25.632 29.5125 25.6287 29.4186 25.6444C29.3247 25.6602 29.235 25.6947 29.1548 25.7459C29.0745 25.7972 29.0054 25.864 28.9516 25.9425C28.8979 26.021 28.8605 26.1096 28.8417 26.2029L28.4603 27.8585L29.8377 28.2106L30.2202 26.554C30.2661 26.3661 30.2379 26.1677 30.1412 26.0001C30.0445 25.8326 29.887 25.7087 29.7012 25.6542V25.6542Z" fill="#D1B07E"/>
<path d="M31.9499 26.2276C31.8573 26.2052 31.7612 26.2018 31.6672 26.2174C31.5733 26.2331 31.4835 26.2676 31.4032 26.3189C31.3229 26.3701 31.2538 26.437 31.2001 26.5156C31.1463 26.5942 31.109 26.6829 31.0904 26.7762L30.7079 28.4318L32.0864 28.7829L32.4678 27.1273C32.5138 26.9396 32.4857 26.7413 32.3892 26.5738C32.2928 26.4062 32.1355 26.2822 31.9499 26.2276V26.2276Z" fill="#D1B07E"/>
<path d="M34.1996 26.8009C34.1071 26.7787 34.0109 26.7754 33.917 26.7911C33.8232 26.8069 33.7334 26.8414 33.6532 26.8926C33.5729 26.9438 33.5038 27.0107 33.4501 27.0892C33.3963 27.1677 33.3589 27.2563 33.3401 27.3496L32.9587 29.0051L34.3372 29.3562L34.7218 27.7006C34.7676 27.5123 34.7389 27.3136 34.6416 27.1459C34.5443 26.9783 34.386 26.8547 34.1996 26.8009V26.8009Z" fill="#D1B07E"/>
<path d="M36.4494 27.3785C36.3568 27.3562 36.2607 27.3527 36.1667 27.3684C36.0727 27.3841 35.9829 27.4186 35.9027 27.4698C35.8224 27.5211 35.7533 27.588 35.6996 27.6666C35.6458 27.7452 35.6085 27.8338 35.5899 27.9272L35.2085 29.5828L36.5858 29.9339L36.9672 28.2783C37.0133 28.0905 36.9851 27.8923 36.8887 27.7247C36.7923 27.5572 36.6349 27.4332 36.4494 27.3785V27.3785Z" fill="#D1B07E"/>
<path d="M33.0135 21.6172C32.9209 21.595 32.8248 21.5917 32.7309 21.6074C32.637 21.6232 32.5473 21.6577 32.467 21.7089C32.3868 21.7602 32.3177 21.827 32.2639 21.9055C32.2102 21.984 32.1728 22.0726 32.154 22.1659L31.7715 23.8215L33.15 24.1726L33.5314 22.517C33.5774 22.3292 33.5493 22.131 33.4528 21.9634C33.3564 21.7959 33.1991 21.6719 33.0135 21.6172V21.6172Z" fill="#D1B07E"/>
<path d="M35.2622 22.1906C35.1696 22.1682 35.0735 22.1648 34.9795 22.1805C34.8856 22.1961 34.7957 22.2306 34.7155 22.2819C34.6352 22.3331 34.5661 22.4001 34.5124 22.4786C34.4586 22.5572 34.4213 22.6459 34.4027 22.7392L34.0213 24.3948L35.3997 24.7459L35.7833 23.0903C35.8292 22.9021 35.8006 22.7035 35.7035 22.5359C35.6064 22.3683 35.4483 22.2446 35.2622 22.1906V22.1906Z" fill="#D1B07E"/>
<path d="M37.512 22.7618C37.4194 22.7394 37.3232 22.7359 37.2293 22.7516C37.1353 22.7673 37.0455 22.8018 36.9652 22.8531C36.8849 22.9043 36.8159 22.9712 36.7621 23.0498C36.7084 23.1284 36.6711 23.2171 36.6525 23.3104L36.2711 24.966L37.6484 25.3171L38.0395 23.6637C38.0857 23.4743 38.0566 23.2744 37.9581 23.1061C37.8597 22.9379 37.6997 22.8144 37.512 22.7618V22.7618Z" fill="#D1B07E"/>
<path d="M38.6981 27.9476C38.6055 27.9252 38.5093 27.9218 38.4154 27.9375C38.3214 27.9531 38.2316 27.9876 38.1513 28.0389C38.071 28.0901 38.002 28.1571 37.9482 28.2357C37.8945 28.3142 37.8572 28.4029 37.8386 28.4962L37.4572 30.1518L38.8356 30.5029L39.2213 28.8473C39.2671 28.6589 39.2382 28.46 39.1407 28.2923C39.0432 28.1246 38.8846 28.0011 38.6981 27.9476Z" fill="#D1B07E"/>
<path d="M28.7053 29.9747C28.6127 29.9525 28.5166 29.9491 28.4227 29.9649C28.3288 29.9806 28.2391 30.0152 28.1588 30.0664C28.0786 30.1176 28.0095 30.1845 27.9557 30.263C27.902 30.3415 27.8646 30.43 27.8458 30.5233L27.4644 32.18L28.845 32.5322L29.2296 30.8744C29.2754 30.6858 29.2463 30.4868 29.1486 30.3191C29.0509 30.1514 28.892 30.028 28.7053 29.9747V29.9747Z" fill="#D1B07E"/>
<path d="M30.954 30.548C30.8614 30.5259 30.7653 30.5227 30.6715 30.5385C30.5776 30.5544 30.488 30.5889 30.4078 30.6401C30.3275 30.6913 30.2585 30.7581 30.2047 30.8365C30.1508 30.915 30.1134 31.0034 30.0945 31.0967L29.7131 32.7533L31.0915 33.1044L31.4729 31.4477C31.5189 31.2599 31.4906 31.0615 31.3939 30.8939C31.2973 30.7263 31.1397 30.6024 30.954 30.548Z" fill="#D1B07E"/>
<path d="M33.2048 31.1213C33.1123 31.0993 33.0162 31.0961 32.9223 31.1119C32.8285 31.1277 32.7388 31.1622 32.6586 31.2134C32.5784 31.2646 32.5093 31.3314 32.4555 31.4099C32.4017 31.4883 32.3642 31.5768 32.3453 31.67L31.9639 33.3256L33.3413 33.6778L33.7237 32.0211C33.7697 31.8332 33.7414 31.6348 33.6448 31.4672C33.5481 31.2997 33.3906 31.1758 33.2048 31.1213V31.1213Z" fill="#D1B07E"/>
<path d="M35.4534 31.6947C35.3608 31.6725 35.2647 31.6691 35.1708 31.6849C35.0769 31.7006 34.9872 31.7352 34.9069 31.7864C34.8267 31.8376 34.7576 31.9045 34.7038 31.983C34.6501 32.0615 34.6127 32.15 34.5939 32.2433L34.2125 33.8989L35.5931 34.25L35.9745 32.5944C36.0204 32.4062 35.9918 32.2076 35.8947 32.04C35.7976 31.8724 35.6396 31.7487 35.4534 31.6947V31.6947Z" fill="#D1B07E"/>
<path d="M37.7021 32.268C37.6096 32.2457 37.5134 32.2422 37.4194 32.2579C37.3255 32.2736 37.2357 32.3081 37.1554 32.3593C37.0751 32.4106 37.006 32.4775 36.9523 32.5561C36.8986 32.6347 36.8613 32.7233 36.8426 32.8167L36.4612 34.4723L37.8397 34.8234L38.2211 33.1678C38.267 32.9799 38.2388 32.7815 38.1421 32.6139C38.0455 32.4463 37.8879 32.3225 37.7021 32.268V32.268Z" fill="#D1B07E"/>
<path d="M27.7094 34.2951C27.6167 34.2729 27.5206 34.2696 27.4266 34.2854C27.3326 34.3012 27.2428 34.3359 27.1626 34.3872C27.0823 34.4385 27.0133 34.5055 26.9595 34.5841C26.9058 34.6628 26.8685 34.7514 26.8499 34.8448L26.4706 36.5047L27.8491 36.8558L28.2305 35.2002C28.2779 35.0113 28.2501 34.8113 28.1529 34.6425C28.0557 34.4736 27.8967 34.3491 27.7094 34.2951V34.2951Z" fill="#D1B07E"/>
<path d="M29.9581 34.8684C29.8655 34.8464 29.7694 34.8432 29.6756 34.859C29.5817 34.8748 29.492 34.9093 29.4118 34.9605C29.3316 35.0117 29.2626 35.0785 29.2087 35.157C29.1549 35.2354 29.1175 35.3239 29.0986 35.4171L28.7172 37.0737L30.0956 37.4248L30.477 35.7692C30.5233 35.5812 30.4951 35.3826 30.3985 35.2147C30.3018 35.0469 30.144 34.9229 29.9581 34.8684Z" fill="#D1B07E"/>
<path d="M32.2078 35.4418C32.1152 35.4197 32.0191 35.4165 31.9253 35.4323C31.8314 35.4481 31.7417 35.4827 31.6615 35.5339C31.5813 35.5851 31.5123 35.6519 31.4584 35.7303C31.4046 35.8087 31.3672 35.8972 31.3483 35.9904L30.9669 37.6471L32.3453 37.9982L32.7278 36.3415C32.7737 36.1535 32.7453 35.955 32.6484 35.7874C32.5515 35.6198 32.3937 35.496 32.2078 35.4418V35.4418Z" fill="#D1B07E"/>
<path d="M34.4564 36.0151C34.3638 35.9929 34.2677 35.9896 34.1738 36.0053C34.0799 36.0211 33.9902 36.0556 33.9099 36.1068C33.8297 36.158 33.7606 36.2249 33.7068 36.3034C33.6531 36.3819 33.6157 36.4705 33.5969 36.5638L33.2188 38.2226L34.6015 38.5715L34.9829 36.9149C35.0285 36.726 34.9992 36.5267 34.9011 36.359C34.8029 36.1912 34.6435 36.068 34.4564 36.0151V36.0151Z" fill="#D1B07E"/>
<path d="M36.7062 36.5885C36.6136 36.5664 36.5175 36.5632 36.4237 36.579C36.3298 36.5948 36.2402 36.6294 36.1599 36.6806C36.0797 36.7318 36.0107 36.7986 35.9569 36.877C35.903 36.9554 35.8656 37.0439 35.8467 37.1371L35.4653 38.7927L36.8437 39.1438L37.2251 37.4882C37.2711 37.3003 37.2428 37.1019 37.1461 36.9344C37.0495 36.7668 36.8919 36.6429 36.7062 36.5885V36.5885Z" fill="#D1B07E"/>
<path d="M26.7124 38.6166C26.6198 38.5941 26.5236 38.5905 26.4296 38.6061C26.3356 38.6218 26.2457 38.6562 26.1654 38.7075C26.0851 38.7588 26.016 38.8258 25.9623 38.9044C25.9086 38.9831 25.8713 39.0718 25.8529 39.1653L25.4704 40.8208L26.8488 41.1719L27.2302 39.5163C27.2762 39.3286 27.2481 39.1304 27.1517 38.9628C27.0552 38.7952 26.8979 38.6713 26.7124 38.6166V38.6166Z" fill="#D1B07E"/>
<path d="M28.9621 39.1889C28.8694 39.1668 28.7733 39.1637 28.6794 39.1795C28.5855 39.1954 28.4957 39.2301 28.4155 39.2814C28.3353 39.3327 28.2663 39.3996 28.2125 39.4782C28.1587 39.5567 28.1213 39.6453 28.1026 39.7386L27.7255 41.3942L29.1039 41.7453L29.4853 40.0897C29.5314 39.9011 29.5027 39.702 29.4051 39.534C29.3076 39.3661 29.1488 39.2424 28.9621 39.1889V39.1889Z" fill="#D1B07E"/>
<path d="M31.2118 39.7622C31.1192 39.7402 31.0231 39.737 30.9292 39.7529C30.8353 39.7688 30.7455 39.8034 30.6653 39.8547C30.5851 39.906 30.516 39.9729 30.4623 40.0515C30.4085 40.1301 30.3711 40.2186 30.3524 40.3119L29.9709 41.9675L31.3483 42.3186L31.7308 40.663C31.7771 40.475 31.7489 40.2763 31.6523 40.1085C31.5556 39.9407 31.3978 39.8166 31.2118 39.7622V39.7622Z" fill="#D1B07E"/>
<path d="M33.4605 40.3356C33.3679 40.3133 33.2718 40.31 33.1779 40.3258C33.084 40.3415 32.9942 40.376 32.914 40.4273C32.8338 40.4785 32.7647 40.5453 32.7109 40.6239C32.6571 40.7024 32.6197 40.7909 32.601 40.8842L32.2185 42.5409L33.5969 42.892L33.9783 41.2364C34.0247 41.0485 33.9967 40.85 33.9002 40.6822C33.8038 40.5144 33.6462 40.3902 33.4605 40.3356V40.3356Z" fill="#D1B07E"/>
<path d="M35.7103 40.9068C35.6177 40.8847 35.5216 40.8815 35.4278 40.8973C35.3339 40.9131 35.2442 40.9477 35.164 40.9989C35.0838 41.05 35.0148 41.1169 34.9609 41.1953C34.9071 41.2737 34.8697 41.3622 34.8508 41.4554L34.4694 43.1121L35.8478 43.4632L36.2292 41.8065C36.2752 41.6186 36.2469 41.4202 36.1502 41.2527C36.0536 41.0851 35.896 40.9612 35.7103 40.9068Z" fill="#D1B07E"/>
<path d="M25.7164 42.9371C25.6238 42.9145 25.5276 42.911 25.4336 42.9266C25.3396 42.9422 25.2497 42.9767 25.1694 43.0279C25.0891 43.0792 25.02 43.1462 24.9663 43.2249C24.9126 43.3035 24.8754 43.3923 24.8569 43.4857L24.4744 45.1413L25.8528 45.4924L26.2342 43.8368C26.2803 43.649 26.2521 43.4508 26.1557 43.2832C26.0593 43.1157 25.9019 42.9917 25.7164 42.9371V42.9371Z" fill="#D1B07E"/>
<path d="M27.9662 43.5104C27.8736 43.488 27.7774 43.4846 27.6835 43.5003C27.5895 43.5159 27.4997 43.5505 27.4194 43.6017C27.3392 43.6529 27.2701 43.7199 27.2163 43.7985C27.1626 43.877 27.1253 43.9657 27.1067 44.059L26.7253 45.7146L28.1037 46.0657L28.4851 44.4101C28.5311 44.2222 28.5028 44.0239 28.4061 43.8563C28.3095 43.6887 28.1519 43.5648 27.9662 43.5104V43.5104Z" fill="#D1B07E"/>
<path d="M30.2159 44.0837C30.1233 44.0614 30.0271 44.0579 29.9332 44.0736C29.8392 44.0893 29.7494 44.1238 29.6691 44.175C29.5889 44.2263 29.5198 44.2932 29.466 44.3718C29.4123 44.4504 29.375 44.539 29.3564 44.6324L28.975 46.288L30.3523 46.6391L30.7337 44.9867C30.7807 44.7985 30.753 44.5994 30.6565 44.4311C30.56 44.2629 30.4021 44.1384 30.2159 44.0837V44.0837Z" fill="#D1B07E"/>
<path d="M32.4646 44.656C32.3719 44.6338 32.2757 44.6305 32.1818 44.6463C32.0878 44.6621 31.998 44.6967 31.9178 44.7481C31.8375 44.7994 31.7685 44.8664 31.7147 44.945C31.661 45.0237 31.6237 45.1123 31.6051 45.2057L31.2226 46.8613L32.601 47.2124L32.9899 45.5568C33.036 45.3679 33.0069 45.1685 32.909 45.0005C32.811 44.8326 32.6517 44.7091 32.4646 44.656V44.656Z" fill="#D1B07E"/>
<path d="M34.7143 45.2293C34.6217 45.2073 34.5256 45.204 34.4318 45.2199C34.338 45.2357 34.2483 45.2702 34.1681 45.3214C34.0879 45.3726 34.0188 45.4394 33.965 45.5179C33.9111 45.5963 33.8737 45.6848 33.8548 45.778L33.4734 47.4346L34.8518 47.7857L35.2332 46.1301C35.2795 45.9421 35.2514 45.7435 35.1547 45.5756C35.058 45.4078 34.9003 45.2838 34.7143 45.2293Z" fill="#D1B07E"/>
<path d="M24.7173 47.2575C24.6247 47.2351 24.5285 47.2317 24.4346 47.2474C24.3406 47.2631 24.2508 47.2976 24.1705 47.3488C24.0902 47.4 24.0212 47.467 23.9674 47.5456C23.9137 47.6241 23.8764 47.7128 23.8578 47.8061L23.4753 49.4617L24.8612 49.8182L25.2426 48.1626C25.2899 47.9731 25.2615 47.7726 25.1634 47.6037C25.0654 47.4347 24.9053 47.3106 24.7173 47.2575Z" fill="#D1B07E"/>
<path d="M26.9734 47.8308C26.8809 47.8085 26.7847 47.805 26.6907 47.8207C26.5968 47.8364 26.507 47.8709 26.4267 47.9221C26.3464 47.9734 26.2773 48.0403 26.2236 48.1189C26.1699 48.1975 26.1326 48.2861 26.1139 48.3795L25.7325 50.0329L27.111 50.384L27.4924 48.7284C27.5377 48.5408 27.5091 48.343 27.4125 48.1759C27.3159 48.0088 27.1587 47.8853 26.9734 47.8308Z" fill="#D1B07E"/>
<path d="M29.22 48.4042C29.1274 48.3818 29.0312 48.3783 28.9373 48.394C28.8433 48.4097 28.7535 48.4442 28.6732 48.4955C28.593 48.5467 28.5239 48.6136 28.4701 48.6922C28.4164 48.7708 28.3791 48.8594 28.3605 48.9528L27.9791 50.6084L29.3564 50.9595L29.7389 49.3039C29.7849 49.116 29.7566 48.9176 29.6599 48.7501C29.5633 48.5825 29.4057 48.4586 29.22 48.4042V48.4042Z" fill="#D1B07E"/>
<path d="M31.4686 48.9775C31.376 48.955 31.2798 48.9514 31.1858 48.967C31.0918 48.9826 31.0019 49.0171 30.9216 49.0684C30.8413 49.1197 30.7722 49.1867 30.7185 49.2653C30.6648 49.344 30.6276 49.4327 30.6091 49.5261L30.2266 51.1817L31.6093 51.536L31.9907 49.8805C32.0375 49.6917 32.0093 49.4921 31.9119 49.3237C31.8145 49.1554 31.6556 49.0313 31.4686 48.9775V48.9775Z" fill="#D1B07E"/>
<path d="M33.7183 49.5498C33.6257 49.5277 33.5295 49.5245 33.4356 49.5404C33.3417 49.5563 33.252 49.591 33.1718 49.6423C33.0916 49.6936 33.0225 49.7605 32.9687 49.839C32.915 49.9176 32.8776 50.0062 32.8588 50.0995L32.4807 51.7508L33.8591 52.1019L34.2405 50.4463C34.2854 50.2584 34.2562 50.0605 34.159 49.8936C34.0618 49.7267 33.904 49.6035 33.7183 49.5498V49.5498Z" fill="#D1B07E"/>
<path d="M23.7245 51.5779C23.6319 51.5555 23.5358 51.5521 23.4418 51.5678C23.3479 51.5835 23.2581 51.618 23.1778 51.6692C23.0975 51.7205 23.0284 51.7874 22.9747 51.866C22.9209 51.9446 22.8836 52.0332 22.865 52.1266L22.4825 53.7822L23.861 54.1343L24.2424 52.4777C24.2884 52.2899 24.2603 52.0917 24.1638 51.9241C24.0674 51.7565 23.9101 51.6326 23.7245 51.5779V51.5779Z" fill="#D1B07E"/>
<path d="M25.9742 52.1513C25.8817 52.129 25.7855 52.1257 25.6916 52.1415C25.5978 52.1572 25.508 52.1917 25.4278 52.243C25.3475 52.2942 25.2784 52.361 25.2247 52.4396C25.1709 52.5181 25.1335 52.6066 25.1147 52.6999L24.7333 54.3555L26.1139 54.7066L26.4953 53.051C26.5412 52.8628 26.5126 52.6642 26.4155 52.4966C26.3185 52.3289 26.1604 52.2052 25.9742 52.1513V52.1513Z" fill="#D1B07E"/>
<path d="M28.224 52.7246C28.1314 52.7024 28.0353 52.699 27.9414 52.7148C27.8475 52.7305 27.7578 52.7651 27.6775 52.8163C27.5973 52.8675 27.5282 52.9344 27.4744 53.0129C27.4206 53.0914 27.3832 53.1799 27.3645 53.2732L26.9831 54.9288L28.3604 55.2799L28.7418 53.6243C28.7879 53.4366 28.7597 53.2383 28.6633 53.0708C28.5669 52.9032 28.4095 52.7792 28.224 52.7246V52.7246Z" fill="#D1B07E"/>
<path d="M30.4727 53.2979C30.3801 53.2754 30.2839 53.2718 30.1899 53.2875C30.0959 53.3031 30.006 53.3376 29.9257 53.3888C29.8454 53.4401 29.7763 53.5071 29.7226 53.5858C29.6689 53.6644 29.6317 53.7532 29.6132 53.8466L29.2307 55.5022L30.6091 55.8533L30.9905 54.1977C31.0365 54.0099 31.0084 53.8117 30.912 53.6441C30.8155 53.4766 30.6582 53.3526 30.4727 53.2979V53.2979Z" fill="#D1B07E"/>
<path d="M32.9448 56.0701L33.2445 54.771C33.2904 54.5827 33.2616 54.384 33.1643 54.2163C33.0671 54.0487 32.9087 53.925 32.7224 53.8713C32.6298 53.8489 32.5336 53.8455 32.4397 53.8611C32.3457 53.8768 32.2559 53.9113 32.1756 53.9626C32.0954 54.0138 32.0263 54.0807 31.9725 54.1593C31.9188 54.2379 31.8815 54.3266 31.8629 54.4199L31.4858 56.0701H32.9448Z" fill="#D1B07E"/>
<path d="M23.0369 56.0702C22.9096 55.9468 22.7393 55.8779 22.562 55.8779C22.3848 55.8779 22.2144 55.9468 22.0872 56.0702H23.0369Z" fill="#D1B07E"/>
<path d="M40.1441 32.2412L26.8713 28.8591L26.8251 28.085L40.5223 31.5755L40.1441 32.2412Z" fill="#D1B07E"/>
<path d="M41.0434 28.3405L27.7706 24.9574L27.7244 24.1833L41.4216 27.6738L41.0434 28.3405Z" fill="#D1B07E"/>
<path d="M40.0604 21.9898L31.4106 19.7856L31.3644 19.0115L40.4385 21.3241L40.0604 21.9898Z" fill="#D1B07E"/>
<path d="M39.1407 36.596L25.8679 33.2139L25.8206 32.4398L39.5189 35.9303L39.1407 36.596Z" fill="#D1B07E"/>
<path d="M38.1362 40.9508L24.8634 37.5676L24.8172 36.7935L38.5155 40.284L38.1362 40.9508Z" fill="#D1B07E"/>
<path d="M37.1327 45.3045L23.8599 41.9224L23.8137 41.1483L37.5108 44.6388L37.1327 45.3045Z" fill="#D1B07E"/>
<path d="M36.1292 49.6593L22.8564 46.2762L22.8102 45.502L36.5074 48.9936L36.1292 49.6593Z" fill="#D1B07E"/>
<path d="M35.1257 54.013L21.8519 50.631L21.8057 49.8568L35.5039 53.3473L35.1257 54.013Z" fill="#D1B07E"/>
<path d="M25.104 56.0702H28.0951L20.8022 54.2116L20.8484 54.9858L25.104 56.0702Z" fill="#D1B07E"/>
<path d="M19.4324 26.0891C20.7799 26.0891 21.8723 24.9753 21.8723 23.6014C21.8723 22.2275 20.7799 21.1137 19.4324 21.1137C18.0849 21.1137 16.9925 22.2275 16.9925 23.6014C16.9925 24.9753 18.0849 26.0891 19.4324 26.0891Z" fill="url(#paint1_linear)"/>
<path d="M19.0864 21.8008C19.0864 21.8008 19.3561 19.3872 19.3808 19.428C19.4055 19.4688 19.8664 21.8814 19.7644 21.8814C19.6623 21.8814 19.0864 21.8008 19.0864 21.8008Z" fill="url(#paint2_linear)"/>
<path d="M20.1705 22.0177C20.1705 22.0177 21.8981 20.4072 21.8895 20.4512C21.8809 20.4953 20.6991 22.6233 20.6239 22.5524C20.5487 22.4815 20.1705 22.0177 20.1705 22.0177Z" fill="url(#paint3_linear)"/>
<path d="M20.9344 22.3549C20.9344 22.3549 23.2206 22.0027 23.1906 22.0392C23.1605 22.0757 21.0644 23.1676 21.0365 23.0646C21.0085 22.9615 20.9344 22.3549 20.9344 22.3549Z" fill="url(#paint4_linear)"/>
<path d="M21.2148 23.231C21.2148 23.231 23.4377 23.8956 23.3958 23.916C23.3539 23.9364 21.0149 24.0233 21.0321 23.9224C21.0493 23.8215 21.2148 23.231 21.2148 23.231Z" fill="url(#paint5_linear)"/>
<path d="M18.8189 22.0177C18.8189 22.0177 17.0914 20.4072 17.0999 20.4512C17.1085 20.4953 18.2904 22.6233 18.3656 22.5524C18.4408 22.4815 18.8189 22.0177 18.8189 22.0177Z" fill="url(#paint6_linear)"/>
<path d="M18.0561 22.3549C18.0561 22.3549 15.7688 22.0027 15.7999 22.0392C15.8311 22.0757 17.9272 23.1676 17.9487 23.0646C17.9702 22.9615 18.0561 22.3549 18.0561 22.3549Z" fill="url(#paint7_linear)"/>
<path d="M17.7746 23.231C17.7746 23.231 15.5518 23.8956 15.5937 23.916C15.6356 23.9364 17.9745 24.0233 17.9573 23.9224C17.9401 23.8215 17.7746 23.231 17.7746 23.231Z" fill="url(#paint8_linear)"/>
<path d="M20.582 25.0669H18.1238V29.8287H20.582V25.0669Z" fill="url(#paint9_linear)"/>
<path style="mix-blend-mode:multiply" opacity="0.35" d="M18.1238 26.4541C18.2874 26.6401 18.4887 26.7894 18.7142 26.8919C18.9398 26.9944 19.1846 27.048 19.4324 27.0489V27.0489C19.856 27.0485 20.2648 26.8935 20.582 26.613V25.0669H18.1238V26.4541Z" fill="url(#paint10_linear)"/>
<path d="M22.7243 28.5435C22.7866 28.6122 23.6805 31.5766 24.0866 32.1048C24.4927 32.6331 26.6737 32.3077 26.519 35.5406C26.3642 38.7734 25.3028 42.2563 24.2209 38.3804C22.9467 36.3941 22.5996 36.7592 22.4062 35.7843C22.2129 34.8094 21.7305 32.8854 21.7305 32.8854L21.9808 30.446L22.7243 28.5435Z" fill="url(#paint11_linear)"/>
<path d="M25.7153 31.4295C25.7615 31.4134 23.3409 35.8541 23.3409 35.8541L22.7704 37.7179L24.9708 38.6907L28.4281 32.8789L25.7153 31.4295Z" fill="url(#paint12_linear)"/>
<path style="mix-blend-mode:multiply" opacity="0.4" d="M24.9707 38.6907L28.4281 32.8789L27.9833 32.6406L24.5807 38.5189L24.9707 38.6907Z" fill="url(#paint13_linear)"/>
<path d="M15.2327 37.5837C15.3176 37.7072 14.717 40.1348 14.9104 41.6164C15.1038 43.0981 15.1843 46.2665 14.9888 47.542C14.6751 48.489 15.1059 50.9992 15.223 52.4809C15.3305 53.8455 14.1766 55.6826 13.9338 56.0583H24.5787C24.1145 55.1994 24.2252 51.7809 24.2252 51.7809C24.2252 51.7809 24.4992 51.3278 24.4992 51.0808C24.4992 50.8339 24.656 46.39 24.656 46.39L24.9687 46.1838C24.9687 46.1838 24.0683 36.7194 23.991 36.1021C23.9136 35.4847 23.1691 29.4765 22.8554 28.7346C22.5416 27.9927 20.7066 28.1977 19.7633 28.1977C18.82 28.1977 17.5738 25.9828 17.0645 25.6907C17.0645 27.3367 15.2381 33.1806 15.2381 33.1806C15.2381 33.1806 14.1637 35.8143 14.2045 36.7602C14.2453 37.7061 15.1467 37.4603 15.2327 37.5837Z" fill="url(#paint14_linear)"/>
<path d="M16.1878 34.25C15.9804 34.1566 14.3839 32.1027 14.3549 31.8257C14.3259 31.5487 14.3248 29.775 14.3549 29.4947C14.385 29.2145 13.8822 28.6251 14.0595 28.2826C14.2367 27.9401 12.9657 26.4756 13.2311 25.5436C13.4965 24.6117 15.5947 22.1874 16.335 23.275C17.0752 24.3626 16.7239 25.3708 17.0645 25.6907C17.405 26.0107 18.5525 28.7346 18.5525 28.7346L18.257 31.9771L16.1878 34.25Z" fill="url(#paint15_linear)"/>
<path style="mix-blend-mode:multiply" opacity="0.4" d="M14.3517 29.4185C14.3667 29.4851 15.5389 28.1709 15.7989 27.4526C14.9684 28.464 14.0799 28.1795 14.0799 28.1795C14.0799 28.1795 15.4089 26.9995 15.5195 26.0901C15.1027 27.152 14.4828 27.5793 13.9359 27.7715C14.0434 28.0034 14.1089 28.1849 14.0595 28.2793C13.8972 28.5918 14.3044 29.1125 14.3517 29.4185Z" fill="url(#paint16_linear)"/>
<path d="M14.5526 25.7509C14.24 24.2273 13.4621 20.1678 13.5567 17.7735C14.0004 17.1207 14.4731 16.9038 14.6805 16.8727C14.8878 16.8416 15.6839 22.6039 15.9418 23.9288C15.9671 24.0545 15.9627 24.1842 15.9289 24.3078C15.757 24.9231 15.3767 25.4996 15.0801 25.8829C15.0449 25.9287 14.9971 25.9631 14.9425 25.9821C14.888 26.0011 14.8291 26.0037 14.7731 25.9897C14.717 25.9756 14.6663 25.9456 14.6272 25.9031C14.588 25.8607 14.5621 25.8078 14.5526 25.7509V25.7509Z" fill="url(#paint17_linear)"/>
<path d="M14.9727 16.4712C14.9426 15.4254 14.4505 14.5922 13.8725 14.6105C13.2945 14.6287 12.8497 15.4909 12.8798 16.5345C12.9099 17.5781 13.403 18.4134 13.981 18.3952C14.559 18.3769 15.0028 17.5158 14.9727 16.4712Z" fill="url(#paint18_linear)"/>
<path d="M14.3098 14.8059H13.3504L13.1387 13.8546H14.5215L14.3098 14.8059Z" fill="url(#paint19_linear)"/>
<path d="M14.6793 10.188C14.6493 10.5713 14.357 10.7936 14.0079 10.9557C13.9971 10.8682 14.0055 10.7794 14.0324 10.6955C14.0593 10.6115 14.104 10.5343 14.1637 10.4694C13.7928 10.6055 13.4463 10.8005 13.1376 11.047C13.0202 11.1503 12.931 11.2818 12.8787 11.4292C12.8199 11.4611 12.7702 11.5074 12.7341 11.5637C12.698 11.6201 12.6768 11.6846 12.6724 11.7513C12.6646 12.0661 12.7823 12.3711 12.9995 12.5992C13.2166 12.8273 13.5156 12.9599 13.8306 12.9678C14.1454 12.9596 14.4441 12.8269 14.661 12.5988C14.878 12.3707 14.9955 12.0659 14.9877 11.7513C14.963 11.2178 14.8591 10.691 14.6793 10.188Z" fill="url(#paint20_linear)"/>
<path style="mix-blend-mode:multiply" opacity="0.35" d="M13.8306 12.2141C13.6063 12.2113 13.3876 12.1432 13.2013 12.0181C13.0151 11.893 12.8694 11.7163 12.7821 11.5097C12.7485 11.5413 12.7216 11.5794 12.7032 11.6217C12.6847 11.6639 12.675 11.7095 12.6746 11.7556C12.6668 12.0704 12.7845 12.3754 13.0017 12.6035C13.2188 12.8316 13.5178 12.9642 13.8328 12.9721C14.1476 12.9639 14.4463 12.8312 14.6632 12.6031C14.8802 12.375 14.9977 12.0702 14.9899 11.7556C14.9884 11.6014 14.9762 11.4475 14.9534 11.295C14.8971 11.5521 14.7556 11.7827 14.5518 11.9495C14.3481 12.1163 14.094 12.2095 13.8306 12.2141V12.2141Z" fill="url(#paint21_linear)"/>
<path d="M15.3713 12.5426H12.4382C12.3368 12.5426 12.2545 12.6248 12.2545 12.7262V13.7269C12.2545 13.8283 12.3368 13.9105 12.4382 13.9105H15.3713C15.4727 13.9105 15.555 13.8283 15.555 13.7269V12.7262C15.555 12.6248 15.4727 12.5426 15.3713 12.5426Z" fill="url(#paint22_linear)"/>
<path d="M19.4324 26.6839C18.4397 26.6839 17.635 25.8368 17.635 24.7932V23.1966C17.628 22.915 17.7332 22.6422 17.9274 22.4381C18.1216 22.234 18.3889 22.1152 18.6707 22.1079H20.1952C20.4769 22.1152 20.7443 22.234 20.9384 22.4381C21.1326 22.6422 21.2378 22.915 21.2309 23.1966V24.7932C21.2309 25.8368 20.4262 26.6839 19.4324 26.6839Z" fill="url(#paint23_linear)"/>
<g style="mix-blend-mode:multiply" opacity="0.4">
<path style="mix-blend-mode:multiply" opacity="0.4" d="M19.5603 31.4295C17.7779 33.6638 15.41 33.3621 15.41 33.3621C15.41 33.3621 16.2995 33.142 17.3535 31.7655C16.4188 32.5901 15.4196 32.5783 15.0672 32.9165L15.2499 33.1559L15.2434 33.1774C15.2434 33.1774 14.8846 34.0578 14.5902 34.9833C16.3651 34.5088 18.9414 33.0164 19.5603 31.4295Z" fill="url(#paint24_linear)"/>
</g>
<path style="mix-blend-mode:multiply" opacity="0.4" d="M17.3513 52.0321C17.6822 51.3879 20.7055 49.6217 20.7055 49.6217C20.7055 49.6217 18.1399 50.1961 16.6487 52.0589C16.2152 52.6175 15.6989 53.1066 15.1177 53.5095C15.0833 53.6458 15.0425 53.7832 14.9974 53.9185C15.9536 53.3065 17.1289 52.468 17.3513 52.0321Z" fill="url(#paint25_linear)"/>
<path d="M35.6028 55.0448C35.6028 52.0675 37.8976 49.655 40.7286 49.655C43.5596 49.655 45.8544 52.0675 45.8544 55.0448C45.8544 55.4184 45.8544 55.7674 45.8415 56.0981H48.9497L44.9874 47.1866H36.4698L32.5075 56.0981H35.6146C35.6071 55.7674 35.6028 55.4184 35.6028 55.0448Z" fill="#727CDB"/>
<g style="mix-blend-mode:multiply" opacity="0.46">
<path d="M45.3333 47.9629L44.9874 47.1834H36.4698L36.1227 47.9629H45.3333Z" fill="#727CDB"/>
</g>
<path d="M45.4687 45.8252H35.9874V47.3853H45.4687V45.8252Z" fill="#727CDB"/>
<path d="M39.4931 40.4301H41.963L43.003 46.0281H44.592L42.7817 39.0375H38.6755L36.8641 46.0281H38.4541L39.4931 40.4301Z" fill="#727CDB"/>
<g style="mix-blend-mode:multiply" opacity="0.46">
<path d="M42.8967 39.4831L42.7817 39.0375H38.6755L38.5594 39.4831H42.8967Z" fill="#727CDB"/>
</g>
<path d="M40.6072 26.8804H40.8489L41.8599 38.4502H42.7516L41.5698 16.6687H39.8874L38.7045 38.4502H39.5973L40.6072 26.8804Z" fill="#727CDB"/>
<path d="M40.9317 10.4833H40.5256V14.6169H40.9317V10.4833Z" fill="#727CDB"/>
<path d="M43.2813 38.4502H38.1748V39.1395H43.2813V38.4502Z" fill="#727CDB"/>
<path d="M41.6096 16.6687H39.8465L39.4705 15.726H41.9856L41.6096 16.6687Z" fill="#727CDB"/>
<path d="M39.8465 14.3281H41.6096L41.9856 15.2708H39.4705L39.8465 14.3281Z" fill="#727CDB"/>
<path d="M48.4608 56.2935C49.5825 55.3594 50.8126 54.4908 51.9643 53.5706C53.0097 52.7364 54.0486 51.8195 55.2154 51.23C57.1428 50.2637 58.6727 50.5193 60.2273 50.501C60.7096 50.5155 61.1857 50.3902 61.5982 50.1403C61.8942 49.9414 62.1583 49.6989 62.3815 49.4209C63.1937 48.475 63.82 47.4776 64.859 46.6079C66.2245 45.4634 68.1347 44.816 69.049 45.1874C69.9461 45.5503 69.8483 46.6723 69.6517 47.7385C69.4551 48.8046 69.2123 49.962 69.901 50.5085C70.5016 50.9852 71.7446 50.8908 73.0489 50.4613C73.9825 50.1542 74.9828 49.6818 75.8283 49.568C77.4979 49.3436 77.8804 50.6148 77.4936 51.9881C77.2024 53.0188 76.6008 54.1354 76.2043 55.2005C76.0669 55.5996 75.8568 55.9698 75.5844 56.2924L48.4608 56.2935Z" fill="#FFD130"/>
<path d="M55.8944 50.9337C56.4015 51.4764 56.9544 51.9747 57.5468 52.4229C58.1886 52.9182 58.8859 53.3373 59.6246 53.6716C59.4323 52.789 59.4334 51.8023 59.269 50.9047C59.2432 50.763 59.2078 50.6266 59.1766 50.4881L59.4635 50.4946C59.4817 50.5837 59.5054 50.6696 59.5226 50.7609C59.7052 51.7551 59.6805 52.8599 59.9523 53.809C61.2663 54.3458 62.8048 54.6583 64.6677 54.6518C65.0298 53.6329 65.3757 52.6183 65.6959 51.6133C64.3046 51.4781 63.5966 50.6417 62.996 49.8235C62.8427 49.6185 62.7065 49.4013 62.5888 49.174C62.6587 49.0902 62.7263 49.0065 62.794 48.9217C62.9135 49.1765 63.0575 49.4192 63.2238 49.6464C63.7943 50.4248 64.4615 51.2397 65.755 51.3975C65.827 51.1667 65.9 50.9359 65.9699 50.7061C66.1009 50.2691 66.2224 49.8364 66.3405 49.4037C66.3419 49.3953 66.3441 49.3871 66.347 49.379C66.7262 47.994 67.0625 46.6229 67.5009 45.2175C67.5814 45.1971 67.6599 45.1778 67.7383 45.1617C67.3085 46.5188 66.9862 47.8458 66.6231 49.1804C67.712 48.5542 68.7572 47.8551 69.7517 47.0878C69.7441 47.1533 69.7356 47.2188 69.727 47.2843C68.7232 48.0527 67.6683 48.7519 66.5694 49.3769C66.4265 49.9008 66.2793 50.4269 66.1149 50.9584C65.8893 51.6939 65.6465 52.4336 65.3929 53.1777H65.4112C65.6357 53.1906 66.39 52.6666 66.6381 52.5077C67.0367 52.2511 67.43 51.9805 67.8146 51.7025C68.4409 51.2483 69.049 50.7694 69.6324 50.2788L69.6668 50.2498C69.6926 50.2895 69.7209 50.3276 69.7517 50.3636C69.5905 50.4989 69.4294 50.6331 69.265 50.7673C68.5129 51.3761 67.7265 51.9623 66.91 52.4991C66.5038 52.7654 65.7335 53.3377 65.3242 53.3795C65.09 54.0602 64.8486 54.7434 64.6 55.4292C65.8546 55.138 67.0918 54.7764 68.3056 54.3458C68.7675 53.4869 69.4874 52.628 70.2308 51.7561C70.4994 51.4437 70.7745 51.1334 71.0624 50.8285C71.1312 50.8285 71.2021 50.8285 71.2773 50.8285C70.9313 51.1946 70.6026 51.5672 70.2824 51.9419C69.6206 52.7181 68.9932 53.489 68.5634 54.2567C69.6249 53.8745 70.6993 53.4386 71.7865 52.9404C72.3807 52.6666 72.9683 52.3756 73.5668 52.0729C74.0726 51.2254 74.6552 50.4261 75.3073 49.685C75.3954 49.6614 75.4835 49.6399 75.5694 49.6228C74.9329 50.3357 74.3622 51.1047 73.8644 51.9204C75.0204 51.3224 76.1721 50.6771 77.3185 50.0168C77.3481 50.0552 77.3754 50.0953 77.4001 50.1371C75.8584 51.0239 74.3081 51.8828 72.7502 52.6451C73.7816 53.2432 75.4222 53.1626 77.2304 52.7718C77.2057 52.8363 77.1788 52.9007 77.153 52.9651C75.2374 53.3817 73.5184 53.4493 72.4516 52.7869C72.2206 52.8942 71.9885 53.0102 71.7565 53.1165C71.2762 53.3377 70.797 53.5459 70.3189 53.7424C71.7103 54.757 73.7763 55.1865 76.2957 54.9847C76.2699 55.0512 76.243 55.1167 76.2194 55.1822C73.6001 55.3969 71.4653 54.9546 70.0375 53.8799C70.0309 53.8745 70.0267 53.8668 70.0256 53.8584C69.2378 54.1783 68.4596 54.4646 67.691 54.7173C68.2809 55.6621 69.5175 56.0315 70.8765 56.2892H69.7699C68.7407 56.0229 67.8715 55.6149 67.4181 54.8376C67.4149 54.8285 67.4149 54.8187 67.4181 54.8096C66.4405 55.1317 65.4767 55.398 64.5377 55.6138C64.4561 55.8393 64.3712 56.0648 64.2885 56.2892H64.0736C64.2498 55.8103 64.4271 55.3304 64.5979 54.8526C63.44 54.8719 62.2844 54.7417 61.1599 54.465C59.5224 55.255 57.8046 55.867 56.0362 56.2902H55.3035C57.1117 55.879 58.9854 55.3443 60.9418 54.4092C59.705 54.0716 58.5425 53.5053 57.5146 52.7396C57.5095 52.7424 57.5041 52.7446 57.4984 52.7461C55.6118 53.1755 53.8638 53.3623 52.2856 53.3215L52.5327 53.1218C54.1432 53.135 55.7499 52.9632 57.3212 52.6097C56.7021 52.1443 56.1268 51.6236 55.6022 51.054C55.7032 51.0089 55.7988 50.9691 55.8944 50.9337Z" fill="white"/>
<path d="M67.9242 56.2935C67.5686 55.5022 67.0808 54.7656 66.6897 53.9851C66.3363 53.2786 66.0397 52.5013 65.4263 52.002C64.4131 51.1774 62.9498 51.3997 61.6434 51.3836C61.3071 51.3836 60.93 51.3374 60.7141 51.0787C60.5872 50.9 60.5162 50.6878 60.5099 50.4688C60.424 49.6679 60.5293 48.8218 60.2037 48.0842C59.774 47.1179 58.5696 46.566 57.5565 46.8806C56.5638 47.1888 55.931 48.139 55.4185 49.043C54.906 49.947 54.372 50.9284 53.4406 51.39C52.6273 51.7948 51.6345 51.7121 50.8019 51.3503C50.2078 51.0905 49.6588 50.69 49.0163 50.5987C47.7432 50.4087 46.6086 51.4867 46.0618 52.6505C45.6503 53.5245 45.4451 54.4758 45.1013 55.3733C44.9584 55.7459 44.9014 56.039 44.9294 56.2988L67.9242 56.2935Z" fill="url(#paint26_linear)"/>
<path opacity="0.77" d="M65.0448 51.7508C64.282 52.2082 63.4935 52.6247 62.6941 53.0134C61.8652 53.4211 61.0107 53.7747 60.136 54.0721C60.8623 53.3205 61.4897 52.4884 62.2021 51.7272C62.3149 51.6069 62.4309 51.4909 62.5459 51.3739H62.2998C62.2268 51.4491 62.1516 51.5221 62.0796 51.5994C61.291 52.4422 60.6066 53.3785 59.7761 54.1826C58.3106 54.6539 56.7807 54.8951 55.2412 54.8977C55.5839 54.0334 55.9374 53.1745 56.308 52.3209C57.5726 52.2071 58.706 51.4974 59.7374 50.8038C59.9964 50.6299 60.2488 50.4463 60.4895 50.253C60.4841 50.1821 60.4798 50.1113 60.4766 50.0383C60.2112 50.253 59.9341 50.4602 59.6483 50.6535C58.6684 51.3127 57.5833 52.0031 56.3865 52.1373C56.4724 51.9419 56.5573 51.7454 56.6454 51.5511C56.8119 51.1807 56.986 50.8135 57.1611 50.4473C57.1652 50.441 57.1684 50.4341 57.1708 50.4269C57.7337 49.2524 58.3236 48.0896 58.8468 46.8989C58.7931 46.8817 58.7393 46.8656 58.6813 46.8516C58.1764 48.0015 57.607 49.1257 57.0698 50.2584C56.5494 49.732 56.1059 49.1349 55.7526 48.4847C55.7171 48.5394 55.6828 48.592 55.6452 48.6511C56.0067 49.3022 56.4585 49.8989 56.987 50.4237C56.7722 50.8693 56.5627 51.3149 56.3628 51.7647C56.0856 52.3882 55.8181 53.0152 55.5603 53.6458C55.5549 53.6458 55.5517 53.6458 55.5463 53.6458C55.3476 53.6565 55.0424 53.2163 54.9339 53.0778C54.7596 52.8598 54.5982 52.6318 54.4505 52.395C54.2095 52.009 53.9976 51.6056 53.8166 51.1882C53.8166 51.1796 53.8091 51.171 53.8058 51.1635C53.7586 51.1964 53.7102 51.2286 53.6608 51.2601C53.7113 51.375 53.7618 51.4888 53.8166 51.6015C54.0623 52.1208 54.3615 52.6131 54.7094 53.0703C54.8834 53.2958 55.1714 53.7811 55.4915 53.8219C55.2552 54.3988 55.0238 54.9779 54.7975 55.5591C53.9552 55.3255 53.1352 55.0183 52.3468 54.6411C52.5026 53.9142 52.4478 53.1798 52.3672 52.4454C52.3382 52.1802 52.3028 51.9183 52.2544 51.6595C52.1953 51.6595 52.1363 51.6595 52.0772 51.6595C52.1373 51.9709 52.1782 52.2855 52.2104 52.6043C52.277 53.2614 52.3178 53.9153 52.1867 54.5659C51.5291 54.243 50.8973 53.8701 50.2969 53.4504C49.9682 53.2185 49.6523 52.9715 49.3407 52.7149C49.4512 52.0455 49.4675 51.3639 49.3891 50.69C49.3289 50.6707 49.2677 50.6524 49.2064 50.6374C49.2904 51.2847 49.2835 51.9406 49.186 52.5861C48.5876 52.0782 48.0236 51.5317 47.467 50.9756C47.4187 51.0067 47.3703 51.0422 47.322 51.0765C48.0542 51.8371 48.8367 52.5476 49.6641 53.2035C48.4093 53.7102 47.0684 53.6415 45.7856 53.3108C45.7663 53.3645 45.748 53.4182 45.7287 53.474C47.0867 53.8273 48.5006 53.8852 49.8263 53.3237C49.9521 53.4182 50.0767 53.5127 50.2056 53.6029C50.472 53.7908 50.7428 53.9647 51.0253 54.1333C49.2 54.9946 47.1792 55.358 45.1679 55.1865C45.1475 55.2424 45.1281 55.2939 45.1066 55.354C47.1926 55.5387 49.2897 55.1574 51.1768 54.2503C51.1857 54.2456 51.1937 54.2394 51.2005 54.232C51.6633 54.5016 52.1403 54.746 52.6294 54.9643C51.5271 55.7642 50.2464 56.0777 48.9271 56.2956H49.865C50.9082 56.0691 51.9063 55.7244 52.7841 55.0652C52.7929 55.059 52.8002 55.0509 52.8056 55.0416C53.4324 55.3118 54.0767 55.5396 54.7341 55.7234C54.66 55.9145 54.588 56.1056 54.5192 56.2956H54.704C54.8609 55.8898 55.0166 55.4829 55.1767 55.0781C56.2402 55.0844 57.3012 54.9742 58.3408 54.7495C59.2894 55.485 60.3821 55.9467 61.5198 56.2956H62.1408C60.872 55.9467 59.6246 55.4936 58.5621 54.7012C59.933 54.3766 61.2639 53.9021 62.5308 53.2861L62.5405 53.2915C63.8602 53.6515 65.2255 53.8161 66.593 53.78L66.5103 53.6093C65.2505 53.6339 63.9933 53.4861 62.7736 53.1702C63.6052 52.7654 64.426 52.3306 65.2189 51.8517C65.1587 51.8141 65.1018 51.7808 65.0448 51.7508Z" fill="white"/>
</g>
<g clip-path="url(#clip1)">
<path d="M41.3006 53.8756H21.7173C21.7173 53.0606 22.0402 52.279 22.6151 51.7027C23.19 51.1265 23.9697 50.8027 24.7827 50.8027H39.6255C40.0695 50.8027 40.4955 50.9795 40.8096 51.2942C41.1237 51.6088 41.3003 52.0357 41.3006 52.4809V53.8756Z" fill="#5D3423"/>
<path d="M22.3671 51.9857H41.2259C41.2174 51.9557 41.2056 51.9279 41.195 51.899H22.4364C22.4119 51.9279 22.3895 51.9568 22.3671 51.9857Z" fill="#FECA48"/>
<path d="M62.3799 77.8716H51.0859C50.9807 77.8716 50.8766 77.8508 50.7794 77.8104C50.6822 77.77 50.594 77.7109 50.5196 77.6363C50.4453 77.5617 50.3864 77.4731 50.3463 77.3757C50.3061 77.2782 50.2855 77.1738 50.2856 77.0683V70.2573H63.1801V77.0683C63.1802 77.1738 63.1596 77.2782 63.1195 77.3757C63.0793 77.4731 63.0204 77.5617 62.9461 77.6363C62.8718 77.7109 62.7835 77.77 62.6863 77.8104C62.5892 77.8508 62.485 77.8716 62.3799 77.8716V77.8716Z" fill="#180C30"/>
<path d="M12.6363 76.9004L21.3865 77.0159L24.4808 73.1719L19.9472 67.4218L12.8667 67.0763L11.5426 70.6691L12.6363 76.9004Z" fill="#180C30"/>
<path d="M12.6362 76.9004H2.88085C2.65937 76.9001 2.44703 76.8118 2.29042 76.6548C2.1338 76.4978 2.04569 76.285 2.04541 76.0629V69.0529L2.39965 65.5308C2.71769 62.3575 3.51343 59.2508 4.7598 56.3164L5.47681 54.6307C5.57131 54.4088 5.72095 54.2148 5.91147 54.0672C6.10198 53.9197 6.32702 53.8235 6.56513 53.7879L11.7581 53.0114C12.9167 52.8373 14.0863 52.7483 15.2578 52.7451L77.9961 52.5547C78.5992 52.553 79.1817 52.774 79.6326 53.1755C80.0835 53.5769 80.3711 54.1308 80.4406 54.7313L80.909 58.7957C81.0617 60.115 81.1383 61.442 81.1384 62.7702V75.3057C81.1384 75.5747 81.0361 75.8337 80.8523 76.0298C80.6686 76.2259 80.4172 76.3445 80.1493 76.3613L73.0496 76.8095C72.0331 76.8737 71.0152 76.9058 69.9959 76.9058H61.4249C61.4249 76.9058 61.9424 71.1054 57.4525 71.1054C52.9627 71.1054 52.4153 74.5965 52.6746 77.0202H21.3865C21.3865 77.0202 21.9904 71.0477 17.0973 71.0477C12.2041 71.0477 12.6074 76.2662 12.6362 76.9004Z" fill="#D5A490"/>
<path d="M11.2684 57.9304V68.8133C11.2682 69.0441 11.2108 69.2712 11.1013 69.4742C10.9918 69.6771 10.8336 69.8496 10.641 69.976C9.98705 70.4023 9.25021 70.6845 8.47928 70.8038L3.84113 71.5343L3.91901 66.4314C3.96841 63.264 4.56329 60.1289 5.67739 57.1646L10.419 57.0918C10.53 57.09 10.6402 57.1103 10.7433 57.1516C10.8463 57.193 10.9401 57.2545 11.0192 57.3325C11.0982 57.4106 11.161 57.5037 11.2038 57.6063C11.2466 57.709 11.2685 57.8191 11.2684 57.9304V57.9304Z" fill="#3B1562"/>
<path d="M6.49147 55.219L6.27808 55.8233L11.0645 55.7067C11.541 55.6947 12.006 55.8543 12.3752 56.1565C12.7444 56.4587 12.9933 56.8835 13.0769 57.3539L14.1172 63.182C14.1634 63.442 14.3049 63.6752 14.5141 63.8357C14.7232 63.9963 14.9847 64.0725 15.2471 64.0494L22.5964 63.4077C23.6471 63.3157 24.7005 63.2697 25.7568 63.2697H78.9777V62.9531C78.9795 59.8945 78.6141 56.8467 77.8894 53.8756H15.4914C12.6828 53.8753 9.88044 54.1421 7.12206 54.6724C6.97825 54.6998 6.8442 54.7648 6.73347 54.8607C6.62274 54.9567 6.53926 55.0803 6.49147 55.219Z" fill="url(#paint27_linear)"/>
<path d="M77.501 54.8275H65.1091V62.6183H77.501V54.8275Z" fill="#C6B9E5"/>
<path d="M63.5545 54.8275H51.1627V62.6183H63.5545V54.8275Z" fill="#C6B9E5"/>
<path d="M49.6092 54.8275H37.2173V62.6183H49.6092V54.8275Z" fill="#C6B9E5"/>
<path d="M35.6637 54.8275H23.2719V62.6183H35.6637V54.8275Z" fill="#C6B9E5"/>
<path d="M21.7172 62.6183H14.7659L13.9998 56.8565C13.9655 56.6032 13.9857 56.3455 14.0591 56.1007C14.1324 55.8559 14.2571 55.6296 14.4249 55.4371C14.5927 55.2446 14.7996 55.0904 15.0318 54.9847C15.2639 54.879 15.516 54.8243 15.771 54.8243H21.7172V62.6183Z" fill="#C6B9E5"/>
<path d="M77.501 54.8275H65.1091V55.896H77.501V54.8275Z" fill="#D3CAE7"/>
<path d="M63.5545 54.8275H51.1627V55.896H63.5545V54.8275Z" fill="#D3CAE7"/>
<path d="M49.6092 54.8275H37.2173V55.896H49.6092V54.8275Z" fill="#D3CAE7"/>
<path d="M35.6637 54.8275H23.2719V55.896H35.6637V54.8275Z" fill="#D3CAE7"/>
<path d="M21.7172 54.8275V55.8971H17.954C17.1338 55.8975 16.3342 56.154 15.6661 56.6309C14.998 57.1078 14.4946 57.7814 14.226 58.5582L13.9987 56.8554C13.9646 56.6021 13.985 56.3444 14.0584 56.0995C14.1319 55.8547 14.2567 55.6285 14.4246 55.436C14.5924 55.2436 14.7994 55.0893 15.0316 54.9836C15.2639 54.8779 15.5159 54.8232 15.771 54.8232L21.7172 54.8275Z" fill="#D3CAE7"/>
<path d="M78.9702 76.4319V63.2676H78.8849V76.4373L78.9702 76.4319Z" fill="#5D3423"/>
<path d="M72.0338 69.3706L75.5751 65.9073H81.1416V65.8207H75.5399L71.9986 69.2839H11.1072V76.9004H11.1937V69.3706H72.0338Z" fill="#5D3423"/>
<path d="M24.5235 69.2829H24.437V77.0159H24.5235V69.2829Z" fill="#5D3423"/>
<path d="M37.6494 69.2979H37.563V77.0159H37.6494V69.2979Z" fill="#5D3423"/>
<path d="M50.7743 69.3267H50.6879V77.0159H50.7743V69.3267Z" fill="#5D3423"/>
<path d="M63.9003 69.3053H63.8138V76.9015H63.9003V69.3053Z" fill="#5D3423"/>
<path d="M71.3809 76.8801H71.4673V69.3289H71.3809V76.8801Z" fill="#5D3423"/>
<path d="M3.95099 71.4958H3.86456V76.9004H3.95099V71.4958Z" fill="#180C30"/>
<path d="M3.90728 73.4553H2.04327V73.5419H3.90728V73.4553Z" fill="#180C30"/>
<path d="M13.3298 75.3313C13.3298 74.6057 13.5444 73.8964 13.9465 73.2931C14.3487 72.6898 14.9203 72.2196 15.589 71.9419C16.2577 71.6643 16.9936 71.5916 17.7035 71.7332C18.4134 71.8747 19.0655 72.2241 19.5773 72.7372C20.0892 73.2503 20.4377 73.904 20.5789 74.6156C20.7201 75.3273 20.6477 76.0649 20.3707 76.7353C20.0937 77.4056 19.6246 77.9786 19.0227 78.3817C18.4209 78.7848 17.7133 79 16.9895 79C16.0189 79 15.088 78.6135 14.4017 77.9255C13.7154 77.2375 13.3298 76.3043 13.3298 75.3313V75.3313Z" fill="#493769"/>
<path d="M19.4824 75.7858C19.732 74.4059 18.8186 73.0845 17.4421 72.8342C16.0656 72.5839 14.7473 73.4996 14.4977 74.8795C14.248 76.2593 15.1615 77.5808 16.538 77.831C17.9145 78.0813 19.2327 77.1656 19.4824 75.7858Z" fill="#C6B9E5"/>
<path d="M16.9895 75.756C16.5203 75.7564 16.0577 75.6446 15.6402 75.4299C15.2227 75.2153 14.8623 74.9039 14.5888 74.5217C14.758 74.0178 15.0807 73.5798 15.5114 73.2696C15.9421 72.9593 16.4591 72.7924 16.9895 72.7924C17.5199 72.7924 18.0369 72.9593 18.4676 73.2696C18.8983 73.5798 19.221 74.0178 19.3902 74.5217C19.1167 74.9039 18.7563 75.2153 18.3388 75.4299C17.9213 75.6446 17.4587 75.7564 16.9895 75.756V75.756Z" fill="#D3CAE7"/>
<path d="M53.3638 75.3313C53.3638 74.6057 53.5785 73.8964 53.9806 73.2931C54.3827 72.6898 54.9543 72.2196 55.623 71.9419C56.2918 71.6643 57.0276 71.5916 57.7375 71.7332C58.4475 71.8747 59.0996 72.2241 59.6114 72.7372C60.1232 73.2503 60.4718 73.904 60.613 74.6156C60.7542 75.3273 60.6817 76.0649 60.4047 76.7353C60.1277 77.4056 59.6586 77.9786 59.0568 78.3817C58.455 78.7848 57.7474 79 57.0236 79C56.0529 79 55.1221 78.6135 54.4357 77.9255C53.7494 77.2375 53.3638 76.3043 53.3638 75.3313V75.3313Z" fill="#493769"/>
<path d="M58.8144 77.1262C59.8036 76.1346 59.8036 74.5269 58.8144 73.5353C57.8252 72.5437 56.2213 72.5437 55.2321 73.5353C54.2429 74.5269 54.2429 76.1346 55.2321 77.1262C56.2213 78.1179 57.8252 78.1179 58.8144 77.1262Z" fill="#C6B9E5"/>
<path d="M57.0235 75.756C56.5542 75.7563 56.0915 75.6445 55.6738 75.4298C55.2562 75.2152 54.8955 74.9039 54.6218 74.5217C54.7915 74.0183 55.1144 73.5809 55.545 73.2711C55.9757 72.9613 56.4924 72.7947 57.0225 72.7947C57.5526 72.7947 58.0693 72.9613 58.4999 73.2711C58.9306 73.5809 59.2535 74.0183 59.4232 74.5217C59.1498 74.9038 58.7896 75.215 58.3723 75.4297C57.9549 75.6443 57.4926 75.7562 57.0235 75.756V75.756Z" fill="#D3CAE7"/>
<path d="M31.7394 73.774H30.379V74.6885H31.7394V73.774Z" fill="#180C30"/>
<path d="M31.5826 73.3954H30.5359V73.774H31.5826V73.3954Z" fill="#5D3423"/>
<path d="M44.8494 73.774H43.489V74.6885H44.8494V73.774Z" fill="#180C30"/>
<path d="M44.6914 73.3954H43.6447V73.774H44.6914V73.3954Z" fill="#5D3423"/>
<path d="M68.4872 73.774H67.1268V74.6885H68.4872V73.774Z" fill="#180C30"/>
<path d="M68.3303 73.3954H67.2836V73.774H68.3303V73.3954Z" fill="#5D3423"/>
<path d="M10.7296 59.8342V67.0763H4.4472L4.52189 65.2987C4.60087 63.4354 4.95394 61.5941 5.56967 59.8342H10.7296Z" fill="#C6B9E5"/>
<path d="M5.78514 55.665V57.1646H4.41408L3.69813 56.833H1.02215V57.3239H0.215515V55.665H5.78514Z" fill="#635088"/>
<path d="M0.834377 62.3445H0V57.3271H0.807703C0.894959 57.3271 0.978657 57.3618 1.04046 57.4236C1.10226 57.4853 1.13712 57.5691 1.1374 57.6566V62.0418C1.13684 62.1221 1.1047 62.199 1.04796 62.2556C0.991225 62.3123 0.914473 62.3442 0.834377 62.3445V62.3445Z" fill="#635088"/>
<g clip-path="url(#clip2)">
<path d="M40.065 55.5617C40.1988 57.0873 40.3422 58.4787 40.4317 59.8732C40.4629 60.3415 40.6188 60.4826 41.0866 60.5214C43.2048 60.6968 45.3189 60.9188 47.4343 61.1259C47.5466 61.1368 47.657 61.1615 47.9021 61.2017C47.4926 61.4062 47.1998 61.5546 46.9042 61.7013C45.4821 62.402 44.0628 63.1083 42.6344 63.7961C42.3553 63.9307 42.2352 64.0643 42.2814 64.4044C42.3325 64.7828 42.3553 65.2031 42.2433 65.5597C41.8903 66.6769 42.0721 67.799 42.1064 68.9225C42.1173 69.275 42.1083 69.6281 42.1083 70.0291C41.9764 69.9613 41.8451 69.9023 41.7222 69.8299C40.5886 69.1613 39.45 68.5013 38.3279 67.8147C37.9948 67.6108 37.73 67.577 37.3589 67.7594C35.6218 68.614 33.866 69.4299 31.9948 70.3176C32.8085 68.5312 33.5716 66.857 34.3494 65.1497L30.1009 61.5483C31.4924 61.4215 32.7449 61.3038 33.9992 61.1949C34.6204 61.1408 35.2482 61.1196 35.7768 60.7224C36.0004 60.5541 36.2577 60.4077 36.4274 60.1935C37.537 58.7919 38.6291 57.3727 39.7285 55.9623C39.8099 55.8581 39.8984 55.7594 40.065 55.5617ZM36.3497 64.8143C35.1958 64.1511 34.5917 64.0818 34.2412 64.5246L34.8337 65.0538L32.6538 69.6569C34.3232 68.8335 35.866 68.0804 37.3976 67.3095C37.6686 67.1733 37.8791 67.1655 38.1401 67.331C38.6285 67.6407 39.14 67.9143 39.6418 68.2028L39.7138 68.1263L39.3396 67.4016L38.8484 67.6064C38.8356 67.5752 38.8228 67.5458 38.8097 67.5155L39.2248 67.1312L38.0812 65.8198L37.2675 66.2425L37.2089 66.1386L37.8906 65.6427C37.4085 65.3558 37.0149 65.0367 36.5658 64.8955C36.3875 64.8396 36.0859 65.1803 35.838 65.3358C35.8236 65.3445 35.784 65.313 35.5972 65.2274L36.3497 64.8143ZM36.8144 60.3493C39.561 60.1479 40.8933 60.9775 42.2199 63.6656L46.5215 61.5174C46.5103 61.4862 46.499 61.455 46.4875 61.4237L40.1236 60.8305C39.9948 59.4466 39.8697 58.1021 39.7322 56.6262L36.8144 60.3493ZM37.6252 60.7774C37.6739 60.7439 37.7224 60.7104 37.7709 60.6769C37.9137 60.9182 38.0556 61.1599 38.1994 61.4006C38.2618 61.5068 38.3051 61.6663 38.398 61.7066C38.9167 61.9324 39.4478 62.1288 39.9886 62.3414C40.0247 62.11 40.0628 61.8674 40.1008 61.6248L40.2387 61.6423C40.2387 61.849 40.234 62.0557 40.2405 62.2621C40.2449 62.4079 40.214 62.5884 40.2861 62.6933C40.5923 63.1404 40.9313 63.5651 41.2822 64.0294C41.3411 63.7206 41.3973 63.4274 41.4531 63.1339L41.5635 63.1479V63.9329L41.7288 63.9641C41.7618 63.8142 41.8591 63.6434 41.8183 63.5182C41.1634 61.5246 39.1634 60.162 36.7115 60.6797C36.2749 60.7715 35.9792 61.3719 36.1336 61.7154L38.0743 61.5783L37.6252 60.7774ZM33.1572 63.6344L34.4171 61.5299L30.9816 61.8231C31.785 62.4935 32.4876 63.0774 33.1572 63.6344ZM34.1929 62.6999C34.166 62.6449 34.1389 62.5896 34.1118 62.5347C34.5132 62.3548 34.9198 62.1859 35.3137 61.9904C35.5008 61.8968 35.8264 61.716 35.8086 61.6423C35.7113 61.2364 35.3751 61.4952 35.1381 61.4818C35.0346 61.4762 34.9073 61.5396 34.8228 61.6101C34.1679 62.1525 33.6986 62.8304 33.5171 63.6591C33.4812 63.8236 33.7525 64.0734 33.9159 64.2523C33.9612 64.302 34.1296 64.2386 34.2412 64.227L34.2337 64.1215L33.6873 63.9014C34.8284 63.7259 34.8284 63.7259 35.0652 63.2457L33.8991 63.4895C33.8874 63.4333 33.876 63.3771 33.8648 63.3209C34.2303 63.2329 34.5939 63.1361 34.9616 63.0592C35.4728 62.9528 35.7035 62.6643 35.7116 62.0417L34.1929 62.6999ZM39.4977 64.4044L40.2752 66.0783C41.3371 64.9567 41.2918 63.7443 40.161 62.964L39.4977 64.4044ZM40.5247 67.9661L40.317 67.9524C40.2546 67.5686 40.1922 67.1849 40.1199 66.7324L39.488 67.2673C39.6305 67.5577 39.8429 67.8062 39.8623 68.0694C39.9093 68.6721 40.1741 68.436 40.4196 68.2546C41.5794 67.3994 41.9068 66.1592 41.3997 64.484C41.4013 64.8384 41.4621 65.1928 41.4496 65.5456C41.4346 65.916 41.3795 66.2837 41.2853 66.6422C41.2033 66.9651 41.0423 67.2707 40.9154 67.583L40.7667 67.5302C41.0882 66.7765 41.3505 66.0133 41.2207 65.1822C40.5427 65.9906 40.1167 66.8598 40.5247 67.9661ZM37.8464 63.1492L39.3009 64.1543C40.2 63.0302 40.0494 62.49 38.6953 62.0457C38.5571 62.0004 38.4124 61.9748 38.2786 61.9417C38.1277 62.3651 37.9867 62.7579 37.8464 63.1492ZM37.7528 63.3459L36.7396 64.6033L38.064 65.5344L39.2672 64.445L37.7528 63.3459ZM38.0266 61.9224C36.6529 61.593 36.0931 61.8481 35.7113 62.9215C36.1283 62.9509 36.5493 62.964 36.966 63.0152C37.7013 63.1033 37.7107 63.1089 37.9243 62.3907C37.9658 62.2484 37.9876 62.1004 38.026 61.9221L38.0266 61.9224ZM38.2926 65.7361L39.4515 67.1371C39.6536 66.8089 40.0182 66.4858 39.9764 66.2294C39.8881 65.6877 39.5872 65.1809 39.3455 64.5914L38.2926 65.7361ZM34.8787 63.9092C35.3636 64.0856 35.8454 64.2676 36.3351 64.4331C36.4133 64.4596 36.5534 64.4472 36.6017 64.3947C36.8949 64.0715 37.1693 63.7318 37.4749 63.3693C36.137 62.9053 35.4562 63.0633 34.8787 63.9092ZM41.6305 67.5624L40.4015 68.6402L41.7144 69.3858C41.6814 68.6649 41.6524 68.0382 41.6305 67.5611V67.5624Z" fill="white"/>
<path d="M45.2216 67.0136L46.2424 64.7139H47.1514L46.9207 66.1474L47.9617 64.7133H48.8708L47.8503 67.013H47.1739L47.4858 66.3104L47.6548 65.9526L47.8778 65.5373H47.8712L46.7969 67.013H46.2745L46.5131 65.5373H46.5065L46.3874 65.8761L46.2436 66.2336L45.8981 67.0142L45.2216 67.0136Z" fill="white"/>
<path d="M48.2841 67.0128L49.3045 64.7132H51.1757L50.9365 65.2499H49.8169L49.6713 65.5787H50.6215L50.3839 66.1154H49.4365L49.2762 66.4764H50.4407L50.2012 67.0128H48.2841Z" fill="white"/>
<path d="M52.7865 67.0209H52.3016L52.3721 66.7939C52.2612 66.8789 52.1386 66.9473 52.0081 66.9969C51.8637 67.0506 51.7106 67.0771 51.5565 67.075C51.4369 67.0771 51.3178 67.0581 51.2047 67.0191C51.1076 66.9857 51.0209 66.9273 50.9534 66.8498C50.8862 66.7689 50.8439 66.6702 50.8318 66.5657C50.8168 66.4332 50.8288 66.2991 50.867 66.1713C50.8932 66.0763 50.9265 65.9834 50.9668 65.8934C51.0461 65.7131 51.1487 65.5439 51.2721 65.3904C51.3917 65.241 51.5313 65.1089 51.6869 64.9976C51.8381 64.8884 52.0045 64.8021 52.1809 64.7416C52.354 64.6825 52.5356 64.6524 52.7185 64.6523C53.0032 64.6523 53.2111 64.7251 53.3423 64.8709C53.4735 65.0166 53.5019 65.2279 53.4277 65.5047H52.7132C52.7438 65.3111 52.658 65.2142 52.4559 65.214C52.3104 65.214 52.1747 65.2742 52.049 65.3945C51.9232 65.5148 51.8137 65.6793 51.7206 65.8881C51.6907 65.9553 51.6657 66.0246 51.646 66.0955C51.6117 66.2235 51.6148 66.3243 51.6557 66.399C51.6966 66.4736 51.7867 66.5107 51.927 66.5107C52.0223 66.5069 52.1154 66.4813 52.1993 66.4358C52.2909 66.3933 52.37 66.3278 52.4288 66.2456H52.097L52.3197 65.7461H53.3488L52.7865 67.0209Z" fill="white"/>
<path d="M53.0369 67.0128L54.8807 64.7132H55.6463L55.4486 67.0128H54.7001L54.7463 66.7093H53.9978L53.776 67.0128H53.0369ZM54.9502 65.4064L54.3502 66.2304H54.8255L54.9502 65.4064Z" fill="white"/>
<path d="M62.7229 67.5614H61.4598L61.3048 67.9102H62.5679L62.7229 67.5614Z" fill="white"/>
<path d="M58.0277 67.4053C58.0124 67.3437 58.0134 67.2791 58.0305 67.218H56.8208C56.8009 67.2669 56.7839 67.3169 56.77 67.3678C56.7665 67.381 56.7637 67.3938 56.7606 67.4066L58.0277 67.4053Z" fill="white"/>
<path d="M62.9471 67.0565H61.684L61.5291 67.4053H62.7924L62.9471 67.0565Z" fill="white"/>
<path d="M71.2808 67.7472C71.2982 67.7079 71.3172 67.6632 71.3378 67.6133L71.3612 67.5614H70.1487C70.129 67.6117 70.1047 67.6682 70.0751 67.731C70.0455 67.7937 70.023 67.8537 70.0002 67.9099H71.2093C71.2299 67.8618 71.2536 67.8078 71.2808 67.7472Z" fill="white"/>
<path d="M69.0908 67.5614H67.8287L67.674 67.9102H68.9364L69.0908 67.5614Z" fill="white"/>
<path d="M58.9795 67.0934C59.0739 67.14 59.1093 67.2079 59.0856 67.297L59.0812 67.3129C59.0761 67.3193 59.0723 67.3266 59.07 67.3344C59.0591 67.3598 59.045 67.3836 59.0279 67.4053H60.2323C60.2753 67.3322 60.3139 67.2566 60.348 67.1789C60.3676 67.1371 60.3842 67.0962 60.3985 67.0565H58.895C58.9268 67.0693 58.9546 67.0815 58.9795 67.0934Z" fill="white"/>
<path d="M67.3091 67.9102L67.339 67.5614H63.897L63.6176 67.9102H64.8185L64.8279 67.8971H66.086L66.0838 67.9102H67.3091Z" fill="white"/>
<path d="M65.5637 66.9004L66.43 65.7108L66.2501 66.9004H67.3959L67.598 64.5477H66.3131L64.4269 66.9004H65.5637Z" fill="white"/>
<path d="M60.13 67.5614H58.7924C58.6731 67.6015 58.5478 67.6208 58.4219 67.6186C58.3315 67.6222 58.2416 67.6025 58.1609 67.5614H56.7357C56.7284 67.646 56.7338 67.7311 56.7519 67.814C56.7592 67.8466 56.7687 67.8786 56.7803 67.9099H59.8054C59.9274 67.8074 60.0364 67.6904 60.13 67.5614Z" fill="white"/>
<path d="M67.8989 67.4053H69.161L69.3132 67.0618H69.6986C69.9236 67.0618 70.0714 67.0895 70.1421 67.1449C70.2082 67.1967 70.2275 67.2837 70.1998 67.4059H71.4264C71.451 67.341 71.4703 67.281 71.485 67.228C71.4998 67.1719 71.5102 67.1148 71.5162 67.0572H68.0526L67.8989 67.4053Z" fill="white"/>
<path d="M66.0601 68.0663L66.0084 68.4063H67.2664L67.2954 68.0663H66.0601Z" fill="white"/>
<path d="M66.2207 67.0934H65.4233L65.4498 67.0565H64.3018L64.0224 67.4053H67.3522L67.3821 67.0565H66.2263L66.2207 67.0934Z" fill="white"/>
<path d="M67.6048 68.0663L67.4536 68.4063H68.7169L68.8676 68.0663H67.6048Z" fill="white"/>
<path d="M72.1184 64.746C71.9166 64.614 71.5391 64.5479 70.9861 64.5477H69.166L68.1219 66.9004H71.5125C71.5066 66.8696 71.4943 66.8404 71.4766 66.8146C71.4192 66.7363 71.3073 66.6612 71.1407 66.5894C71.3781 66.5307 71.5967 66.4125 71.776 66.246C72.0281 66.0101 72.2113 65.7101 72.3062 65.3779C72.3827 65.089 72.3201 64.8784 72.1184 64.746ZM70.9801 65.7695C70.9801 65.7732 70.9742 65.7857 70.9649 65.8073C70.958 65.821 70.9524 65.8353 70.948 65.85C70.8968 65.974 70.8002 66.0736 70.6779 66.1286C70.5532 66.186 70.3895 66.2146 70.1867 66.2144H69.6878L70.0264 65.4482H70.6152C70.7547 65.4482 70.8569 65.4747 70.9231 65.5284C70.9892 65.5821 71.0088 65.6624 70.9801 65.7695V65.7695Z" fill="white"/>
<path d="M63.4925 68.0663L63.2197 68.4063H64.4562L64.7045 68.0663H63.4925Z" fill="white"/>
<path d="M71.1111 68.1597C71.1206 68.1279 71.1316 68.0967 71.1442 68.066H69.9394C69.9072 68.1541 69.8821 68.2317 69.864 68.2989C69.8582 68.322 69.8537 68.3453 69.8506 68.3689L69.8406 68.4064H71.1192L71.1722 68.2883C71.1086 68.2883 71.0882 68.2454 71.1111 68.1597Z" fill="white"/>
<path d="M61.2353 68.0663L61.0844 68.4063H62.3474L62.4987 68.0663H61.2353Z" fill="white"/>
<path d="M57.7268 66.6216C57.8277 66.6958 57.9392 66.7545 58.0574 66.7958C58.1495 66.8279 58.2625 66.8627 58.3964 66.9004H60.4404C60.4659 66.7875 60.4596 66.6697 60.4223 66.5601C60.3796 66.4456 60.3035 66.3466 60.204 66.2759C60.1038 66.2038 59.994 66.1461 59.8778 66.1045C59.7622 66.0629 59.6115 66.0155 59.4259 65.9625C59.2032 65.9019 59.0438 65.8474 58.9478 65.7991C58.8517 65.7509 58.8157 65.6821 58.8399 65.5928L58.8508 65.5712C58.8508 65.5678 58.8533 65.5625 58.8551 65.5553C58.9194 65.4096 59.0857 65.3367 59.3541 65.3367C59.486 65.3367 59.5852 65.3601 59.6513 65.4064C59.7262 65.4601 59.747 65.5476 59.7137 65.6689H60.9131C60.96 65.5082 60.9777 65.3404 60.9655 65.1734C60.9548 65.0331 60.9033 64.8989 60.8174 64.7875C60.7322 64.6784 60.6056 64.5944 60.4379 64.5355C60.2701 64.4766 60.0594 64.4472 59.8057 64.4472C59.3067 64.4472 58.8563 64.5534 58.4544 64.7659C58.0525 64.9785 57.7648 65.2826 57.5912 65.6783C57.5585 65.7489 57.5317 65.822 57.511 65.8969C57.4648 66.0686 57.4635 66.2134 57.5069 66.3312C57.5492 66.448 57.6259 66.5493 57.7268 66.6216V66.6216Z" fill="white"/>
<path d="M61.7533 66.9004H63.0167L63.612 65.5606H64.7469L65.1947 64.5477H61.6619L61.2141 65.5606H62.349L61.7533 66.9004Z" fill="white"/>
<path d="M56.8604 68.066C56.8868 68.1052 56.9167 68.142 56.9496 68.1759C57.0638 68.2879 57.2027 68.3715 57.355 68.4198C57.5496 68.4824 57.7532 68.5123 57.9576 68.5081C58.5033 68.5081 58.9901 68.3956 59.418 68.1706C59.4804 68.1394 59.5387 68.1032 59.5958 68.066H56.8604Z" fill="white"/>
</g>
</g>
<defs>
<linearGradient id="paint0_linear" x1="64.2842" y1="42.3347" x2="79.9518" y2="42.3347" gradientUnits="userSpaceOnUse">
<stop stop-color="#2E6FD1"/>
<stop offset="1" stop-color="#66B9FF"/>
</linearGradient>
<linearGradient id="paint1_linear" x1="19.4324" y1="45.807" x2="19.4324" y2="13.8063" gradientUnits="userSpaceOnUse">
<stop stop-color="#34B099"/>
<stop offset="1" stop-color="#40ABDB"/>
</linearGradient>
<linearGradient id="paint2_linear" x1="453.626" y1="1066.34" x2="453.626" y2="334.967" gradientUnits="userSpaceOnUse">
<stop stop-color="#34B099"/>
<stop offset="1" stop-color="#40ABDB"/>
</linearGradient>
<linearGradient id="paint3_linear" x1="1124.18" y1="918.009" x2="1124.18" y2="290.976" gradientUnits="userSpaceOnUse">
<stop stop-color="#34B099"/>
<stop offset="1" stop-color="#40ABDB"/>
</linearGradient>
<linearGradient id="paint4_linear" x1="1491.77" y1="463.552" x2="1491.77" y2="155.11" gradientUnits="userSpaceOnUse">
<stop stop-color="#34B099"/>
<stop offset="1" stop-color="#40ABDB"/>
</linearGradient>
<linearGradient id="paint5_linear" x1="1565.49" y1="338.634" x2="1565.49" y2="118.294" gradientUnits="userSpaceOnUse">
<stop stop-color="#34B099"/>
<stop offset="1" stop-color="#40ABDB"/>
</linearGradient>
<linearGradient id="paint6_linear" x1="1071.95" y1="918.009" x2="1071.95" y2="290.976" gradientUnits="userSpaceOnUse">
<stop stop-color="#34B099"/>
<stop offset="1" stop-color="#40ABDB"/>
</linearGradient>
<linearGradient id="paint7_linear" x1="1378.79" y1="463.552" x2="1378.79" y2="155.11" gradientUnits="userSpaceOnUse">
<stop stop-color="#34B099"/>
<stop offset="1" stop-color="#40ABDB"/>
</linearGradient>
<linearGradient id="paint8_linear" x1="1440.37" y1="338.634" x2="1440.37" y2="118.294" gradientUnits="userSpaceOnUse">
<stop stop-color="#34B099"/>
<stop offset="1" stop-color="#40ABDB"/>
</linearGradient>
<linearGradient id="paint9_linear" x1="1558.43" y1="2056.61" x2="1558.43" y2="637.376" gradientUnits="userSpaceOnUse">
<stop stop-color="#34B099"/>
<stop offset="1" stop-color="#40ABDB"/>
</linearGradient>
<linearGradient id="paint10_linear" x1="1558.43" y1="677.379" x2="1558.43" y2="421.385" gradientUnits="userSpaceOnUse">
<stop stop-color="#34B099"/>
<stop offset="1" stop-color="#40ABDB"/>
</linearGradient>
<linearGradient id="paint11_linear" x1="3240.35" y1="4954.94" x2="3240.35" y2="1513.37" gradientUnits="userSpaceOnUse">
<stop stop-color="#34B099"/>
<stop offset="1" stop-color="#40ABDB"/>
</linearGradient>
<linearGradient id="paint12_linear" x1="3896.84" y1="3129.37" x2="3896.84" y2="965.153" gradientUnits="userSpaceOnUse">
<stop stop-color="#34B099"/>
<stop offset="1" stop-color="#40ABDB"/>
</linearGradient>
<linearGradient id="paint13_linear" x1="2691.47" y1="2613.86" x2="2691.47" y2="810.624" gradientUnits="userSpaceOnUse">
<stop stop-color="#34B099"/>
<stop offset="1" stop-color="#40ABDB"/>
</linearGradient>
<linearGradient id="paint14_linear" x1="6938.87" y1="12981.7" x2="6938.87" y2="3930.66" gradientUnits="userSpaceOnUse">
<stop stop-color="#34B099"/>
<stop offset="1" stop-color="#40ABDB"/>
</linearGradient>
<linearGradient id="paint15_linear" x1="3197" y1="4822.8" x2="3197" y2="1469.67" gradientUnits="userSpaceOnUse">
<stop stop-color="#34B099"/>
<stop offset="1" stop-color="#40ABDB"/>
</linearGradient>
<linearGradient id="paint16_linear" x1="1197.76" y1="1053.41" x2="1246.34" y2="1080.59" gradientUnits="userSpaceOnUse">
<stop stop-color="#34B099"/>
<stop offset="1" stop-color="#40ABDB"/>
</linearGradient>
<linearGradient id="paint17_linear" x1="1420.06" y1="3910.38" x2="1420.06" y2="1190.38" gradientUnits="userSpaceOnUse">
<stop stop-color="#34B099"/>
<stop offset="1" stop-color="#40ABDB"/>
</linearGradient>
<linearGradient id="paint18_linear" x1="1220.25" y1="1629.56" x2="1220.25" y2="501.358" gradientUnits="userSpaceOnUse">
<stop stop-color="#34B099"/>
<stop offset="1" stop-color="#40ABDB"/>
</linearGradient>
<linearGradient id="paint19_linear" x1="808.492" y1="419.706" x2="808.492" y2="136.179" gradientUnits="userSpaceOnUse">
<stop stop-color="#34B099"/>
<stop offset="1" stop-color="#40ABDB"/>
</linearGradient>
<linearGradient id="paint20_linear" x1="1344.86" y1="1421.29" x2="1344.86" y2="382.282" gradientUnits="userSpaceOnUse">
<stop stop-color="#34B099"/>
<stop offset="1" stop-color="#40ABDB"/>
</linearGradient>
<linearGradient id="paint21_linear" x1="1344.86" y1="604.407" x2="1344.86" y2="227.083" gradientUnits="userSpaceOnUse">
<stop stop-color="#34B099"/>
<stop offset="1" stop-color="#40ABDB"/>
</linearGradient>
<linearGradient id="paint22_linear" x1="1913" y1="596.123" x2="1913" y2="188.435" gradientUnits="userSpaceOnUse">
<stop stop-color="#34B099"/>
<stop offset="1" stop-color="#40ABDB"/>
</linearGradient>
<linearGradient id="paint23_linear" x1="2273.94" y1="1974.4" x2="2273.94" y2="610.532" gradientUnits="userSpaceOnUse">
<stop stop-color="#34B099"/>
<stop offset="1" stop-color="#40ABDB"/>
</linearGradient>
<linearGradient id="paint24_linear" x1="3023.41" y1="2633.3" x2="3023.41" y2="565.287" gradientUnits="userSpaceOnUse">
<stop stop-color="#34B099"/>
<stop offset="1" stop-color="#40ABDB"/>
</linearGradient>
<linearGradient id="paint25_linear" x1="3730.2" y1="2285.68" x2="3785.23" y2="2358.84" gradientUnits="userSpaceOnUse">
<stop stop-color="#34B099"/>
<stop offset="1" stop-color="#40ABDB"/>
</linearGradient>
<linearGradient id="paint26_linear" x1="56.4896" y1="56.6317" x2="55.1097" y2="49.2295" gradientUnits="userSpaceOnUse">
<stop stop-color="#455FE8"/>
<stop offset="0.05" stop-color="#475DE5"/>
<stop offset="1" stop-color="#6535B3"/>
</linearGradient>
<linearGradient id="paint27_linear" x1="6.28234" y1="58.9647" x2="78.982" y2="58.9647" gradientUnits="userSpaceOnUse">
<stop stop-color="#3B1562"/>
<stop offset="1" stop-color="#180C30"/>
</linearGradient>
<clipPath id="clip0">
<rect width="67.6973" height="56.5135" fill="white" transform="translate(12.2545)"/>
</clipPath>
<clipPath id="clip1">
<rect width="81.1416" height="28.1973" fill="white" transform="translate(0 50.8027)"/>
</clipPath>
<clipPath id="clip2">
<rect width="42.2364" height="14.753" fill="white" transform="translate(30.1009 55.6807)"/>
</clipPath>
</defs>
</svg>
