<svg xmlns="http://www.w3.org/2000/svg" width="120" height="18" fill="none" xmlns:v="https://vecta.io/nano"><g clip-path="url(#A)" fill="#fff"><path d="M0 11.374l4.516-10.19H8.54L7.519 7.539l4.607-6.355h4.022l-4.516 10.19H8.64l1.38-3.113.745-1.586.991-1.833h-.025l-4.757 6.532H4.658l1.056-6.532h-.028l-.527 1.493-.636 1.586-1.531 3.459L0 11.374zm13.552 0l4.517-10.19h8.281l-1.059 2.378H20.34l-.643 1.457h4.193l-1.045 2.378h-4.193l-.711 1.595h5.152l-1.059 2.378-8.484.003zm19.926.028h-2.149l.311-1.004a6.31 6.31 0 0 1-1.609.899 5.51 5.51 0 0 1-1.998.346c-.529.009-1.056-.075-1.557-.248-.43-.147-.814-.406-1.112-.75-.298-.358-.485-.796-.54-1.259a4.42 4.42 0 0 1 .157-1.749 8.46 8.46 0 0 1 .442-1.23c.351-.8.806-1.549 1.352-2.229a9.26 9.26 0 0 1 1.836-1.742 8.41 8.41 0 0 1 2.186-1.125 7.33 7.33 0 0 1 2.378-.396c1.261 0 2.182.323 2.76.968s.705 1.582.38 2.81h-3.162c.135-.86-.244-1.289-1.137-1.288-.644 0-1.245.267-1.802.8s-1.042 1.262-1.452 2.186a6.68 6.68 0 0 0-.331.92c-.15.565-.136 1.014.043 1.345s.579.496 1.201.495a2.75 2.75 0 0 0 1.205-.332 2.61 2.61 0 0 0 1.014-.843h-1.466l.985-2.214h4.555L33.48 11.4zm1.109-.028l8.158-10.19h3.388l-.874 10.19h-3.312l.204-1.345h-3.312l-.98 1.345h-3.272zm8.474-7.118l-2.662 3.651h2.11l.552-3.651zm34.39 9.549H71.86l-.686 1.544h5.591l.686-1.544zm-20.779-.692c-.067-.273-.063-.559.012-.83h-5.352a5.59 5.59 0 0 0-.225.665l-.041.172 5.606-.007zm21.772-1.545h-5.59l-.686 1.545h5.59l.686-1.545zm36.879 3.06l.254-.595.102-.228h-5.365l-.326.751-.332.793h5.351l.316-.721zm-9.69-.823h-5.586l-.686 1.544h5.588l.684-1.544zm-44.752-2.074c.42.205.576.505.469.902l-.019.071c-.022.028-.038.061-.048.095a1.46 1.46 0 0 1-.186.314h5.33a9.5 9.5 0 0 0 .511-1.003l.222-.542h-6.65l.371.163zm36.865 3.618l.133-1.544H82.648l-1.237 1.544h5.315l.041-.057h5.566l-.008.057h5.421zm-7.723-4.473l3.834-5.271-.798 5.271h5.071L99.024.451H93.34l-8.347 10.425h5.031zm-24.052 2.929h-5.919a4.86 4.86 0 0 1-1.64.253 2.34 2.34 0 0 1-1.157-.253h-6.3a3.71 3.71 0 0 0 .072 1.119c.032.144.074.286.126.425H64.54a8.66 8.66 0 0 0 1.431-1.544zm34.383-.692h5.585l.674-1.522h1.705c.995 0 1.649.123 1.963.368.293.23.375.616.254 1.157h5.429l.259-.789a4.99 4.99 0 0 0 .146-.757h-15.331l-.684 1.543zm-8.134 2.928l-.229 1.508h5.566l.13-1.508H92.22zm.711-4.31H89.4l.119-.163h-5.08l-1.238 1.545h14.737l.133-1.545h-5.116l-.023.163zm6.124 4.31l-.668 1.508h5.591l.665-1.508h-5.588zM119.031 1.33c-.894-.585-2.565-.878-5.011-.879h-8.055l-4.621 10.425h15.003a1.03 1.03 0 0 0-.159-.38c-.255-.348-.75-.68-1.486-.998a6.38 6.38 0 0 0 2.81-1.522 8.13 8.13 0 0 0 1.907-2.659c.175-.384.321-.782.436-1.188.344-1.277.07-2.21-.824-2.799zM114 5.865c0 .017-.027.072-.069.166a1.42 1.42 0 0 0-.073.191 2.33 2.33 0 0 1-1.195 1.234c-.552.253-1.277.38-2.175.38h-2.208l1.499-3.395h2.605c.616 0 1.07.119 1.363.356s.377.593.253 1.068zM80.856 16.041l-1.206 1.508h5.472l1.099-1.508h-5.365zm33.717.415c.024-.087.073-.226.147-.415h-5.331l-.334 1.032a2.69 2.69 0 0 0-.059.309l-.044.167h5.658l.235-.523c-.282 0-.373-.19-.272-.57zm-43.705-.415l-.669 1.508h5.591l.668-1.508h-5.59zm-15.524-6.4c.448.328.941.588 1.464.772l1.5.463h9.043c.114-.5.087-1.023-.08-1.508a2.69 2.69 0 0 0-.966-1.259 5.81 5.81 0 0 0-1.438-.76l-2-.63c-.986-.268-1.692-.51-2.116-.724s-.584-.519-.479-.915l.04-.101c0-.015.01-.039.019-.071.283-.646 1.019-.968 2.208-.968.584 0 1.023.104 1.314.309.331.238.423.626.276 1.164h5.307a6.31 6.31 0 0 0 .232-2.196 3.2 3.2 0 0 0-.657-1.71c-.371-.482-.93-.855-1.677-1.117S65.656-.001 64.539 0c-2.208 0-4.202.471-5.98 1.413s-3.051 2.292-3.819 4.05a6.45 6.45 0 0 0-.355.968c-.203.76-.209 1.401-.017 1.923a2.73 2.73 0 0 0 .976 1.287zm17.816 1.235h5.591l2.635-5.937h5.022l1.98-4.488H72.755l-1.98 4.488h5.021l-2.635 5.937zm-21.653 5.165c.116.174.248.337.393.487a4.53 4.53 0 0 0 1.794 1.081c.861.277 1.762.41 2.666.392 2.416 0 4.571-.499 6.465-1.497.276-.138.534-.299.785-.462H51.507z"/></g><defs><clipPath id="A"><path fill="#fff" d="M0 0h120v18H0z"/></clipPath></defs></svg>