<svg xmlns="http://www.w3.org/2000/svg" width="68" height="110" fill="none" xmlns:v="https://vecta.io/nano"><path fill-rule="evenodd" d="M3.678 47.512l.62 1.271 29.809 61.156 29.808-61.154.622-1.276.109-.223-.008.002c1.903-4.206 2.963-8.876 2.963-13.793C67.601 14.996 52.605 0 34.107 0S.613 14.996.613 33.494c0 4.917 1.06 9.587 2.963 13.793l-.008-.002.11.226zm45.796-13.82c0 8.596-6.969 15.565-15.565 15.565s-15.565-6.969-15.565-15.565 6.969-15.565 15.565-15.565 15.565 6.969 15.565 15.565z" fill="#000"/></svg>