<svg xmlns="http://www.w3.org/2000/svg" width="629" height="398" fill="none" xmlns:v="https://vecta.io/nano"><g clip-path="url(#A)"><g fill="#eba971"><path d="M26.804 174.242L9.478 202.78c-.415.699-.686 1.473-.798 2.278s-.062 1.624.146 2.41a6.48 6.48 0 0 0 1.67 2.904 6.49 6.49 0 0 0 2.896 1.683c1.219.341 2.494.439 3.751.287s2.472-.548 3.576-1.169 2.074-1.453 2.856-2.449a9.64 9.64 0 0 0 1.701-3.355c.203-.697.319-1.416.347-2.141l1.182-28.986z"/><path d="M26.09 167.413l-4.26 30.352a71.69 71.69 0 0 0-.163 18.57l1.345 11.069a8.3 8.3 0 0 0 1.515 3.859 8.29 8.29 0 0 0 3.193 2.643c1.571.741 3.281 1.138 5.017 1.167a12.22 12.22 0 0 0 5.052-1.004c2.15-.926 3.883-2.614 4.864-4.74a9.5 9.5 0 0 0 .456-6.777l-17.02-55.139z"/></g><g fill="#fad5b4"><path d="M15.45 193.036c1.447 1.733.346 6.319-3.954 12.23-.612.189-1.269.174-1.872-.043a2.95 2.95 0 0 1-1.471-1.159c2.038-3.486 7.297-11.028 7.297-11.028zm6.115 18.978c2.935.713 5.422 6.543 5.463 16.307a4.07 4.07 0 0 1-2.001 1.401 4.08 4.08 0 0 1-2.443.006c-.673-5.321-1.019-17.714-1.019-17.714z"/></g><path d="M299.834 62.576H187.096a117.48 117.48 0 0 0-16.062 1.101L87.199 75.092a39.01 39.01 0 0 0-17.494 6.949c-5.177 3.71-9.367 8.63-12.204 14.332l-27.517 55.343c-5.031 10.089-6.504 21.583-4.178 32.615l4.464 21.322c1.967 9.434 5.672 18.42 10.925 26.499l7.725 11.844a14.76 14.76 0 0 0 8.918 6.274c3.664.876 7.525.317 10.791-1.563s5.689-4.936 6.773-8.545a14.76 14.76 0 0 0-.943-10.863l-7.052-13.841c-3.323-6.562-5.443-13.666-6.258-20.976l-.754-6.727a19.08 19.08 0 0 1 4.342-14.269l20.118-23.972a10.39 10.39 0 0 1 3.987-2.942c1.547-.646 3.226-.907 4.896-.763a10.4 10.4 0 0 1 8.117 5.173l6.808 11.66 191.132-53.407.04-46.66z" fill="#fabb85"/><path d="M187.096 62.576a117.48 117.48 0 0 0-16.062 1.101L87.199 75.092a39.01 39.01 0 0 0-17.494 6.949c-5.177 3.71-9.367 8.63-12.204 14.332l-27.517 55.343c-5.031 10.089-6.504 21.583-4.178 32.615l4.464 21.322c.428 2.038.958 4.077 1.57 6.115l-3.975-19.548a52.82 52.82 0 0 1 4.178-33.471l27.517-57.077a39.08 39.08 0 0 1 12.095-14.695c5.181-3.827 11.228-6.313 17.603-7.238l83.815-11.762a118.05 118.05 0 0 1 16.083-1.121h110.679v-4.281H187.096z" fill="#fad5b4"/><path d="M63.88 285.988l.632-4.912c.255-1.977-.187-3.982-1.251-5.668a8.56 8.56 0 0 0-4.578-3.566l-25.744-8.46a8.59 8.59 0 0 0-5.807.144 8.58 8.58 0 0 0-4.385 3.811l-2.364 4.342c-3.672 6.572-6.709 13.48-9.07 20.628l-1.733 5.28c-1.36 4.166-1.015 8.7.96 12.612a16.57 16.57 0 0 0 9.578 8.261l16.184 5.321a16.53 16.53 0 0 0 20.872-10.478l1.733-5.279a116.86 116.86 0 0 0 4.974-22.036zm-11.17.673c-.326.988-1.031 1.806-1.959 2.276s-2.005.553-2.994.231l-16.306-5.361a3.92 3.92 0 0 1-1.338-.756 3.93 3.93 0 0 1-1.357-2.692c-.038-.516.026-1.034.188-1.526l1.366-4.076c.326-.988 1.031-1.807 1.959-2.277s2.005-.553 2.994-.231l16.307 5.361c.988.327 1.806 1.031 2.276 1.959s.553 2.005.231 2.995l-1.366 4.097z" fill="#303030"/><path d="M4.77 397.878l-3.261-.999a2.04 2.04 0 0 1-1.366-2.039L0 378.92c-.021-1.455.207-2.902.673-4.28l18.569-56.465 17.937 5.891-18.569 56.505c-.474 1.377-1.162 2.67-2.038 3.833l-9.621 12.781c-.252.32-.595.558-.984.681s-.806.128-1.197.012z" fill="#c9c7c2"/><path d="M6.991 397.164l5.402-7.175-2.038-5.565 2.813-8.541-2.731-2.304 2.038-6.543 3.587-.245 2.038-5.993 3.2-.203 4.851-14.677-2.446-2.039 4.586-13.922-5.401-1.773-4.872 14.839-3.75.265-2.038 6.319 2.833 2.426-1.712 5.219-3.71.244-4.79 14.616 2.813 2.344-2.691 8.154L0 385.932v8.908c.01.415.146.816.39 1.151a2.04 2.04 0 0 0 .976.725l3.261 1.08c.409.165.861.192 1.288.078a2.04 2.04 0 0 0 1.077-.71z" fill="#91908d"/><path d="M43.599 307.738c-.643 1.962-1.853 3.688-3.477 4.962a10.44 10.44 0 0 1-5.648 2.194c-2.058.156-4.117-.301-5.915-1.314s-3.256-2.538-4.188-4.379a10.44 10.44 0 0 1-1.049-5.968c.248-2.05 1.098-3.979 2.443-5.545s3.124-2.698 5.112-3.253 4.096-.508 6.057.135c2.627.867 4.803 2.739 6.052 5.207a10.46 10.46 0 0 1 .613 7.961z" fill="#1a1a1a"/><g fill="#303030"><path d="M40.99 306.882a7.68 7.68 0 0 1-2.573 3.642 7.69 7.69 0 0 1-4.161 1.6 7.68 7.68 0 0 1-7.422-4.211 7.68 7.68 0 0 1-.762-4.393c.186-1.507.814-2.926 1.805-4.077s2.301-1.982 3.765-2.388 3.014-.371 4.457.104a7.68 7.68 0 0 1 2.615 1.478c.766.66 1.394 1.465 1.849 2.368a7.68 7.68 0 0 1 .8 2.896 7.67 7.67 0 0 1-.372 2.981zm89.971-45.763a13.8 13.8 0 0 0-15.226-4.729l-32.613 10.559a13.82 13.82 0 0 0-9.539 12.761 101.93 101.93 0 0 0 4.892 34.205l9.865 30.454a101.74 101.74 0 0 0 16.082 30.576 13.8 13.8 0 0 0 6.849 4.791c2.723.85 5.642.836 8.357-.041l32.613-10.58a13.82 13.82 0 0 0 6.805-4.862c1.712-2.285 2.674-5.044 2.754-7.898a101.89 101.89 0 0 0-4.851-34.205l-9.926-30.454c-3.572-11.034-9.004-21.375-16.062-30.577zm-10.355 9.377a3.21 3.21 0 0 1 .165 1.249c-.029.423-.141.837-.331 1.216a3.22 3.22 0 0 1-.774.994 3.19 3.19 0 0 1-1.098.618l-27.089 8.786c-.393.148-.812.216-1.231.199a3.14 3.14 0 0 1-2.213-1.04 3.15 3.15 0 0 1-.632-1.076v-.122l-1.447-4.484a3.2 3.2 0 0 1 .167-2.465 3.22 3.22 0 0 1 .774-.994 3.19 3.19 0 0 1 1.098-.618l27.09-8.765c.393-.149.811-.217 1.231-.2a3.14 3.14 0 0 1 1.212.296 3.12 3.12 0 0 1 1.633 1.82v.122l1.447 4.464z"/></g><path d="M117.366 372.662c-1.274.396-2.639.389-3.908-.02a6.48 6.48 0 0 1-3.186-2.263 94.35 94.35 0 0 1-14.9-28.375l-3.506-10.844a93.53 93.53 0 0 1-4.566-31.718c.052-1.31.504-2.573 1.294-3.619a6.42 6.42 0 0 1 3.129-2.231l32.613-10.58a6.49 6.49 0 0 1 3.893-.016c1.268.394 2.386 1.168 3.2 2.218a94.35 94.35 0 0 1 14.9 28.375l3.526 10.844c3.326 10.22 4.87 20.935 4.566 31.677-.034 1.328-.48 2.612-1.276 3.675s-1.903 1.852-3.168 2.257l-32.612 10.62z" fill="#1a1a1a"/><g fill="#303030"><path d="M95.372 330.12l3.506 10.824.53 1.59a3.79 3.79 0 0 0 4.729 2.385l40.297-13.066a3.75 3.75 0 0 0 2.426-4.689l-.51-1.59-3.506-10.844-.591-1.733c-.328-.917-1.003-1.67-1.879-2.097a3.73 3.73 0 0 0-2.809-.186L97.288 323.76a3.75 3.75 0 0 0-2.466 4.607l.55 1.753zm41.949-28.68a88.98 88.98 0 0 0-8.908-14.004 2.75 2.75 0 0 0-2.996-.918l-32.613 10.58c-.537.169-1.009.501-1.348.951a2.71 2.71 0 0 0-.547 1.556 89.55 89.55 0 0 0 1.06 16.511 3.75 3.75 0 0 0 .507 1.376 3.74 3.74 0 0 0 .996 1.076 3.76 3.76 0 0 0 1.332.613c.48.114.978.133 1.465.054l.571-.143 38.198-12.373c.472-.14.913-.372 1.296-.683a3.75 3.75 0 0 0 .935-1.127c.235-.434.382-.909.433-1.399a3.75 3.75 0 0 0-.137-1.459 3.93 3.93 0 0 0-.244-.611zm-32.939 52.754a89.81 89.81 0 0 0 8.846 14.147c.341.446.813.775 1.351.94s1.112.156 1.645-.023l32.613-10.579c.566-.155 1.067-.489 1.427-.952a2.71 2.71 0 0 0 .57-1.617 89.91 89.91 0 0 0-1.059-16.552c-.068-.493-.232-.969-.485-1.398a3.78 3.78 0 0 0-2.318-1.745c-.482-.123-.985-.15-1.478-.078a3.31 3.31 0 0 0-.774.184l-38.219 12.393a3.75 3.75 0 0 0-2.344 4.75 3.92 3.92 0 0 0 .225.53z"/></g><path d="M65.389 292.919a29.68 29.68 0 0 1-27.419-18.322 29.68 29.68 0 0 1 6.433-32.344c4.151-4.151 9.438-6.978 15.195-8.123a29.68 29.68 0 0 1 30.466 12.62 29.68 29.68 0 0 1 5.002 16.489 29.7 29.7 0 0 1-8.698 20.981c-5.564 5.565-13.11 8.694-20.979 8.699zm0-54.12c-4.838 0-9.567 1.434-13.589 4.122a24.46 24.46 0 0 0-9.009 10.978c-1.851 4.47-2.336 9.388-1.392 14.133a24.46 24.46 0 0 0 19.218 19.219 24.46 24.46 0 0 0 25.109-10.401c2.688-4.023 4.122-8.752 4.122-13.59a24.46 24.46 0 0 0-24.46-24.461z" fill="#969696"/><path d="M65.389 291.003a27.72 27.72 0 0 1-15.404-4.661c-4.561-3.043-8.117-7.37-10.219-12.434s-2.655-10.638-1.589-16.016a27.72 27.72 0 0 1 7.576-14.2c3.874-3.88 8.812-6.524 14.188-7.598s10.951-.529 16.018 1.566 9.399 5.644 12.448 10.201 4.679 9.916 4.683 15.399c0 7.35-2.917 14.401-8.111 19.603s-12.239 8.129-19.59 8.14zm0-54.141c-5.241 0-10.364 1.554-14.722 4.466s-7.754 7.05-9.759 11.893a26.5 26.5 0 0 0 5.744 28.879 26.5 26.5 0 0 0 28.877 5.744 26.5 26.5 0 0 0 16.358-24.482c0-7.029-2.792-13.769-7.761-18.738s-11.709-7.762-18.737-7.762z" fill="#e0e0e0"/><g fill="#303030"><path d="M32.063 263.158v9.376c.483-.278 1.018-.454 1.572-.517s1.115-.012 1.648.151l13.636 4.443v-8.031L33 263.341a7.66 7.66 0 0 1-.938-.183zm58.58 20.282c-.696.038-1.386-.155-1.961-.549a3.16 3.16 0 0 1-1.219-1.632l-1.447-4.485a3.24 3.24 0 0 1 0-1.651l-9.03-4.077a13.6 13.6 0 0 0-3.343 8.582 102.73 102.73 0 0 0 1.468 20.16l10.599-8.276 4.933-8.072z"/></g><path d="M70.831 222.104l-13.616 8.949a15.47 15.47 0 0 0-4.907 7.672c-.829 2.992-.738 6.164.259 9.104a14.76 14.76 0 0 0 9.24 2.823 14.75 14.75 0 0 0 9.006-3.498 14.76 14.76 0 0 0 3.626-17.895l-3.608-7.155z" fill="#cf8b50"/><path d="M108.703 162.582l4.892 8.398a14.56 14.56 0 0 1 1.758 9.837c-.593 3.383-2.364 6.448-4.999 8.652l-13.371 15.064c-4.238 4.75-9.075 8.93-14.391 12.434l-22.503 14.799c-2.721 2.296-4.565 5.462-5.219 8.961a15.43 15.43 0 0 0 1.631 10.241l2.915 5.361a12.02 12.02 0 0 0 6.779 5.655c2.895.958 6.045.78 8.814-.497l33.305-15.329c2.854-1.359 5.64-2.786 8.357-4.281l36.323-20.67a153.81 153.81 0 0 0 27.802-20.221l39.788-36.345c8.919-8.134 20.543-12.66 32.613-12.7h47.982l-1.448-42.807-191.029 53.448z" fill="#fabb85"/><path d="M86.648 253.904a7.4 7.4 0 0 0 .815-3.221c-.591-3.547-5.952-5.912-14.268-8.154-2.852-.872-5.892-.928-8.774-.16a15.96 15.96 0 0 0-7.532 4.502 13.9 13.9 0 0 0 1.243 3.2l3.017 5.28c1.188 2.225 3.183 3.911 5.575 4.711s5 .653 7.287-.41l12.638-5.748z" fill="#fad5b4"/><path d="M299.834 109.175V62.576h-21.83a337.56 337.56 0 0 0-2.976 89.386h26.254l-1.448-42.787z" fill="#cf8b50"/><path d="M324.09 177.666l-4.076-138.878-39.992 1.835c-4.905 46.265-3.534 92.98 4.077 138.878l39.991-1.835z" fill="#e6e6e6"/><path d="M300.568 92.643c-7.007-1.184-14.123-1.588-21.219-1.203.123-16.308.972-32.35 2.548-48.127l35.854-1.631 1.57 52.775c-6.747-.754-11.537-.408-18.753-1.814z" fill="#f2f2f2"/><path d="M629 182.477l-326.781 1.631c-5.055-55.385-6.115-91.546-4.464-150.477L629 32v150.477z" fill="#262626"/><path d="M629 107.993c-8.52-3.303-319.81-4.974-329.451-4.811-.469-20.058-.387-40.422.367-66.861L629 34.813v73.18z" fill="#424242"/></g><rect x="605" width="24" height="263" rx="5" fill="#0e1738"/><defs><clipPath id="A"><path fill="#fff" transform="translate(0 32)" d="M0 0h629v366H0z"/></clipPath></defs></svg>