<svg width="629" height="398" viewBox="0 0 629 398" fill="none" xmlns="http://www.w3.org/2000/svg">
<g clip-path="url(#clip0)">
<path d="M26.8037 174.242L9.47809 202.78C9.06329 203.479 8.79196 204.253 8.67997 205.058C8.56797 205.863 8.61756 206.682 8.82583 207.468C9.11836 208.566 9.69412 209.567 10.4954 210.372C11.2968 211.177 12.2955 211.757 13.3916 212.055C14.6109 212.396 15.8854 212.494 17.1425 212.342C18.3995 212.191 19.6145 211.794 20.718 211.173C21.8214 210.552 22.7918 209.72 23.5737 208.724C24.3556 207.728 24.9337 206.588 25.2749 205.369C25.4776 204.672 25.5939 203.953 25.6215 203.228L26.8037 174.242Z" fill="#EBA971"/>
<path d="M26.0903 167.413L21.8302 197.765C20.971 203.922 20.9162 210.164 21.6672 216.335L23.0124 227.404C23.1829 228.798 23.7043 230.125 24.5278 231.263C25.3513 232.4 26.45 233.31 27.7209 233.906C29.2915 234.647 31.0018 235.044 32.738 235.073C34.4741 235.101 36.1964 234.759 37.7901 234.069C39.9403 233.143 41.6726 231.455 42.6545 229.329C43.6364 227.204 43.7986 224.79 43.1101 222.552L26.0903 167.413Z" fill="#EBA971"/>
<path d="M15.4503 193.036C16.8975 194.769 15.7968 199.355 11.496 205.266C10.8838 205.455 10.2267 205.44 9.62377 205.223C9.02085 205.007 8.50474 204.6 8.15321 204.064C10.1915 200.578 15.4503 193.036 15.4503 193.036Z" fill="#FAD5B4"/>
<path d="M21.5652 212.014C24.5004 212.727 26.9871 218.557 27.0279 228.321C26.5198 228.982 25.8214 229.471 25.027 229.722C24.2325 229.974 23.38 229.975 22.5844 229.728C21.9117 224.407 21.5652 212.014 21.5652 212.014Z" fill="#FAD5B4"/>
<path d="M299.834 62.5764H187.096C181.723 62.5756 176.357 62.9434 171.034 63.6772L87.1986 75.0924C80.8875 75.9461 74.8814 78.3319 69.7046 82.0415C64.5278 85.7511 60.3378 90.6716 57.5005 96.3736L29.9834 151.717C24.9523 161.806 23.4797 173.3 25.8049 184.332L30.2688 205.654C32.2359 215.088 35.9406 224.074 41.1941 232.153L48.9193 243.997C50.9821 247.15 54.1728 249.394 57.8374 250.271C61.5019 251.147 65.3628 250.588 68.6285 248.708C71.8943 246.829 74.3176 243.772 75.4017 240.163C76.4858 236.554 76.1486 232.668 74.4592 229.3L67.4067 215.459C64.0834 208.897 61.9639 201.793 61.1491 194.483L60.3949 187.756C60.1233 185.208 60.3678 182.632 61.1137 180.18C61.8597 177.728 63.0918 175.452 64.7365 173.487L84.8545 149.515C85.9269 148.227 87.2946 147.218 88.8414 146.573C90.3881 145.927 92.0678 145.666 93.7375 145.81C95.4072 145.954 97.0173 146.5 98.4305 147.4C99.8438 148.301 101.018 149.53 101.854 150.983L108.662 162.643L299.794 109.236L299.834 62.5764Z" fill="#FABB85"/>
<path d="M187.096 62.5764C181.723 62.5756 176.357 62.9434 171.034 63.6772L87.1986 75.0924C80.8875 75.9461 74.8814 78.3319 69.7046 82.0415C64.5278 85.7511 60.3378 90.6716 57.5005 96.3736L29.9834 151.717C24.9523 161.806 23.4797 173.3 25.8049 184.332L30.2688 205.654C30.6968 207.692 31.2268 209.731 31.8383 211.769L27.8636 192.221C25.5607 180.907 27.0284 169.15 32.0421 158.75L59.5592 101.673C62.3182 95.8528 66.4733 90.8046 71.6546 86.9779C76.836 83.1512 82.8829 80.6648 89.2573 79.74L173.072 67.9783C178.401 67.2385 183.775 66.8639 189.155 66.8571H299.834V62.5764H187.096Z" fill="#FAD5B4"/>
<path d="M63.8804 285.988L64.5123 281.076C64.7676 279.099 64.325 277.094 63.2608 275.408C62.1966 273.723 60.5775 272.461 58.6827 271.842L32.939 263.382C31.0454 262.754 28.9921 262.805 27.1321 263.526C25.2721 264.248 23.7216 265.595 22.7474 267.337L20.383 271.679C16.711 278.251 13.6738 285.159 11.3126 292.307L9.58001 297.587C8.22014 301.753 8.56541 306.287 10.5403 310.199C12.5152 314.111 15.9589 317.081 20.118 318.46L36.3022 323.781C40.4594 325.155 44.9919 324.823 48.905 322.859C52.8181 320.895 55.7921 317.458 57.1744 313.303L58.9069 308.024C61.2725 300.856 62.9381 293.477 63.8804 285.988ZM52.7105 286.661C52.3842 287.649 51.6799 288.467 50.7516 288.937C49.8234 289.407 48.7468 289.49 47.7574 289.168L31.451 283.807C30.9595 283.646 30.5046 283.389 30.1125 283.051C29.7204 282.714 29.3987 282.302 29.1658 281.84C28.9329 281.378 28.7934 280.875 28.7554 280.359C28.7173 279.843 28.7813 279.325 28.9439 278.833L30.3096 274.757C30.6358 273.769 31.3402 272.95 32.2684 272.48C33.1967 272.01 34.2733 271.927 35.2626 272.249L51.5691 277.61C52.557 277.937 53.3755 278.641 53.8453 279.569C54.3152 280.498 54.3982 281.574 54.0762 282.564L52.7105 286.661Z" fill="#303030"/>
<path d="M4.76962 397.878L1.50834 396.879C1.09025 396.733 0.730858 396.456 0.484475 396.088C0.238093 395.72 0.118114 395.282 0.142673 394.84L-8.38388e-06 378.92C-0.0206656 377.465 0.206806 376.018 0.672632 374.64L19.2416 318.175L37.1786 324.066L18.6097 380.571C18.1357 381.948 17.4479 383.241 16.5714 384.404L6.95061 397.185C6.69818 397.505 6.35538 397.743 5.96655 397.866C5.57772 397.99 5.16076 397.994 4.76962 397.878Z" fill="#C9C7C2"/>
<path d="M6.99138 397.164L12.3929 389.989L10.3546 384.424L13.1674 375.883L10.4361 373.579L12.4744 367.036L16.0618 366.791L18.1001 360.798L21.3003 360.595L26.1514 345.918L23.7055 343.879L28.2916 329.957L22.8901 328.184L18.0186 343.023L14.2681 343.288L12.2298 349.607L15.0631 352.033L13.3509 357.252L9.64117 357.496L4.85116 372.112L7.66402 374.456L4.97346 382.61L0 385.932V394.84C0.00998138 395.255 0.146042 395.656 0.390038 395.991C0.634034 396.326 0.974369 396.579 1.36566 396.716L4.62695 397.796C5.03634 397.961 5.48818 397.988 5.91455 397.874C6.34093 397.76 6.7188 397.511 6.99138 397.164Z" fill="#91908D"/>
<path d="M43.5993 307.738C42.9563 309.7 41.7462 311.426 40.1219 312.7C38.4975 313.974 36.532 314.737 34.4739 314.894C32.4157 315.05 30.3573 314.593 28.5591 313.58C26.7608 312.566 25.3035 311.042 24.3712 309.201C23.439 307.359 23.0739 305.282 23.3219 303.233C23.57 301.183 24.4201 299.254 25.7649 297.688C27.1096 296.122 28.8885 294.99 30.8766 294.435C32.8647 293.88 34.9727 293.927 36.934 294.57C39.5607 295.437 41.7369 297.309 42.9861 299.777C44.2353 302.245 44.4558 305.108 43.5993 307.738Z" fill="#1A1A1A"/>
<path d="M40.9903 306.882C40.5114 308.324 39.6161 309.591 38.4175 310.524C37.2189 311.457 35.7708 312.013 34.256 312.124C32.7412 312.234 31.2276 311.893 29.9065 311.143C28.5854 310.394 27.516 309.27 26.8334 307.913C26.1507 306.556 25.8854 305.027 26.071 303.52C26.2566 302.012 26.8848 300.594 27.8762 299.443C28.8675 298.292 30.1776 297.461 31.6411 297.055C33.1045 296.648 34.6555 296.684 36.0984 297.159C37.0589 297.475 37.9476 297.977 38.7136 298.637C39.4796 299.297 40.1079 300.102 40.5623 301.005C41.0168 301.908 41.2885 302.892 41.3619 303.901C41.4354 304.909 41.3091 305.922 40.9903 306.882Z" fill="#303030"/>
<path d="M130.961 261.119C129.224 258.852 126.827 257.18 124.1 256.333C121.373 255.486 118.45 255.506 115.735 256.39L83.122 266.949C80.4095 267.832 78.0366 269.532 76.3287 271.817C74.6208 274.101 73.6616 276.858 73.5827 279.71C73.2549 291.307 74.9093 302.875 78.4747 313.915L88.3401 344.369C91.9185 355.403 97.3577 365.745 104.422 374.945C106.155 377.212 108.548 378.885 111.271 379.736C113.994 380.586 116.913 380.572 119.628 379.695L152.241 369.115C154.957 368.236 157.334 366.538 159.046 364.253C160.758 361.968 161.72 359.209 161.8 356.355C162.142 344.76 160.501 333.192 156.949 322.15L147.023 291.696C143.451 280.662 138.019 270.321 130.961 261.119ZM120.606 270.496C120.743 270.898 120.799 271.322 120.771 271.745C120.742 272.168 120.63 272.582 120.44 272.961C120.25 273.34 119.987 273.678 119.666 273.955C119.345 274.232 118.971 274.442 118.568 274.573L91.479 283.359C91.0861 283.507 90.6673 283.575 90.2476 283.558C89.8279 283.542 89.4157 283.441 89.0356 283.263C88.6554 283.084 88.315 282.831 88.0345 282.518C87.754 282.205 87.539 281.84 87.4024 281.442C87.4024 281.442 87.4024 281.442 87.4024 281.32L85.9552 276.836C85.8183 276.434 85.7624 276.01 85.791 275.587C85.8196 275.163 85.9319 274.75 86.1216 274.371C86.3112 273.991 86.5744 273.654 86.8958 273.377C87.2171 273.1 87.5903 272.89 87.9935 272.759L115.083 263.994C115.476 263.845 115.894 263.777 116.314 263.794C116.734 263.81 117.146 263.911 117.526 264.09C117.906 264.268 118.247 264.521 118.527 264.834C118.808 265.147 119.023 265.512 119.159 265.91C119.159 265.91 119.159 265.91 119.159 266.032L120.606 270.496Z" fill="#303030"/>
<path d="M117.366 372.662C116.092 373.058 114.727 373.051 113.458 372.642C112.189 372.234 111.076 371.443 110.272 370.379C103.724 361.84 98.6842 352.243 95.3722 342.004L91.8663 331.16C88.531 320.929 86.9865 310.199 87.3005 299.442C87.3524 298.132 87.804 296.869 88.5947 295.823C89.3854 294.777 90.4773 293.999 91.7237 293.592L124.337 283.012C125.602 282.608 126.961 282.603 128.23 282.996C129.498 283.39 130.616 284.164 131.43 285.214C137.978 293.753 143.018 303.35 146.33 313.589L149.856 324.433C153.182 334.653 154.726 345.368 154.422 356.11C154.388 357.438 153.942 358.722 153.146 359.785C152.35 360.848 151.243 361.637 149.978 362.042L117.366 372.662Z" fill="#1A1A1A"/>
<path d="M95.3722 330.12L98.8781 340.944C99.0615 341.495 99.2246 342.024 99.408 342.534C99.7291 343.47 100.403 344.244 101.287 344.689C102.171 345.135 103.193 345.217 104.137 344.919L144.434 331.853C145.375 331.549 146.157 330.885 146.611 330.008C147.066 329.13 147.155 328.108 146.86 327.164C146.697 326.634 146.534 326.104 146.35 325.574L142.844 314.73C142.661 314.159 142.457 313.568 142.253 312.997C141.925 312.08 141.25 311.327 140.374 310.9C139.498 310.474 138.49 310.407 137.565 310.714L97.2882 323.76C96.3587 324.056 95.5813 324.703 95.1208 325.563C94.6603 326.423 94.5531 327.429 94.8219 328.367L95.3722 330.12Z" fill="#303030"/>
<path d="M137.321 301.44C134.794 296.504 131.812 291.816 128.413 287.436C128.066 286.996 127.594 286.673 127.058 286.509C126.523 286.345 125.95 286.348 125.417 286.518L92.804 297.098C92.2667 297.267 91.7954 297.599 91.4557 298.049C91.116 298.498 90.9247 299.042 90.9083 299.605C90.7515 305.13 91.1063 310.657 91.9683 316.116C92.0451 316.604 92.2175 317.071 92.4754 317.492C92.7333 317.913 93.0718 318.279 93.4713 318.568C93.8709 318.858 94.3237 319.066 94.8038 319.181C95.2839 319.295 95.7818 319.314 96.2691 319.235L96.8398 319.092L135.038 306.719C135.51 306.579 135.951 306.347 136.334 306.036C136.716 305.726 137.034 305.343 137.269 304.909C137.504 304.476 137.651 304 137.702 303.51C137.752 303.019 137.706 302.524 137.565 302.051C137.501 301.841 137.419 301.636 137.321 301.44Z" fill="#303030"/>
<path d="M104.382 354.194C106.885 359.174 109.847 363.91 113.228 368.341C113.569 368.787 114.041 369.116 114.579 369.281C115.116 369.445 115.691 369.437 116.224 369.258L148.837 358.679C149.403 358.524 149.904 358.19 150.264 357.727C150.624 357.264 150.824 356.697 150.834 356.11C150.992 350.572 150.637 345.031 149.775 339.558C149.707 339.065 149.543 338.589 149.29 338.16C149.038 337.73 148.704 337.355 148.306 337.056C147.908 336.756 147.454 336.538 146.972 336.415C146.489 336.292 145.987 336.265 145.494 336.337C145.229 336.367 144.969 336.429 144.72 336.521L106.501 348.914C105.562 349.235 104.787 349.914 104.348 350.805C103.908 351.695 103.84 352.723 104.157 353.664C104.219 353.846 104.294 354.023 104.382 354.194Z" fill="#303030"/>
<path d="M65.3888 292.919C59.5191 292.919 53.7812 291.178 48.9007 287.917C44.0202 284.656 40.2164 280.02 37.9701 274.597C35.7239 269.174 35.1362 263.206 36.2813 257.449C37.4264 251.692 40.253 246.404 44.4035 242.253C48.554 238.102 53.842 235.275 59.5989 234.13C65.3558 232.985 71.323 233.573 76.7459 235.819C82.1688 238.065 86.8038 241.87 90.0649 246.75C93.3259 251.631 95.0665 257.369 95.0665 263.239C95.0611 271.109 91.9326 278.655 86.3681 284.22C80.8036 289.785 73.2581 292.914 65.3888 292.919ZM65.3888 238.799C60.5511 238.799 55.8221 240.233 51.7997 242.921C47.7773 245.609 44.6423 249.429 42.791 253.899C40.9397 258.369 40.4553 263.287 41.3991 268.032C42.3429 272.777 44.6724 277.135 48.0932 280.556C51.5139 283.977 55.8722 286.307 60.6169 287.251C65.3616 288.195 70.2796 287.71 74.7491 285.859C79.2185 284.008 83.0385 280.872 85.7262 276.85C88.4139 272.827 89.8484 268.098 89.8484 263.26C89.8484 256.772 87.2714 250.55 82.6843 245.963C78.0973 241.376 71.8759 238.799 65.3888 238.799Z" fill="#969696"/>
<path d="M65.3888 291.003C59.9061 291.007 54.5453 289.385 49.9844 286.342C45.4235 283.299 41.8673 278.972 39.7654 273.908C37.6636 268.844 37.1105 263.27 38.1762 257.892C39.2418 252.513 41.8783 247.572 45.7523 243.692C49.6263 239.812 54.5638 237.168 59.9403 236.094C65.3169 235.02 70.891 235.565 75.9579 237.66C81.0248 239.754 85.3568 243.304 88.4062 247.861C91.4555 252.418 93.0853 257.777 93.0893 263.26C93.0893 270.61 90.1722 277.661 84.9785 282.863C79.7848 288.064 72.7392 290.992 65.3888 291.003ZM65.3888 236.862C60.148 236.862 55.0249 238.416 50.6673 241.328C46.3097 244.24 42.9134 248.378 40.9079 253.221C38.9023 258.063 38.3776 263.391 39.4 268.531C40.4224 273.672 42.9461 278.394 46.6519 282.1C50.3577 285.806 55.0792 288.329 60.2193 289.352C65.3594 290.374 70.6872 289.85 75.5291 287.844C80.371 285.838 84.5094 282.442 87.421 278.084C90.3326 273.726 91.8867 268.603 91.8867 263.362C91.8867 256.333 89.095 249.593 84.1256 244.624C79.1563 239.654 72.4165 236.862 65.3888 236.862Z" fill="#E0E0E0"/>
<path d="M32.0625 263.158V272.534C32.5457 272.256 33.0808 272.08 33.6347 272.017C34.1886 271.954 34.7496 272.005 35.283 272.168L48.9193 276.611V268.58L33.0001 263.341C32.684 263.3 32.3709 263.238 32.0625 263.158Z" fill="#303030"/>
<path d="M90.6433 283.44C89.9469 283.478 89.2573 283.285 88.6822 282.891C88.107 282.496 87.6785 281.922 87.4636 281.259L86.0164 276.774C85.8739 276.233 85.8739 275.664 86.0164 275.123L76.9867 271.046C74.9081 273.431 73.7259 276.466 73.6439 279.628C73.4692 286.38 73.9608 293.133 75.1115 299.788L85.7106 291.512L90.6433 283.44Z" fill="#303030"/>
<path d="M70.831 222.104L57.2152 231.053C54.8469 233.06 53.1372 235.733 52.3084 238.725C51.4796 241.717 51.57 244.889 52.5678 247.829C55.2437 249.78 58.4981 250.774 61.8074 250.652C65.1168 250.53 68.2888 249.298 70.8132 247.154C73.3377 245.011 75.0679 242.08 75.7255 238.835C76.3831 235.589 75.9299 232.216 74.4388 229.259L70.831 222.104Z" fill="#CF8B50"/>
<path d="M108.703 162.582L113.595 170.98C115.323 173.949 115.946 177.433 115.353 180.817C114.76 184.2 112.989 187.265 110.354 189.469L96.9825 204.533C92.7443 209.283 87.9071 213.463 82.592 216.967L60.0892 231.766C57.368 234.062 55.5242 237.228 54.8704 240.727C54.2166 244.227 54.7929 247.845 56.5018 250.968L59.4165 256.329C60.8777 259.006 63.3008 261.027 66.1956 261.984C69.0905 262.942 72.2409 262.764 75.0095 261.487L108.315 246.158C111.169 244.799 113.955 243.372 116.672 241.877L152.995 221.207C162.989 215.527 172.314 208.744 180.797 200.986L220.585 164.641C229.504 156.507 241.128 151.981 253.198 151.941H301.18L299.732 109.134L108.703 162.582Z" fill="#FABB85"/>
<path d="M86.6483 253.904C87.1607 252.906 87.4395 251.804 87.4636 250.683C86.8725 247.136 81.5118 244.771 73.1955 242.529C70.3433 241.657 67.3037 241.601 64.4215 242.369C61.5394 243.136 58.9299 244.696 56.889 246.871C57.1697 247.985 57.5873 249.06 58.1324 250.071L61.1491 255.351C62.3368 257.576 64.3317 259.262 66.7238 260.062C69.1159 260.862 71.7235 260.715 74.0108 259.652L86.6483 253.904Z" fill="#FAD5B4"/>
<path d="M299.834 109.175V62.5764H278.004C273.052 92.1076 272.051 122.166 275.028 151.962H301.282L299.834 109.175Z" fill="#CF8B50"/>
<path d="M324.09 177.666L320.014 38.7881L280.022 40.6227C275.117 86.8876 276.488 133.603 284.099 179.501L324.09 177.666Z" fill="#E6E6E6"/>
<path d="M300.568 92.6434C293.561 91.4592 286.445 91.0558 279.349 91.4407C279.472 75.1332 280.321 59.0908 281.897 43.3134L317.751 41.6826L319.321 94.4576C312.574 93.7033 307.784 94.0499 300.568 92.6434Z" fill="#F2F2F2"/>
<path d="M629 182.477L302.219 184.108C297.164 128.723 296.104 92.5617 297.755 33.6307L629 32V182.477Z" fill="#262626"/>
<path d="M629 107.993C620.48 104.69 309.19 103.019 299.549 103.182C299.08 83.1238 299.162 62.7599 299.916 36.3214L629 34.813V107.993Z" fill="#424242"/>
</g>
<rect x="605" width="24" height="263" rx="5" fill="#0E1738"/>
<defs>
<clipPath id="clip0">
<rect width="629" height="366" fill="white" transform="translate(0 32)"/>
</clipPath>
</defs>
</svg>
