<svg xmlns="http://www.w3.org/2000/svg" width="363" height="362" fill="none" xmlns:v="https://vecta.io/nano"><style><![CDATA[.B{fill:#ffc5b4}.C{fill:#f7b690}.D{fill-rule:evenodd}.E{fill:#222b56}.F{fill:#d1d6d0}.G{fill:#fdd247}.H{fill:#232b59}.I{fill:#009a99}.J{fill:#1d1d1d}.K{fill:#f39100}.L{fill:#007aa9}]]></style><g clip-path="url(#A)"><g class="B"><path d="M152.925 151.312c-1.224 2.428 8.546 5.082 10.387 3.658 3.374-2.599 7.575-15.942 13.232-21.863 1.72-1.799 3.556-4.001 3.148-6.457-.359-2.207-21.502-12.979-21.535-3.184-.027 5.05 2.062 21.555-5.232 27.846z"/><path d="M181.384 97.641c-2.205-11.588-8.154-21.709-16.953-28.695-1.582-1.258-9.042 4.332-9.102 5.518-.684 14.193 3.027 50.051 4.598 53.748s18.706 1.733 19.296-.132c2.04-6.589 2.823-26.974 2.161-30.439z"/></g><path d="M191.132 259.525c-1.274 3.863-3.137 8.245-6.616 9.332-2.41.75-10.183-4.018-11.876-5.932s-8.507-87.493-6.141-93.111c3.153-7.532 35.968-3.818 36.717 9.255.965 16.715-1.196 34.494-4.41 51.066-1.945 9.947-4.508 19.763-7.674 29.39z" fill="#222b54" class="D"/><g class="B"><path d="M252.113 335.126c-3.302 1.733-6.953 2.693-10.679 2.809l-3.6-12.505a3.31 3.31 0 0 1-.182-1.616c.182-.784.899-1.314 1.604-1.711 2.652-1.49 6.903-3.162 8.243.353l4.614 12.67zm-67.702 10.054c-3.695.541-7.465.237-11.026-.888l.507-12.996a3.27 3.27 0 0 1 .331-1.583c.419-.679 1.268-.939 2.056-1.104 2.988-.552 7.548-.695 7.718 3.063l.414 13.508z"/></g><g class="D"><path d="M171.582 248.903c3.672-7.671 14.45-12.924 21.248.375 10.359 20.285-7.576 58.229-7.493 82.719h-12.57c-.695-2.367-3.22-78.84-1.185-83.094z" fill="#222b54"/><path d="M177.464 64.012c-.27-2.378-7.635-5.154-9.653-3.791-8.242 5.563-10.078 7.566-12.554 12.411-3.92 7.687-2.167 16.897-2.167 26.112l23.818 1.468a139.23 139.23 0 0 0 .556-36.2z" class="I"/><g fill="#0a3c5f"><path d="M216.856 259.525c-1.058 3.863-2.679 8.245-6.064 9.332-2.366.75-7.449-9.034-9.252-10.943s-19.241-74.309-17.206-79.927c2.756-7.538 9.593-12.416 16.639-13.542 10.249-1.655 22.052 1.551 23.513 14.624 1.891 16.714.717 34.494-1.587 51.066-1.385 9.916-3.403 19.733-6.043 29.39z"/><path d="M199.219 251.667c.271-8.2 9.345-17.796 20.206-6.693 17.483 17.879 22.604 51.987 29.413 77.333l-11.859 4.166c-1.648-1.937-37.908-70.242-37.76-74.806z"/></g><path d="M225.843 116.281c4.261-13.69 9.493-30.598 7.134-44.907-5.789-7.074-18.618-17.013-42.088-17.013-14.29 0-20.675 3.774-28.266 9.563-4.521 3.449-4.411 16.246-3.628 21.698.976 6.705 7.167 34.307 8.105 58.036.672 17.36-3.86 30.35-3.485 43.042h64.212c-5.645-24.396-6.279-56.628-1.984-70.419z" class="I"/></g><path d="M244.235 96.245c-5.096-12.051-13.571-22.365-24.402-29.694-1.94-1.308-8.314 4.415-8.082 5.678 2.685 14.64 15.101 51.646 17.604 55.47s19.759 1.876 19.908-.044c.557-6.804-3.507-27.835-5.028-31.41z" class="B"/><path d="M207.225 70.11c.121-2.378 12.796-9.591 14.709-7.963 4.322 3.675 7.432 4.685 11.026 9.226 6.065 7.632 11.716 19.496 13.552 28.849h-31.723c-2.498-11.875-8.198-18-7.564-30.113z" class="D I"/><path d="M184.56 41.426c1.61-7.102 8.854-8.493 11.974-6.788-1.102 12.107 1.963 22.255 1.368 22.537-6.55 3.068-14.307 3.129-16.496.033 1.748-4.828 2.321-12.107 3.154-15.782z" class="B"/><path d="M194.307 14.971c-5.293-7.488-17.03-6.953-21.805 1.573-4.372 7.803-2.205 31.659 8.039 31.659 7.58 0 12.68-3.863 14.141-7.091A25.8 25.8 0 0 0 196 37.249c2.707 3.129 8.269-7.726 2.017-8.277.078-4.884-1.499-10.876-3.71-14z" class="C"/><g class="D"><path d="M164.53 10.22c.656.877 3.507-.121 5.26-.182-1.02.612-4.708 5.634-3.523 5.772s4.835-.96 5.668-1.374c-.552.469-4.345 3.421-2.476 4.933.623.497 16.683-1.242 17.913-1.104 10 1.214 7.001 14.508 7.795 14.496.634-1.6 6.726-7.869 5.111 1.976 5.249-5.093 18.442-27.591-6.754-29.799-2.58-.232-23.006-13.089-28.828 3.747-.144.359-.403 1.186-.166 1.534z" class="E"/><g fill="#66bcd5"><path d="M239.212 346.4c-.661-1.656-.452-3.311.138-3.984s.733-3.896.777-8.592c0-2.147 3.678-4.034 6.748-1.424.998.844 1.82 1.33 2.509 1.065.579-.226.877-1.479 1.654-.999.706.42 1.389 1.937 1.908 3.013l2.646 5.574.551 1.274-16.032 5.629a5.35 5.35 0 0 1-.899-1.556zm-80.096 6.329c-.071-1.799.679-3.311 1.45-3.713s11.17-3.438 12.763-7.853c.728-2.02 4.802-2.588 6.842.889.656 1.103 1.274 1.859 2.013 1.832.623 0 1.317-1.104 1.913-.387.523.629.667 2.29.805 3.471l.661 6.137a18.56 18.56 0 0 1 .11 1.396h-26.182c-.225-.565-.352-1.164-.375-1.772z"/></g></g><path d="M202.886 150.407c-2.25.612 3.236 5.518 5.436 6.257s31.871-17.658 37.517-23.557c1.715-1.799 3.55-4.001 3.148-6.457-.364-2.207-13.695-10.021-20.636-3.118-1.869 1.844-22.091 25.953-25.465 26.875z" class="B"/><g fill="#0a3c5f" class="D"><path d="M184.301 62.931l7.233 8.162 12.713-15.54-5.634-1.192-14.312 8.57z"/><path d="M184.301 62.931l-5.789 8.084-2.95-14.519 6.07-1.705 2.669 8.139z"/></g><g class="B"><path d="M205.416 162.79c-.656-1.076 2.321-5.348 3.308-6.104 1.103-.822 2.856-.634 2.906-2.008.115-3.201-3.209-5.281-6.986-4.652s-11.991 4.872-12.812 8.608c-.739 3.344-1.401 6.12 1.615 7.726 2.58 1.374 5.32 1.148 8.005.314 2.972-.899 4.615-2.814 3.964-3.884zm-45.059 0c0-1.259-.281-5.348.722-6.104 1.103-.822 3.181-2.207 2.933-3.614-.551-3.157-8.534-4.415-11.611-1.203-2.646 2.759-4.785 3.029-5.612 6.765-.739 3.344-.138 6.567 1.621 7.726a7.09 7.09 0 0 0 3.964.988c1.373-.014 2.737-.241 4.041-.674 2.944-.899 3.942-2.621 3.942-3.884z"/></g><g fill="#000"><path d="M311.132 351.935a6.57 6.57 0 0 1-2.622 2.766c-1.128.643-2.421.936-3.716.844s-2.533-.567-3.558-1.364-1.792-1.879-2.203-3.111-.447-2.559-.105-3.812a6.57 6.57 0 0 1 2.026-3.229c.98-.852 2.19-1.395 3.477-1.559s2.595.057 3.757.636a6.62 6.62 0 0 1 3.283 3.809 6.63 6.63 0 0 1-.339 5.02z"/><path d="M302.829 342.25a6.56 6.56 0 0 1-2.621 2.761 6.55 6.55 0 0 1-3.712.841c-1.293-.093-2.529-.567-3.553-1.363a6.57 6.57 0 0 1-2.2-3.108c-.41-1.231-.447-2.556-.106-3.807a6.56 6.56 0 0 1 2.023-3.226c.978-.852 2.186-1.394 3.472-1.559a6.56 6.56 0 0 1 3.753.632c1.559.781 2.744 2.15 3.296 3.805s.425 3.462-.352 5.024z"/></g><path d="M334.502 315.79l-10.916-23.624c-.654-1.422-.72-3.045-.183-4.515s1.634-2.668 3.05-3.332a5.84 5.84 0 0 1 4.489-.204 5.84 5.84 0 0 1 1.958 1.192 5.86 5.86 0 0 1 1.349 1.854l10.916 23.624c.653 1.422.718 3.044.181 4.514a5.93 5.93 0 0 1-3.048 3.333 5.86 5.86 0 0 1-2.224.553c-.771.035-1.541-.083-2.266-.347s-1.39-.67-1.958-1.193a5.86 5.86 0 0 1-1.348-1.855z" class="F"/><path d="M291.758 335.91l-34.915-83.696c-.886-2.147-.892-4.556-.015-6.707s2.563-3.868 4.696-4.782l29.022-12.339c1.756-.749 3.711-.897 5.56-.422a8.69 8.69 0 0 1 4.672 3.048 56.94 56.94 0 0 0 4.934 5.723l7.763 7.632 23.414 72.383c.885 2.146.889 4.555.012 6.704s-2.565 3.867-4.698 4.78l-23.387 25.605c-1.808.761-4.41-2.208-8.578-7.726-1.594-2.152-7.377-7.56-8.48-10.203z" fill="#069995"/><path d="M261.326 259.156l-30.257-70.635 3.975-1.732 30.257 70.628-3.975 1.739z" fill="#d2d2d2"/><path d="M260.267 242.176l-.287.099-2.806.8a3.69 3.69 0 0 0-1.364.737 3.7 3.7 0 0 0-1.296 2.74c-.01.523.09 1.042.295 1.523l5.905 13.796a3.62 3.62 0 0 0 .807 1.18c.344.336.752.6 1.199.777s.925.263 1.406.254.955-.114 1.395-.308c.893-.39 1.595-1.118 1.955-2.024s.346-1.918-.036-2.815l-7.173-16.759z" fill="#363636"/><path d="M304.687 349.54l-34.91-83.696a8.84 8.84 0 0 1-.013-6.703c.876-2.149 2.562-3.867 4.694-4.781l29.033-12.339c1.053-.449 2.185-.686 3.33-.695s2.282.208 3.342.64 2.026 1.069 2.84 1.876a8.7 8.7 0 0 1 1.9 2.826l34.915 83.696a8.83 8.83 0 0 1 .011 6.709c-.878 2.15-2.568 3.868-4.703 4.78l-29.038 12.339c-1.053.447-2.184.682-3.329.69a8.66 8.66 0 0 1-6.174-2.519c-.813-.807-1.458-1.766-1.898-2.823z" fill="#00c4c3"/><g style="mix-blend-mode:screen"><path d="M333.482 331.495l-34.435-77.907c-.436-.99-.463-2.112-.076-3.122s1.158-1.826 2.143-2.27l1.053-.474c.487-.22 1.011-.341 1.545-.357s1.064.075 1.562.266.954.478 1.34.846.697.809.912 1.297l34.436 77.908a4.11 4.11 0 0 1 .075 3.122 4.1 4.1 0 0 1-2.143 2.269l-1.053.475c-.486.219-1.011.34-1.544.356s-1.064-.075-1.562-.266-.954-.478-1.341-.846-.696-.809-.912-1.297z" fill="#134569"/></g><path d="M283.169 246.293l-8.005-8.443 4.355-2.368 8.011 8.438-4.361 2.373z" class="F"/><path d="M273.581 273.509l-30.256-70.635 3.975-1.732 30.262 70.628-3.981 1.739z" fill="#f1f1f1"/><path d="M272.523 256.529l-.287.099-2.806.8a3.72 3.72 0 0 0-1.364.737 3.7 3.7 0 0 0-1.296 2.741c-.011.522.09 1.041.295 1.522l5.904 13.796c.189.442.464.843.809 1.178s.752.6 1.199.777a3.65 3.65 0 0 0 1.405.255 3.64 3.64 0 0 0 1.395-.306 3.7 3.7 0 0 0 1.955-2.025c.359-.906.346-1.918-.036-2.815l-7.173-16.759z" fill="#555"/><path d="M242.939 203.04l-12.173-14.386 4.421-1.965 11.898 14.938-4.146 1.413z" fill="#bbb"/><g class="J"><path d="M121.886 357.519h-3.689c-1.237 0-2.423-.492-3.298-1.367a4.67 4.67 0 0 1-1.366-3.301c0-.613.121-1.22.355-1.786a4.66 4.66 0 0 1 1.012-1.513 4.64 4.64 0 0 1 1.513-1.011 4.65 4.65 0 0 1 1.784-.353h3.689c1.235 0 2.42.491 3.294 1.366a4.66 4.66 0 0 1 1.011 5.083c-.233.566-.576 1.081-1.009 1.515a4.68 4.68 0 0 1-1.512 1.012 4.67 4.67 0 0 1-1.784.355zm55.953 0h-3.688c-1.237 0-2.423-.492-3.298-1.367a4.67 4.67 0 0 1-1.366-3.301c0-.613.12-1.22.355-1.786a4.67 4.67 0 0 1 1.011-1.513 4.65 4.65 0 0 1 1.513-1.011c.566-.234 1.173-.354 1.785-.353h3.688c.612-.001 1.219.119 1.785.353a4.64 4.64 0 0 1 1.513 1.011c.433.433.777.947 1.011 1.513s.355 1.173.355 1.786a4.67 4.67 0 0 1-1.366 3.301 4.66 4.66 0 0 1-3.298 1.367z"/></g><path d="M132.907 170.283v63.555h31.882v-63.555h-31.882zm26.463 59.471h-21.022v-55.376h20.983l.039 55.376z" fill="#7d7d7d"/><path d="M139.655 182.589v-6.914h18.392v6.914h8.044v-13.613h-34.485v13.613h8.049z" fill="#7d7670"/><path d="M152.649 352.933h-6.66c-22.24 0-40.246 3.758-40.246-18.497v-90.108c0-22.255 18.023-18.497 40.246-18.497h6.66c22.235 0 40.247-3.758 40.247 18.497v90.108c.016 22.255-18.012 18.497-40.247 18.497z" class="K"/><g style="mix-blend-mode:screen" class="J"><path d="M115.821 343.79v-61.016c-.003-.855.163-1.702.487-2.493s.801-1.51 1.403-2.116a6.51 6.51 0 0 1 2.106-1.417 6.5 6.5 0 0 1 2.488-.502h7.035v-40.764c.003-1.346-.528-2.638-1.476-3.593s-2.235-1.494-3.58-1.5h-5.513c-1.346.004-2.635.543-3.584 1.498s-1.48 2.248-1.477 3.595v107.794c-.007 1.142.37 2.252 1.07 3.152s1.682 1.54 2.789 1.815c-1.125-1.209-1.75-2.801-1.748-4.453z"/></g><path d="M176.014 350.312h-53.709c-.854-.002-1.699-.172-2.486-.501s-1.504-.81-2.106-1.416a6.5 6.5 0 0 1-1.403-2.114c-.325-.791-.491-1.637-.489-2.491v-61.016c-.003-.855.163-1.702.487-2.493s.801-1.51 1.403-2.116a6.51 6.51 0 0 1 2.106-1.417 6.5 6.5 0 0 1 2.488-.502h53.709a6.5 6.5 0 0 1 4.585 1.924 6.52 6.52 0 0 1 1.888 4.604v61.016c.003 1.723-.677 3.377-1.89 4.599a6.5 6.5 0 0 1-4.583 1.923z" class="K"/><path d="M175.077 278.243h-52.166a5.48 5.48 0 0 0-5.474 5.48v59.145a5.48 5.48 0 0 0 5.474 5.48h52.166a5.48 5.48 0 0 0 5.475-5.48v-59.145a5.48 5.48 0 0 0-5.475-5.48z" fill="#d97b06"/><g style="mix-blend-mode:screen" class="J"><path d="M129.808 345.23h-5.855c-.317-.002-.631-.066-.923-.188s-.558-.302-.781-.528a2.42 2.42 0 0 1-.52-.786 2.43 2.43 0 0 1-.18-.926v-59.013a2.43 2.43 0 0 1 .18-.926 2.42 2.42 0 0 1 .52-.786c.223-.226.489-.405.781-.528s.606-.186.923-.188h5.855c.317.002.631.066.923.188s.558.302.782.528a2.42 2.42 0 0 1 .519.786 2.43 2.43 0 0 1 .18.926v59.013a2.43 2.43 0 0 1-.18.926 2.42 2.42 0 0 1-.519.786c-.224.226-.489.405-.782.528s-.606.186-.923.188z"/></g><path d="M162.965 249.427h-28.592a16.35 16.35 0 0 1-11.532-4.829c-3.053-3.075-4.763-7.236-4.754-11.572v-25.538c-.009-4.335 1.701-8.497 4.754-11.572a16.35 16.35 0 0 1 11.532-4.829h28.592a16.35 16.35 0 0 1 11.531 4.829 16.38 16.38 0 0 1 4.755 11.572v25.511c.016 4.34-1.691 8.508-4.745 11.589s-7.206 4.821-11.541 4.839zm-28.592-57.01a15.04 15.04 0 0 0-10.603 4.436c-2.809 2.825-4.385 6.649-4.382 10.635v25.511a15.07 15.07 0 0 0 4.376 10.645 15.04 15.04 0 0 0 10.609 4.442h28.592c3.984-.016 7.799-1.614 10.607-4.442s4.381-6.657 4.372-10.645v-25.511c.009-3.988-1.564-7.816-4.372-10.645a15.03 15.03 0 0 0-10.607-4.442l-28.592.016z" fill="#d97b06"/><path d="M157.126 234.676c0 1.264-3.352 2.291-7.481 2.291s-7.482-1.027-7.482-2.291 3.347-2.295 7.482-2.295 7.481 1.043 7.481 2.295z" class="K"/><path d="M156.476 234.02c0 1.263-3.352 2.29-7.482 2.29s-7.481-1.027-7.481-2.29 3.346-2.296 7.481-2.296 7.482 1.027 7.482 2.296z" fill="#9b897b"/><g style="mix-blend-mode:screen"><path d="M150.984 233.363c0 .552-1.472 1.01-3.307 1.01s-3.308-.453-3.308-1.01 1.472-1.01 3.308-1.01 3.307.453 3.307 1.01z" fill="#9b897b"/></g><g fill="#000"><path d="M212.672 353.574c-1.015.918-2.279 1.514-3.632 1.714a6.91 6.91 0 0 1-3.972-.591 6.92 6.92 0 0 1-2.977-2.698 6.93 6.93 0 0 1 .367-7.685 6.93 6.93 0 0 1 3.22-2.402c1.287-.464 2.682-.537 4.01-.209a6.92 6.92 0 0 1 3.452 2.054c.614.675 1.088 1.465 1.397 2.323s.445 1.771.401 2.682-.266 1.806-.655 2.632a6.96 6.96 0 0 1-1.611 2.18z"/><path d="M208.184 340.887a6.93 6.93 0 0 1-3.632 1.713c-1.353.199-2.735-.007-3.971-.592a6.93 6.93 0 0 1-2.975-2.699c-.704-1.173-1.045-2.53-.979-3.897s.533-2.685 1.345-3.786 1.933-1.937 3.219-2.402a6.92 6.92 0 0 1 4.009-.211c1.328.328 2.529 1.041 3.452 2.051a6.94 6.94 0 0 1 1.397 2.326 6.96 6.96 0 0 1 .402 2.683 6.97 6.97 0 0 1-.655 2.633c-.389.826-.937 1.567-1.612 2.181z"/></g><path d="M249.423 326.909l-1.754-27.409a6.26 6.26 0 0 1 1.538-4.507c1.086-1.24 2.618-2 4.262-2.115a6.15 6.15 0 0 1 2.405.298 6.16 6.16 0 0 1 2.104 1.201 6.18 6.18 0 0 1 1.48 1.92 6.16 6.16 0 0 1 .627 2.342l1.753 27.415a6.26 6.26 0 0 1-1.539 4.505 6.25 6.25 0 0 1-4.261 2.117 6.17 6.17 0 0 1-2.405-.298 6.18 6.18 0 0 1-2.105-1.203 6.2 6.2 0 0 1-1.48-1.922c-.361-.732-.574-1.529-.625-2.344z" class="F"/><path d="M199.699 330.424l-2.525-95.687a9.3 9.3 0 0 1 2.531-6.608c1.681-1.783 3.997-2.829 6.444-2.911l33.278-1.076a9.16 9.16 0 0 1 5.632 1.701 9.17 9.17 0 0 1 3.437 4.777c.727 2.551 1.62 5.05 2.674 7.483l4.736 10.485-4.504 80.159a9.31 9.31 0 0 1-2.525 6.608 9.29 9.29 0 0 1-6.44 2.916l-32.765 16.279c-2.067.067-3.517-3.862-5.513-10.882-.722-2.698-4.377-10.22-4.46-13.244z" fill="#b02d61"/><path d="M198.944 243.279l-2.911-81.052 4.576-.188 2.911 81.047-4.576.193z" fill="#d2d2d2"/><path d="M204.358 226.167h-.32l-3.065-.287a3.89 3.89 0 0 0-1.623.206c-.52.182-.996.473-1.396.854a3.91 3.91 0 0 0-.923 1.351 3.92 3.92 0 0 0-.287 1.612l.551 15.81c.02.507.14 1.005.352 1.466s.513.875.885 1.219.809.612 1.284.788.981.255 1.487.235c1.029-.043 1.998-.491 2.697-1.247a3.9 3.9 0 0 0 1.036-2.787l-.678-19.22z" fill="#363636"/><path d="M207.241 348.756l-2.525-95.682c-.062-2.451.846-4.827 2.528-6.611a9.28 9.28 0 0 1 6.448-2.908l33.272-1.103a9.15 9.15 0 0 1 3.543.584c1.131.427 2.167 1.074 3.047 1.904a9.17 9.17 0 0 1 2.081 2.929 9.18 9.18 0 0 1 .795 3.506l2.525 95.726c.059 2.451-.851 4.827-2.533 6.61a9.29 9.29 0 0 1-6.448 2.909l-33.272 1.103c-1.212.042-2.419-.159-3.553-.588s-2.171-1.081-3.051-1.915a9.17 9.17 0 0 1-2.076-2.945c-.491-1.11-.756-2.306-.781-3.519z" fill="#cb3470"/><g style="mix-blend-mode:screen"><path d="M242.443 341.98l-4.273-89.794c-.051-1.14.349-2.254 1.114-3.101a4.33 4.33 0 0 1 2.971-1.419l1.219-.066c.561-.033 1.123.045 1.654.23s1.02.473 1.44.848a4.27 4.27 0 0 1 1.003 1.336 4.28 4.28 0 0 1 .413 1.62l4.261 89.805c.051 1.141-.35 2.256-1.116 3.102a4.32 4.32 0 0 1-2.974 1.417l-1.219.067c-.56.03-1.121-.05-1.651-.237s-1.017-.477-1.434-.853-.757-.83-.998-1.337-.381-1.057-.41-1.618z" fill="#244369"/></g><path d="M225.341 238.942l-4.675-11.357 5.193-.673 4.67 11.362-5.188.668z" class="F"/><path d="M205.549 262.075l-2.911-81.047 4.57-.194 2.917 81.048-4.576.193z" fill="#f1f1f1"/><path d="M210.963 244.963h-.32l-3.066-.282c-.549-.048-1.102.021-1.622.203s-.996.473-1.396.853-.714.84-.923 1.35-.307 1.06-.287 1.611l.551 15.816c.042 1.023.487 1.987 1.239 2.681s1.747 1.062 2.769 1.022a3.9 3.9 0 0 0 2.695-1.245c.699-.755 1.072-1.755 1.038-2.784l-.678-19.225z" fill="#555"/><path d="M202.191 181.039l-6.506-18.796 5.1-.248 6.026 19.237-4.62-.193z" fill="#bbb"/><path d="M87.026 30.472C80.239 24.7 76.953 16.555 75.602 15.86s-3.446-2.472-7.47-2.147-4.543 3.901-8.909 5.982-2.961 13.967-7.95 17.863 35.753-7.085 35.753-7.085z" class="G"/><path d="M86.993 42.347c13.524-1.104 17.355-13.741-7.437-11.721S29.038 47.066 45.76 45.703l41.233-3.355z" fill="#e57e22"/><g class="E"><path d="M59.543 38.253c-8.132 5.485-13.232 5.182-11.197 10.722 1.229 3.311-8.821 1.556-.551 13.393 5.59 7.963-11.716 5.717-11.776 16.77s10.045 7.67 8.639 18.845 27.698 8.183 32.214-10.126 3.639-54.664-4.036-54.631c-7.878.039-10.26 2.98-13.292 5.027z"/><path d="M87.109 35.543c11.787 6.782 9.88 5.949 7.768 11.467-1.257 3.311 8.358 3.863-.083 15.6-5.673 7.908 11.66 5.838 11.578 16.892s-10.106 7.566-8.821 18.762-27.781 7.897-32.103-10.485-3.159-53.362 4.455-54.305 14.042.243 17.207 2.069z"/></g><path d="M64.085 73.487c-13.381-1.186-30.174 6.125-35.544 14.348S7.134 124.934 8.656 134.983s13.397 21.223 19.886 21.058 8.738-11.55 10.475-9.674c1.042 1.104-3.01 7.13 4.642 11.291s58.286 14.402 59.438 2.091-2.432-11.108 1.147-12.311 13.783.64 16.539-6.942c4.819-13.217-8.705-54.135-19.798-60.762-15.045-8.984-36.9-6.247-36.9-6.247z" fill="#cb3470"/><path d="M94.75 351.824l2.078-.894s-.937-4.933.8-5.485-3.859-1.655-3.859-1.655l-1.202 4.061 2.183 3.973z" fill="#062338"/><path d="M119.73 351.913c-.446.342-16.22.551-17.686 0-1.02-.403-2.013-5-5.563-5.265-3.192-.237-.739 5.281-1.731 5.176-6.224-.667-7.625-.441-7.498-.949 1.913-7.654-4.818-8.156.314-16.163 2.205.739 8.722-1.032 9.009-1.655 4.449 2.99 9.372 10.92 10.69 11.748 3.148 1.931 12.057 3.134 12.465 7.108z" fill="#0a3c60"/><path d="M34.452 349.65l2.635-2.08s-.254-3.863 1.224-4.321-4.201-1.727-4.201-1.727l-1.191 5.518 1.533 2.61z" fill="#062338"/><path d="M59.19 353.723c-.309.182-4.863 1.385-10.199.364-3.049-.585-7.355-1.705-9.312-3.267-.976-.784-1.196-5.794-2.332-6.164-4.317-1.407-2.36 5.115-2.894 4.966-5.243-1.225-6.164-1.76-6.065-2.207 1.103-5.518-1.229-8.012 3.424-12.984 1.996.938 8.595-2.02 8.937-2.588 3.859 3.642 8.325 13.911 9.477 14.827 2.701 2.202 9.025 3.295 8.964 7.053z" fill="#0a3c60"/><g fill="#7367e4"><path d="M107.794 135.551H58.82v201.512h48.974V135.551z"/><path d="M60.557 164.583c21.325-3.863 43.885 22.029 50.396 57.87h-2.613v37.459h2.613a70.39 70.39 0 0 1-2.972 10.484c-4.851 13.018-13.187 22.04-23.85 23.977-5.331.972-10.74.078-15.955-2.362-2.722-1.297-5.286-2.905-7.641-4.789a52.35 52.35 0 0 1-3.655-3.195h1.389v-118.39H56.67c1.264-.461 2.564-.813 3.887-1.054z"/></g><path d="M61.048 167.287c20.437-3.714 42.06 21.113 48.301 55.459h-1.009v24.738h2.475c-.42 7.241-1.881 14.384-4.339 21.207-4.653 12.477-12.636 21.119-22.857 22.978-5.105.933-10.288.078-15.288-2.268a37.69 37.69 0 0 1-7.327-4.585c-1.185-.939-2.354-1.965-3.501-3.063h.744V168.308h-.91a23.61 23.61 0 0 1 3.71-1.021z" fill="#7267e3"/><path d="M61.538 169.991c19.55-3.554 40.247 20.197 46.201 53.047 2.982 16.428 1.72 32.006-2.729 43.948s-12.085 20.203-21.86 21.979-19.848-3.266-28.189-12.868h3.308V172.502h-3.644a22.23 22.23 0 0 1 6.914-2.511z" fill="#7266e2"/><path d="M62.029 172.723c18.657-3.394 38.405 19.275 44.105 50.635s-4.813 59.537-23.469 62.909c-9.328 1.7-18.927-3.118-26.91-12.284h2.52V175.09h-2.839c2.051-1.15 4.28-1.95 6.594-2.367z" fill="#7166e1"/><path d="M62.52 175.399c17.769-3.234 36.575 18.359 41.999 48.224s-4.581 56.706-22.372 59.934c-8.887 1.617-18.028-2.968-25.631-11.698h1.731v-94.17h-2.012c1.955-1.104 4.078-1.878 6.285-2.29z" fill="#7165e0"/><path d="M63.01 178.103c16.881-3.068 34.733 17.443 39.899 45.802s-4.35 53.875-21.231 56.976c-8.441 1.54-17.129-2.82-24.346-11.114h.937v-89.495H57.04c1.857-1.049 3.875-1.781 5.971-2.169z" fill="#7065df"/><path d="M63.501 180.807c15.988-2.908 32.919 16.522 37.804 43.401s-4.124 51.033-20.118 53.942c-8 1.456-16.225-2.677-23.067-10.529h.149V182.86h-.419a18.08 18.08 0 0 1 5.651-2.053z" fill="#7064de"/><path d="M63.997 183.511c15.101-2.759 31.084 15.606 35.698 40.99s-3.898 48.196-18.998 50.945c-7.553 1.374-15.327-2.528-21.788-9.933-.805-.927-1.593-1.91-2.354-2.942h1.715V187.07h-2.034a19.18 19.18 0 0 1 2.415-1.611c1.663-.941 3.47-1.599 5.348-1.948z" fill="#6f64dd"/><path d="M64.504 186.215c14.213-2.583 29.259 14.689 33.598 38.578s-3.666 45.361-17.879 47.949c-7.112 1.296-14.423-2.379-20.504-9.381-1.584-1.828-3.024-3.776-4.306-5.828h2.872v-66.092h-3.203a17.52 17.52 0 0 1 9.422-5.226z" fill="#6f63dc"/><path d="M64.979 188.919c13.309-2.401 27.428 13.768 31.502 36.167s-3.435 42.529-16.76 44.952c-6.665 1.214-13.524-2.208-19.224-8.774a44.05 44.05 0 0 1-4.036-5.464h1.814v-61.981h-2.106a16.38 16.38 0 0 1 8.81-4.9z" fill="#6e63db"/><path d="M65.469 191.623c12.438-2.263 25.598 12.852 29.396 33.761s-3.203 39.687-15.646 41.939c-6.219 1.131-12.62-2.081-17.94-8.189-1.384-1.601-2.642-3.306-3.766-5.099h.755v-57.838h-1.025c2.193-2.352 5.072-3.953 8.226-4.574z" fill="#6e62da"/><path d="M65.96 194.327c11.578-2.103 23.773 11.936 27.301 31.349s-2.983 36.851-14.533 38.954c-5.772 1.054-11.716-1.932-16.655-7.604-2.657-3.121-4.851-6.61-6.511-10.358h2.707v-44.207h-2.911c.835-1.406 1.829-2.711 2.961-3.891 2.041-2.179 4.713-3.664 7.641-4.243z" fill="#6d62d9"/><path d="M66.451 197.031c10.662-1.937 21.942 11.036 25.201 28.938s-2.757 34.02-13.414 35.957c-5.331.971-10.817-1.783-15.376-7.019-2.452-2.881-4.475-6.1-6.009-9.558h1.417v-36.327h-3.743c2.426-6.501 6.594-11.02 11.925-11.991z" fill="#6d61d7"/><path d="M66.941 199.762c9.775-1.777 20.118 10.099 23.1 26.527s-2.52 31.183-12.294 32.96-20.112-10.093-23.1-26.521h3.622v-22.001h-2.255c2.222-5.965 6.042-10.098 10.927-10.965z" fill="#6c61d6"/><path d="M67.432 202.439c8.887-1.617 18.287 9.182 21 24.114s-2.288 28.348-11.175 29.965-18.265-9.177-21.022-24.11h2.012v-19.954h-.772c2.067-5.446 5.513-9.204 9.957-10.015z" fill="#6c60d5"/><path d="M76.782 253.801c7.995-1.456 12.497-13.53 10.055-26.969s-10.904-23.154-18.9-21.698-12.497 13.53-10.055 26.969 10.904 23.154 18.9 21.698z" fill="#6b60d4"/><path d="M76.29 251.097c7.109-1.294 11.112-12.027 8.941-23.973s-9.694-20.581-16.803-19.286-11.112 12.027-8.941 23.973 9.694 20.581 16.803 19.286z" fill="#6b5fd3"/><path d="M75.799 248.394c6.219-1.133 9.721-10.524 7.821-20.977s-8.481-18.008-14.7-16.876-9.721 10.524-7.821 20.977 8.481 18.008 14.7 16.876z" fill="#6a5fd2"/><path d="M75.287 244.668c5.308-.976 8.284-9.002 6.647-17.926s-7.269-15.368-12.577-14.392-8.284 9.002-6.647 17.926 7.269 15.368 12.577 14.392z" fill="#6a5ed1"/><path d="M74.816 242.986c4.443-.809 6.944-7.517 5.587-14.983s-6.058-12.863-10.501-12.054-6.944 7.517-5.587 14.983 6.058 12.863 10.501 12.054z" fill="#695ed0"/><path d="M74.325 240.282c3.553-.646 5.553-6.013 4.468-11.986s-4.846-10.29-8.399-9.643-5.553 6.013-4.468 11.986 4.846 10.29 8.399 9.643z" fill="#695dcf"/><path d="M73.801 237.599c2.666-.485 4.168-4.51 3.355-8.99s-3.634-7.718-6.3-7.233-4.168 4.509-3.355 8.989 3.634 7.719 6.301 7.234z" fill="#685dce"/><path d="M71.363 224.07c1.775-.32 3.655 1.838 4.201 4.823s-.458 5.673-2.238 5.993-3.655-1.832-4.196-4.823.458-5.667 2.233-5.993z" fill="#685ccd"/><path d="M71.853 226.802c.888-.16 1.83.921 2.101 2.411s-.232 2.837-1.103 2.997-1.825-.916-2.1-2.412.215-2.858 1.103-2.996z" fill="#675ccc"/><path d="M70.63 243.599c4.344-10.683-3.109-60.298 13.083-106.922-10.425-3.372-26.414-.419-29.589 3.179-6.158 6.986-17.808 22.862-19.39 33.236-2.304 15.159 15.31 63.091 15.106 66.887-.116 2.28-6.505 9.967-10.177 15.076-12.405 17.267-5.193 67.76-7.867 79.464-.143.623 10.437 2.709 10.089-1.44l28.746-89.48z" fill="#7367e4"/><path d="M61.748 77.438c-3.617 1.628-8.821 11.037-10.095 15.17-1.935 6.445 6.98 23.971.165 45.802-3.545 11.351 43.124 11.748 42.452 7.483-2.387-14.674 1.693-44.097.127-51.872-1.224-6.208-7.647-15.109-13.634-18.326-4.069-2.196-9.389-2.583-19.015 1.744z" fill="#fff3c9"/><path d="M43.234 153.552c-2.508 5.998-6.257 23.756-8.716 29.484-1.886 4.415-2.139 4.476-3.942 2.969s-2.288-5.342-4.03-8.625-1.301-6.203 2.47-7.687 0-16.141 0-16.141h14.219z" class="H"/><path d="M25.432 173.606c0-2.257 2.486-3.902 3.054-3.896.966.109 1.895.437 2.715.959a6.41 6.41 0 0 1 2.021 2.054c1.185 2.063 2.757 3.073 3.804 2.841.463-.099-.171 2.208-.336 4.873-.204 3.261.331 7.108-2.503 7.262-.926-3.741-8.755-14.093-8.755-14.093z" fill="#113d9c"/><path d="M25.973 172.171c-1.935 1.186.182 11.075 4.107 14.579 1.604 1.429 5.739 1.606 5.822-.646.149-3.94-2.944-4.861-4.273-7.482-.871-1.733-.788-3.731-1.654-5.033-1.125-1.716-2.63-2.24-4.003-1.418z" fill="#929ee0"/><path d="M60.998 146.538c1.996 5.932-3.859 24.281-4.179 31.741-.116 2.793-.254 5.993.375 8.443 1.555 6.037-2.426 6.54-4.355 5.204s-2.861-4.701-4.896-7.814-3.253-5.546 0-7.957c4.411-3.272-3.661-23.359-3.661-23.359l16.716-6.258z" class="H"/><path d="M44.657 180.967c-.634-2.169 2.255-4.834 2.79-5.027 1.654-.552 3.065.43 4.774 2.08s3.523 2.18 4.449 1.656 2.95 11.588-.921 13.172c-1.902-3.311-11.093-11.881-11.093-11.881z" fill="#113d9c"/><path d="M45.137 179.521c-.893 1.534-.43 2.638.849 4.2.761.927 2.034 1.456 2.591 2.383 1.483 2.473 2.668 6.766 5.309 7.174s3.997-2.097 3.606-4.315c-.524-2.997-10.012-13.437-12.355-9.442z" fill="#929ee0"/><path d="M19.484 158.287c5.624 2.505 27.924.855 29.253 2.946 1.411 2.208 5.998 4.895 11.754 5.293 6.026.413 8.997-8.361 8.033-9.685-1.263-1.738-3.418-.668-3.076-4.095.116-1.192-1.511-.132-3.512.166-2.498.37-3.369-.806-5.26-.337a36.86 36.86 0 0 0-4.78 1.656c-1.549.425-32.616-16.881-37.324-15.032s-7.404 13.597 4.912 19.088z" class="C"/><path d="M12.851 135.198c-2.332 9.321-1.797 12.648.612 17.068s18.866 5.557 25.681 3.775 6.258-1.496 10.028-3.593 13.37-1.909 11.705-6.252c-3.082-8.057-25.504-8.669-25.504-8.669l-22.521-2.329z" class="H"/><path d="M16.17 98.452C6.384 102.237-.375 116.265 0 118.643c1.654 10.055 17.46 11.125 17.46 11.125l-1.29-31.316z" fill="#f7c446"/><path d="M16.17 98.452c-7.029 2.246-11.026 40.603-5.552 48.086 4.411 6.07 32.715-2.091 31.464-8.459-1.351-6.882 1.191-33.629-2.42-37.525s-13.287-5.369-23.492-2.102z" class="G"/><path d="M38.592 79.105c-.855-.392-.485-2.384-.717-3.775-.127 1.104-7.84-2.605-12.008 0-3.418 2.13-3.308 10.678-4.306 11.373-1.395.116-.601 9.657 2.492 11.368 3.782 2.092 9.257 1.38 9.786-.237.277-.764.463-1.559.551-2.367 1.196.281 3.198.293 4.383-.684 2.779-2.263 7.206-12.3-.182-15.677z" class="C"/><path d="M37.997 76.152c3.308-2.24-1.048-11.793-11.082-10.612C16.44 66.771 9.058 73.139 9.058 80.512c0 9.933 8.86 14.982 11.782 16.919s7.922-1.104 9.372-2.936 1.026-8.625.204-9.651-3.628-4.928-2.205-6.572c.777-.894 2.056-.822 3.733.204 2.149-.376 4.205-1.165 6.054-2.323z" class="H"/><path d="M39.094 100.03c13.849 10.954 23.211-3.228 27.296-3.366s-2.382 18.348-11.026 19.954-19.252-2.251-22.604-8.145 6.335-8.443 6.335-8.443z" class="G"/><g class="C"><path d="M98.686 139.894c-9.373-4.519-34.943-11.252-37.17-11.285-1.103 0-7.564-2.996-9.213-3.636s7.074-5 8.127-4.006 34.794-1.684 37.749 1.771.507 17.156.507 17.156z"/><path d="M59.057 127.837c-2.9-.911-8.931 3.686-13.469 1.964-1.814-.673-9.202-5.639-10.128-7.847s6.644 0 8.116.039 10.045-.618 9.086-2.108-6.864-.392-6.765-3.681c0-.491 1.781.475 3.859.155 1.252-.188 2.591-.839 4.025-.734 3.087.221 7.509 4.387 7.779 5.811s1.356 7.62-2.503 6.401zm5.194-27.956c-1.274-1.584-1.351-4.023-.86-4.415a6.62 6.62 0 0 0 1.615-1.843c.215-.552.606-1.236.81-.16s-.788 2.091-.276 2.207 1.549-2.312 1.93-3.151.75-1.015.976-.927c.386.143-.469 2.577-.215 2.665s1.726-2.384 2.321-2.141c.474.193-1.042 2.577-.888 2.682s1.384-1.567 1.693-1.219c.419.48-.959 2.439-.799 2.544s1.389-.971 1.56-.761c.441.552-2.134 3.686-2.685 4.26a6.48 6.48 0 0 1-3.341 1.401c-.893-.077-1.841-1.142-1.841-1.142z"/></g><path d="M40.632 115.172c-.047-.001-.094-.01-.138-.027-2.354-.933-6.825-4.1-8.479-6.926a.37.37 0 0 1-.048-.139c-.007-.049-.004-.099.009-.147a.37.37 0 0 1 .174-.23.38.38 0 0 1 .139-.048c.049-.006.099-.004.147.009s.093.034.132.064.073.068.097.111c1.577 2.687 5.855 5.711 8.105 6.621.047.018.089.045.126.079s.065.076.085.122.031.095.032.145a.38.38 0 0 1-.027.146c-.031.067-.081.123-.144.163s-.135.059-.209.057z" fill="#f7c446"/><path d="M79.462 64.073c-.711 4.188 1.483 15.363.722 16.433s-2.172 1.164-3.429 1.164c-2.1.055-10.172-2.505-10.822-4.508-.551-1.656 1.4-13.559.937-19.038-.077-.949 12.592 5.949 12.592 5.949z" class="B"/><path d="M84.699 54.317c.237-3.355-.033-7.93-.948-11.037s-2.79-6.07-5.651-7.582c-3.457-1.827-14.886 3.41-15.812 6.683-.485 1.782 1.059 9.221-2.531 6.39-6.616-.706.094 13.525 2.431 8.609 2.542 5.629 10.084 8.438 14.759 7.902 3.887-.453 7.332-5.104 7.752-10.965z" class="C"/><g class="B"><path d="M250.883 138.802c-.468-1.794-2.48-9.53-.033-12.891 2.068-2.831-.645-5.27 1.412-5.75.893-.204 4.273 1.876 4.934 5.375.347 1.843-1.896 3.862 0 7.692 4.444 8.962-5.745 7.753-6.313 5.574z"/><g class="D"><path d="M302.878 305.504c1.605 2.853 14.302-3.863 14.473-5.855.727-8.642 2.938-35.091 1.72-42.072s-4.527-13.922-9.99-17.537c-6.98-4.624-17.935-2.168-18.574 7.726-.849 13.089 8.656 51.127 12.371 57.738z"/><path d="M317.351 299.643c-9.61-3.002-19.716 3.212-11.677 9.663 9.708 7.803 41.558 25.285 44.453 26.846l4.024-5.303c-13.954-12.995-26.987-28.132-36.8-31.206z"/></g></g><path d="M352.845 329.801c.479.679.893 1.898.408 2.588-.381.552-3.589 2.417-3.771 3.041-.138.447.507 2.24.457 4.569a35.07 35.07 0 0 1-.397 5.844c-.43 2.659 1.516 4.414 3.308 2.025L363 334.585c-1.797-1.324-8.54-5.181-10.155-4.784z" class="D L"/><path d="M297.569 162.05c-7.575 7.389-11.434 22.531-5.022 27.724 10.006 8.09 25.912 3.416 22.317 12.422-2.266 5.634 7.371 9.839 14.026 9.706-3.733-6.114-2.112-7.422-.452-9.342 3.677-4.244-1.103-6.318.342-8.217 3.164-4.127-4.505-4.74-2.845-7.013 3.859-5.265-4.852-8.791-3.86-10.585 3.788-6.682-3.809-6.274-2.161-13.641s-22.345-1.054-22.345-1.054z" class="E"/><g class="B"><path d="M257.582 133.946c1.836 4.414 13.91 24.661 16.617 26.934 1.786 1.501-9.836 9.381-10.707 8.642-2.409-2.13-12.537-29.092-13.287-33.766-.838-5.221 5.696-5.85 7.377-1.81z"/><path d="M290.584 189.432c-2.624-.221-25.912-17.46-27.092-19.91-1.714-3.604 8.055-11.13 10.707-8.642 3.346 3.14 22.488 13.139 27.676 16.881 3.937 2.842-11.291 11.671-11.291 11.671z"/></g><g class="D"><path d="M313.701 303.506c.551-6.407 4.377-52.23-1.147-56.7-7.062-5.723-24.925-19.099-24.925-9.381 0 37.524 28.393 113.814 29.771 117.175h6.721c-3.032-18.955-4.819-40.863-10.42-51.094z" class="C"/><path d="M323.04 351.002c-.253.795-.97 1.865-1.814 1.904-.661 0-4.09-1.391-4.702-1.159-.436.166-1.472 1.766-3.347 3.14a34.74 34.74 0 0 1-4.879 3.25c-2.371 1.275-2.569 3.863.419 3.863h16.705c-.039-2.207-1.075-9.933-2.382-10.998z" class="L"/></g><path d="M321.838 184.775c0 17.818-6.235 27.845-6.56 38.291-12.328 8.746-27.638 5.64-27.638 0 0-5.088-.86-21.737.943-36.112.843-6.699 4.168-11.848 6.18-12.068 10.437-1.137 27.075-3.51 27.075 9.889z" class="G"/><path d="M309.577 161.824c-.59 5.077.028 12.383.298 13.2-1.891 1.97-6.566 2.924-9.715 2.924-2.271 0-2.442-1.655-2.442-2.422 0-3.124 1.34-8.829.678-12.14-.402-2.009 11.181-1.562 11.181-1.562z" class="B"/><path d="M300.199 141.009c-4.482 2.864-11.715 16.169-7.167 22.233 3.22 4.299 13.116 4.707 15.823 3.052.325 3.824 9.008 1.407 6.119-1.805 8.684-3.449 9.698-15.578 5.277-22.332s-14.643-4.603-20.052-1.148z" class="C"/><path d="M322.809 144.16c-.552-9.508-13.177-24.236-20.372-14.811-8.666-.889-6.819 12.924-6.935 14.38 2.519 1.314 4.929-.7 8.821-2.864 3.308 2.059.601 12.174 13.866 12.417-5.304 6.881-5.332 9-4.582 10.871 3.777.414 1.103 3.068.386 5.121 5.513.458 13.816-4.619 12.631-14.039-1.081-8.493-3.815-11.075-3.815-11.075z" class="E"/><path d="M317.047 191.733c-2.017 1.363-33.002 6.512-35.615 5.253-4.576-2.207-2.889-14.281.469-14.292 3.903 0 31.53-6.583 35.444-4.415s3.065 11.192-.298 13.454z" class="C"/><path d="M287.64 223.066c0 6.208-1.522 35.124 3.975 61.512 24.534 0 44.778-8.062 55.176-20.837-8.27-16.461-29.672-35.753-31.513-40.675H287.64z" class="L"/><g class="C"><path d="M248.783 184.063c4.504-.216 31.001-1.998 33.118-1.369s1.654 14.293-.469 14.293c-1.102 0-28.338-5.05-32.737-5.833-4.923-.878-3.495-6.926.088-7.091z"/><path d="M250.955 191.617c-3.898-.761-7.321-2.174-9.72-.474-2.806 1.981-4.774 3.2-7.795 1.578-3.65-1.965-2.31-3.444-2.437-4.967-.077-.987-6.858.734-6.853-1.793 0-.966 3.121-.784 8.75-1.137 4.796-.303 9.427-.077 15.883-.75 5.596 1.026 4.857 8.067 2.172 7.543z"/></g></g><defs><clipPath id="A"><path fill="#fff" d="M0 0h363v362H0z"/></clipPath></defs></svg>