<svg width="363" height="362" viewBox="0 0 363 362" fill="none" xmlns="http://www.w3.org/2000/svg">
<g clip-path="url(#clip0)">
<path d="M152.925 151.312C151.701 153.74 161.471 156.394 163.312 154.97C166.686 152.371 170.887 139.028 176.544 133.107C178.264 131.308 180.1 129.106 179.692 126.65C179.333 124.443 158.19 113.671 158.157 123.466C158.13 128.516 160.219 145.021 152.925 151.312Z" fill="#FFC5B4"/>
<path d="M181.384 97.6407C179.179 86.0523 173.23 75.9317 164.431 68.9456C162.849 67.6874 155.389 73.2774 155.329 74.4639C154.645 88.6569 158.356 124.515 159.927 128.212C161.498 131.909 178.633 129.945 179.223 128.08C181.263 121.491 182.046 101.106 181.384 97.6407Z" fill="#FFC5B4"/>
<path fill-rule="evenodd" clip-rule="evenodd" d="M191.132 259.525C189.858 263.388 187.995 267.77 184.516 268.857C182.106 269.607 174.333 264.839 172.64 262.925C170.948 261.01 164.133 175.432 166.499 169.814C169.652 162.282 202.467 165.996 203.216 179.069C204.181 195.784 202.02 213.563 198.806 230.135C196.861 240.082 194.298 249.898 191.132 259.525Z" fill="#222B54"/>
<path d="M252.113 335.126C248.811 336.859 245.16 337.819 241.434 337.935C240.232 333.77 239.032 329.602 237.834 325.43C237.64 324.915 237.577 324.359 237.652 323.814C237.834 323.03 238.551 322.5 239.256 322.103C241.908 320.613 246.159 318.941 247.499 322.456C249.097 326.683 250.569 330.905 252.113 335.126Z" fill="#FFC5B4"/>
<path d="M184.411 345.18C180.716 345.721 176.946 345.417 173.385 344.292C173.55 339.962 173.719 335.63 173.892 331.296C173.868 330.749 173.982 330.204 174.223 329.713C174.642 329.034 175.491 328.774 176.279 328.609C179.267 328.057 183.827 327.914 183.997 331.672C184.201 336.185 184.273 340.683 184.411 345.18Z" fill="#FFC5B4"/>
<path fill-rule="evenodd" clip-rule="evenodd" d="M171.582 248.903C175.254 241.232 186.032 235.979 192.83 249.278C203.189 269.563 185.254 307.507 185.337 331.997H172.767C172.072 329.63 169.547 253.157 171.582 248.903Z" fill="#222B54"/>
<path fill-rule="evenodd" clip-rule="evenodd" d="M177.464 64.0122C177.194 61.6338 169.829 58.8581 167.811 60.2211C159.569 65.7836 157.733 67.7867 155.257 72.6318C151.337 80.3187 153.09 89.5288 153.09 98.7443L176.908 100.212C178.668 88.2213 178.855 76.0516 177.464 64.0122Z" fill="#009A99"/>
<path fill-rule="evenodd" clip-rule="evenodd" d="M216.856 259.525C215.798 263.388 214.177 267.77 210.792 268.857C208.426 269.607 203.343 259.823 201.54 257.914C199.738 256.005 182.299 183.605 184.334 177.987C187.09 170.449 193.927 165.571 200.973 164.445C211.222 162.79 223.025 165.996 224.486 179.069C226.377 195.783 225.203 213.563 222.899 230.135C221.514 240.051 219.496 249.868 216.856 259.525Z" fill="#0A3C5F"/>
<path fill-rule="evenodd" clip-rule="evenodd" d="M199.219 251.667C199.49 243.467 208.564 233.871 219.425 244.974C236.908 262.853 242.029 296.961 248.838 322.307L236.979 326.473C235.331 324.536 199.071 256.231 199.219 251.667Z" fill="#0A3C5F"/>
<path fill-rule="evenodd" clip-rule="evenodd" d="M225.843 116.281C230.104 102.591 235.336 85.6826 232.977 71.3736C227.188 64.2992 214.359 54.3607 190.889 54.3607C176.599 54.3607 170.214 58.1352 162.623 63.9239C158.102 67.3729 158.212 80.1698 158.995 85.6219C159.971 92.3266 166.162 119.929 167.1 143.658C167.772 161.018 163.24 174.008 163.615 186.7H227.827C222.182 162.304 221.548 130.072 225.843 116.281Z" fill="#009A99"/>
<path d="M244.235 96.2446C239.139 84.1938 230.664 73.8797 219.833 66.5506C217.893 65.2428 211.519 70.9653 211.751 72.229C214.436 86.869 226.852 123.875 229.355 127.699C231.858 131.523 249.114 129.575 249.263 127.655C249.82 120.851 245.756 99.8204 244.235 96.2446Z" fill="#FFC5B4"/>
<path fill-rule="evenodd" clip-rule="evenodd" d="M207.225 70.1099C207.346 67.7316 220.021 60.5192 221.934 62.1471C226.256 65.8222 229.366 66.8321 232.96 71.3736C239.025 79.0054 244.676 90.8698 246.512 100.223H214.789C212.291 88.3479 206.591 82.2226 207.225 70.1099Z" fill="#009A99"/>
<path d="M184.56 41.4258C186.17 34.3238 193.414 32.9332 196.534 34.6383C195.432 46.7455 198.497 56.8936 197.902 57.175C191.352 60.2432 183.595 60.3039 181.406 57.2081C183.154 52.3796 183.727 45.101 184.56 41.4258Z" fill="#FFC5B4"/>
<path d="M194.307 14.9711C189.014 7.48281 177.277 8.01809 172.502 16.5438C168.13 24.3467 170.297 48.2023 180.541 48.2023C188.121 48.2023 193.221 44.3395 194.682 41.1113C195.223 39.8606 195.663 38.5689 196 37.2485C198.707 40.3774 204.269 29.5229 198.017 28.971C198.095 24.0874 196.518 18.0945 194.307 14.9711Z" fill="#F7B690"/>
<path fill-rule="evenodd" clip-rule="evenodd" d="M164.53 10.2199C165.186 11.0973 168.037 10.0985 169.79 10.0378C168.77 10.6503 165.082 15.672 166.267 15.8099C167.452 15.9479 171.102 14.8497 171.935 14.4359C171.383 14.9049 167.59 17.8572 169.459 19.3692C170.082 19.8659 186.142 18.1276 187.372 18.2656C197.372 19.4796 194.373 32.7731 195.167 32.7621C195.801 31.1618 201.893 24.893 200.278 34.7377C205.527 29.6443 218.72 7.1462 193.524 4.93888C190.944 4.70711 170.518 -8.15051 164.696 8.6858C164.552 9.04449 164.293 9.87223 164.53 10.2199Z" fill="#222B56"/>
<path fill-rule="evenodd" clip-rule="evenodd" d="M239.212 346.4C238.551 344.744 238.76 343.089 239.35 342.416C239.94 341.743 240.083 338.52 240.127 333.824C240.127 331.677 243.805 329.79 246.875 332.4C247.873 333.244 248.695 333.73 249.384 333.465C249.963 333.239 250.261 331.986 251.038 332.466C251.744 332.886 252.427 334.403 252.946 335.479C253.833 337.322 254.71 339.193 255.592 341.053C255.79 341.461 255.994 341.892 256.143 342.327L240.111 347.956C239.726 347.492 239.422 346.966 239.212 346.4Z" fill="#66BCD5"/>
<path fill-rule="evenodd" clip-rule="evenodd" d="M159.116 352.729C159.045 350.93 159.795 349.418 160.566 349.016C161.338 348.613 171.736 345.578 173.329 341.163C174.057 339.143 178.131 338.575 180.171 342.052C180.827 343.155 181.445 343.911 182.184 343.884C182.807 343.884 183.501 342.78 184.097 343.497C184.62 344.126 184.764 345.787 184.902 346.968C185.133 349.01 185.343 351.063 185.563 353.105C185.613 353.557 185.657 354.032 185.673 354.501H159.491C159.266 353.936 159.139 353.337 159.116 352.729Z" fill="#66BCD5"/>
<path d="M202.886 150.407C200.636 151.019 206.122 155.925 208.322 156.664C210.521 157.404 240.193 139.006 245.839 133.107C247.554 131.308 249.389 129.106 248.987 126.65C248.623 124.443 235.292 116.629 228.351 123.532C226.482 125.376 206.26 149.485 202.886 150.407Z" fill="#FFC5B4"/>
<path fill-rule="evenodd" clip-rule="evenodd" d="M184.301 62.9306L191.534 71.0922L204.247 55.5527L198.613 54.3607L184.301 62.9306Z" fill="#0A3C5F"/>
<path fill-rule="evenodd" clip-rule="evenodd" d="M184.301 62.9306L178.512 71.0149L175.562 56.4963L181.632 54.7911L184.301 62.9306Z" fill="#0A3C5F"/>
<path d="M205.416 162.79C204.76 161.714 207.737 157.442 208.724 156.686C209.827 155.864 211.58 156.052 211.63 154.678C211.745 151.477 208.421 149.397 204.644 150.026C200.868 150.655 192.653 154.898 191.832 158.634C191.093 161.978 190.431 164.754 193.447 166.36C196.027 167.734 198.767 167.508 201.452 166.674C204.424 165.775 206.067 163.86 205.416 162.79Z" fill="#FFC5B4"/>
<path d="M160.357 162.79C160.357 161.531 160.076 157.442 161.079 156.686C162.182 155.864 164.26 154.479 164.012 153.072C163.461 149.915 155.478 148.657 152.401 151.869C149.755 154.628 147.616 154.898 146.789 158.634C146.05 161.978 146.651 165.201 148.41 166.36C149.606 167.071 150.984 167.415 152.374 167.348C153.747 167.334 155.111 167.107 156.415 166.674C159.359 165.775 160.357 164.053 160.357 162.79Z" fill="#FFC5B4"/>
<path d="M311.132 351.935C310.55 353.096 309.638 354.059 308.51 354.701C307.382 355.344 306.089 355.637 304.794 355.545C303.5 355.452 302.261 354.978 301.236 354.181C300.211 353.385 299.444 352.302 299.033 351.07C298.622 349.838 298.586 348.511 298.928 347.258C299.269 346.005 299.975 344.881 300.954 344.029C301.934 343.177 303.144 342.634 304.431 342.47C305.719 342.305 307.026 342.527 308.188 343.106C309.74 343.894 310.92 345.262 311.471 346.915C312.022 348.568 311.9 350.371 311.132 351.935Z" fill="black"/>
<path d="M302.829 342.25C302.247 343.41 301.335 344.37 300.208 345.011C299.081 345.653 297.789 345.945 296.496 345.852C295.203 345.759 293.967 345.285 292.943 344.489C291.919 343.693 291.154 342.612 290.743 341.381C290.333 340.15 290.296 338.825 290.637 337.574C290.978 336.322 291.682 335.199 292.66 334.348C293.638 333.496 294.846 332.954 296.132 332.789C297.418 332.624 298.724 332.844 299.885 333.421C301.444 334.202 302.629 335.571 303.181 337.226C303.733 338.881 303.606 340.688 302.829 342.25Z" fill="black"/>
<path d="M334.502 315.79L323.586 292.166C322.932 290.744 322.866 289.121 323.403 287.651C323.94 286.181 325.037 284.983 326.453 284.319C327.151 283.99 327.907 283.803 328.677 283.768C329.448 283.733 330.217 283.851 330.942 284.115C331.667 284.379 332.332 284.784 332.9 285.307C333.467 285.83 333.926 286.46 334.249 287.161L345.165 310.785C345.818 312.207 345.883 313.829 345.346 315.299C344.809 316.769 343.713 317.967 342.298 318.632C341.6 318.961 340.844 319.149 340.074 319.185C339.303 319.22 338.533 319.102 337.808 318.838C337.083 318.574 336.418 318.168 335.85 317.645C335.283 317.122 334.825 316.491 334.502 315.79Z" fill="#D1D6D0"/>
<path d="M291.758 335.91L256.843 252.214C255.957 250.067 255.951 247.658 256.828 245.507C257.704 243.357 259.391 241.639 261.524 240.725L290.546 228.386C292.302 227.637 294.257 227.489 296.106 227.964C297.956 228.439 299.598 229.51 300.778 231.012C302.294 233.027 303.943 234.939 305.712 236.735L313.475 244.367L336.889 316.75C337.774 318.896 337.778 321.305 336.901 323.454C336.023 325.604 334.336 327.321 332.203 328.234L308.816 353.839C307.008 354.6 304.406 351.631 300.238 346.113C298.644 343.961 292.861 338.553 291.758 335.91Z" fill="#069995"/>
<path d="M261.326 259.156L231.069 188.521L235.044 186.789L265.301 257.417L261.326 259.156Z" fill="#D2D2D2"/>
<path d="M260.267 242.176C260.168 242.209 260.08 242.248 259.98 242.275C259.043 242.534 258.111 242.827 257.174 243.075C256.673 243.221 256.208 243.472 255.81 243.812C255.413 244.151 255.092 244.57 254.868 245.043C254.645 245.515 254.524 246.03 254.514 246.552C254.504 247.075 254.604 247.594 254.809 248.075L260.714 261.871C260.902 262.314 261.176 262.715 261.521 263.051C261.865 263.387 262.273 263.651 262.72 263.828C263.167 264.005 263.645 264.091 264.126 264.082C264.607 264.073 265.081 263.968 265.521 263.774C266.414 263.384 267.116 262.656 267.476 261.75C267.835 260.844 267.822 259.832 267.44 258.935L260.267 242.176Z" fill="#363636"/>
<path d="M304.687 349.54L269.777 265.844C268.893 263.698 268.888 261.29 269.764 259.141C270.64 256.992 272.326 255.274 274.458 254.36L303.491 242.021C304.544 241.572 305.676 241.335 306.821 241.326C307.967 241.316 309.103 241.534 310.163 241.966C311.224 242.398 312.189 243.035 313.003 243.842C313.816 244.649 314.462 245.61 314.903 246.668L349.818 330.364C350.704 332.511 350.708 334.922 349.829 337.073C348.951 339.223 347.261 340.941 345.126 341.853L316.088 354.192C315.035 354.639 313.904 354.874 312.759 354.882C311.615 354.891 310.48 354.672 309.421 354.24C308.361 353.808 307.397 353.17 306.585 352.363C305.772 351.556 305.127 350.597 304.687 349.54Z" fill="#00C4C3"/>
<g style="mix-blend-mode:screen">
<path d="M333.482 331.495L299.047 253.588C298.611 252.598 298.584 251.476 298.971 250.466C299.359 249.456 300.129 248.64 301.114 248.196L302.167 247.722C302.654 247.502 303.178 247.381 303.712 247.365C304.245 247.35 304.776 247.44 305.274 247.631C305.772 247.822 306.228 248.109 306.614 248.477C307.001 248.845 307.311 249.286 307.526 249.774L341.962 327.682C342.397 328.672 342.424 329.794 342.037 330.804C341.65 331.813 340.88 332.629 339.894 333.073L338.841 333.548C338.355 333.767 337.83 333.888 337.297 333.904C336.764 333.92 336.233 333.829 335.735 333.638C335.236 333.448 334.781 333.16 334.394 332.792C334.008 332.424 333.698 331.983 333.482 331.495Z" fill="#134569"/>
</g>
<path d="M283.169 246.293L275.164 237.85L279.519 235.482L287.53 243.92L283.169 246.293Z" fill="#D1D6D0"/>
<path d="M273.581 273.509L243.325 202.874L247.3 201.142L277.562 271.77L273.581 273.509Z" fill="#F1F1F1"/>
<path d="M272.523 256.529C272.429 256.562 272.335 256.601 272.236 256.628C271.299 256.888 270.367 257.18 269.43 257.428C268.929 257.575 268.464 257.826 268.066 258.165C267.669 258.504 267.348 258.923 267.124 259.396C266.901 259.868 266.78 260.383 266.77 260.906C266.759 261.428 266.86 261.947 267.065 262.428L272.969 276.224C273.158 276.666 273.433 277.067 273.778 277.402C274.122 277.738 274.53 278.002 274.977 278.179C275.424 278.356 275.901 278.442 276.382 278.434C276.863 278.425 277.337 278.321 277.777 278.128C278.67 277.737 279.372 277.01 279.732 276.103C280.091 275.197 280.078 274.185 279.696 273.288L272.523 256.529Z" fill="#555555"/>
<path d="M242.939 203.04L230.766 188.654L235.187 186.689L247.085 201.627L242.939 203.04Z" fill="#BBBBBB"/>
<path d="M121.886 357.519H118.197C116.96 357.519 115.774 357.027 114.899 356.152C114.025 355.276 113.533 354.089 113.533 352.851C113.533 352.238 113.654 351.631 113.888 351.065C114.123 350.499 114.467 349.985 114.9 349.552C115.333 349.118 115.847 348.775 116.413 348.541C116.979 348.307 117.585 348.187 118.197 348.188H121.886C123.121 348.188 124.306 348.679 125.18 349.554C126.054 350.428 126.544 351.614 126.544 352.851C126.545 353.464 126.425 354.07 126.191 354.637C125.958 355.203 125.615 355.718 125.182 356.152C124.749 356.585 124.235 356.929 123.67 357.164C123.104 357.398 122.498 357.519 121.886 357.519Z" fill="#1D1D1D"/>
<path d="M177.839 357.519H174.151C172.914 357.519 171.728 357.027 170.853 356.152C169.978 355.276 169.487 354.089 169.487 352.851C169.487 352.238 169.607 351.631 169.842 351.065C170.076 350.499 170.42 349.985 170.853 349.552C171.286 349.118 171.801 348.775 172.366 348.541C172.932 348.307 173.539 348.187 174.151 348.188H177.839C178.451 348.187 179.058 348.307 179.624 348.541C180.19 348.775 180.704 349.118 181.137 349.552C181.57 349.985 181.914 350.499 182.148 351.065C182.383 351.631 182.503 352.238 182.503 352.851C182.503 354.089 182.012 355.276 181.137 356.152C180.263 357.027 179.076 357.519 177.839 357.519Z" fill="#1D1D1D"/>
<path d="M132.907 170.283V233.838H164.789V170.283H132.907ZM159.37 229.754H138.348V174.378H159.331L159.37 229.754Z" fill="#7D7D7D"/>
<path d="M139.655 182.589V175.675H158.047V182.589H166.091V168.976H131.606V182.589H139.655Z" fill="#7D7670"/>
<path d="M152.649 352.933H145.989C123.749 352.933 105.743 356.691 105.743 334.436V244.328C105.743 222.073 123.766 225.831 145.989 225.831H152.649C174.884 225.831 192.896 222.073 192.896 244.328V334.436C192.912 356.691 174.884 352.933 152.649 352.933Z" fill="#F39100"/>
<g style="mix-blend-mode:screen">
<path d="M115.821 343.79V282.774C115.818 281.919 115.984 281.072 116.308 280.281C116.632 279.49 117.109 278.771 117.711 278.165C118.314 277.559 119.029 277.077 119.817 276.748C120.605 276.419 121.451 276.248 122.305 276.246H129.34V235.482C129.343 234.136 128.812 232.844 127.864 231.889C126.916 230.934 125.629 230.395 124.284 230.389H118.771C117.425 230.393 116.136 230.932 115.187 231.887C114.238 232.842 113.707 234.135 113.71 235.482V343.276C113.703 344.418 114.08 345.528 114.78 346.428C115.48 347.329 116.462 347.968 117.569 348.243C116.444 347.034 115.819 345.442 115.821 343.79Z" fill="#1D1D1D"/>
</g>
<path d="M176.014 350.312H122.305C121.451 350.31 120.606 350.14 119.819 349.811C119.031 349.482 118.315 349.001 117.713 348.395C117.111 347.789 116.634 347.071 116.31 346.281C115.985 345.49 115.819 344.644 115.821 343.79V282.774C115.818 281.919 115.984 281.072 116.308 280.281C116.632 279.49 117.109 278.771 117.711 278.165C118.314 277.559 119.029 277.077 119.817 276.748C120.605 276.419 121.451 276.248 122.305 276.246H176.014C177.737 276.254 179.386 276.947 180.599 278.17C181.812 279.394 182.491 281.05 182.487 282.774V343.79C182.49 345.513 181.81 347.167 180.597 348.389C179.384 349.612 177.736 350.303 176.014 350.312Z" fill="#F39100"/>
<path d="M175.077 278.243H122.911C119.888 278.243 117.437 280.697 117.437 283.723V342.868C117.437 345.894 119.888 348.348 122.911 348.348H175.077C178.101 348.348 180.552 345.894 180.552 342.868V283.723C180.552 280.697 178.101 278.243 175.077 278.243Z" fill="#D97B06"/>
<g style="mix-blend-mode:screen">
<path d="M129.808 345.23H123.953C123.636 345.228 123.322 345.164 123.03 345.042C122.738 344.919 122.472 344.74 122.249 344.514C122.026 344.289 121.849 344.021 121.729 343.728C121.609 343.434 121.548 343.119 121.549 342.802V283.789C121.548 283.472 121.609 283.157 121.729 282.863C121.849 282.57 122.026 282.302 122.249 282.077C122.472 281.851 122.738 281.672 123.03 281.549C123.322 281.427 123.636 281.363 123.953 281.361H129.808C130.125 281.363 130.439 281.427 130.731 281.549C131.024 281.672 131.289 281.851 131.513 282.077C131.736 282.302 131.912 282.57 132.032 282.863C132.152 283.157 132.213 283.472 132.212 283.789V342.802C132.213 343.119 132.152 343.434 132.032 343.728C131.912 344.021 131.736 344.289 131.513 344.514C131.289 344.74 131.024 344.919 130.731 345.042C130.439 345.164 130.125 345.228 129.808 345.23Z" fill="#1D1D1D"/>
</g>
<path d="M162.965 249.427H134.373C130.042 249.409 125.895 247.673 122.841 244.598C119.788 241.523 118.078 237.362 118.087 233.026V207.488C118.078 203.153 119.788 198.991 122.841 195.916C125.895 192.842 130.042 191.105 134.373 191.087H162.965C167.296 191.105 171.443 192.842 174.496 195.916C177.549 198.991 179.259 203.153 179.251 207.488V232.999C179.267 237.339 177.56 241.507 174.506 244.588C171.452 247.669 167.3 249.409 162.965 249.427ZM134.373 192.417C130.391 192.433 126.578 194.029 123.77 196.853C120.961 199.678 119.385 203.502 119.388 207.488V232.999C119.381 236.987 120.955 240.815 123.764 243.644C126.573 246.472 130.389 248.07 134.373 248.086H162.965C166.949 248.07 170.764 246.472 173.572 243.644C176.38 240.815 177.953 236.987 177.944 232.999V207.488C177.953 203.5 176.38 199.672 173.572 196.843C170.764 194.014 166.949 192.417 162.965 192.401L134.373 192.417Z" fill="#D97B06"/>
<path d="M157.126 234.676C157.126 235.94 153.774 236.967 149.645 236.967C145.515 236.967 142.163 235.94 142.163 234.676C142.163 233.413 145.51 232.381 149.645 232.381C153.78 232.381 157.126 233.424 157.126 234.676Z" fill="#F39100"/>
<path d="M156.476 234.02C156.476 235.283 153.124 236.31 148.994 236.31C144.865 236.31 141.513 235.283 141.513 234.02C141.513 232.756 144.859 231.724 148.994 231.724C153.129 231.724 156.476 232.751 156.476 234.02Z" fill="#9B897B"/>
<g style="mix-blend-mode:screen">
<path d="M150.984 233.363C150.984 233.915 149.512 234.373 147.677 234.373C145.841 234.373 144.369 233.92 144.369 233.363C144.369 232.806 145.841 232.353 147.677 232.353C149.512 232.353 150.984 232.806 150.984 233.363Z" fill="#9B897B"/>
</g>
<path d="M212.672 353.574C211.657 354.492 210.393 355.088 209.04 355.288C207.686 355.488 206.304 355.283 205.068 354.697C203.831 354.112 202.795 353.173 202.091 351.999C201.387 350.825 201.046 349.469 201.112 348.101C201.177 346.733 201.645 345.416 202.458 344.314C203.271 343.213 204.391 342.377 205.678 341.912C206.965 341.448 208.36 341.375 209.688 341.703C211.016 342.031 212.217 342.746 213.14 343.757C213.754 344.432 214.228 345.222 214.537 346.08C214.845 346.939 214.982 347.851 214.938 348.762C214.895 349.674 214.672 350.568 214.283 351.394C213.894 352.219 213.347 352.96 212.672 353.574Z" fill="black"/>
<path d="M208.184 340.887C207.169 341.804 205.905 342.4 204.552 342.6C203.199 342.799 201.817 342.593 200.581 342.008C199.345 341.422 198.31 340.483 197.606 339.309C196.902 338.136 196.561 336.779 196.627 335.412C196.692 334.045 197.16 332.727 197.972 331.626C198.785 330.525 199.905 329.689 201.191 329.224C202.477 328.759 203.872 328.686 205.2 329.013C206.528 329.341 207.729 330.054 208.652 331.064C209.266 331.74 209.741 332.53 210.049 333.39C210.358 334.249 210.494 335.161 210.451 336.073C210.407 336.985 210.185 337.88 209.796 338.706C209.407 339.532 208.859 340.273 208.184 340.887Z" fill="black"/>
<path d="M249.423 326.909L247.669 299.5C247.568 297.853 248.121 296.234 249.207 294.993C250.293 293.753 251.825 292.993 253.469 292.878C254.283 292.817 255.1 292.918 255.874 293.176C256.647 293.433 257.363 293.841 257.978 294.377C258.593 294.913 259.096 295.565 259.458 296.297C259.82 297.028 260.033 297.824 260.085 298.639L261.838 326.054C261.938 327.7 261.385 329.319 260.299 330.559C259.213 331.799 257.682 332.56 256.038 332.676C255.225 332.737 254.407 332.635 253.633 332.378C252.859 332.12 252.143 331.711 251.528 331.175C250.913 330.638 250.41 329.985 250.048 329.253C249.687 328.521 249.474 327.724 249.423 326.909Z" fill="#D1D6D0"/>
<path d="M199.699 330.424L197.174 234.737C197.114 232.287 198.024 229.912 199.705 228.129C201.386 226.346 203.702 225.3 206.149 225.218L239.427 224.142C241.44 224.074 243.419 224.672 245.059 225.843C246.698 227.014 247.906 228.693 248.496 230.62C249.223 233.171 250.116 235.67 251.17 238.103L255.906 248.588L251.402 328.747C251.463 331.196 250.555 333.571 248.877 335.355C247.198 337.138 244.884 338.186 242.437 338.271L209.672 354.55C207.605 354.617 206.155 350.688 204.159 343.668C203.437 340.97 199.782 333.448 199.699 330.424Z" fill="#B02D61"/>
<path d="M198.944 243.279L196.033 162.227L200.609 162.039L203.52 243.086L198.944 243.279Z" fill="#D2D2D2"/>
<path d="M204.358 226.167C204.253 226.167 204.148 226.167 204.038 226.167C203.024 226.062 201.998 225.974 200.973 225.88C200.423 225.833 199.87 225.903 199.35 226.086C198.83 226.268 198.354 226.559 197.954 226.94C197.555 227.32 197.24 227.78 197.031 228.291C196.823 228.802 196.725 229.352 196.744 229.903L197.295 245.713C197.315 246.22 197.435 246.718 197.647 247.179C197.859 247.639 198.16 248.054 198.532 248.398C198.904 248.742 199.341 249.01 199.816 249.186C200.292 249.361 200.797 249.441 201.303 249.421C202.332 249.378 203.301 248.93 204 248.174C204.699 247.419 205.072 246.417 205.036 245.387L204.358 226.167Z" fill="#363636"/>
<path d="M207.241 348.756L204.716 253.074C204.654 250.623 205.562 248.247 207.244 246.463C208.925 244.68 211.243 243.635 213.692 243.555L246.964 242.452C248.172 242.411 249.376 242.609 250.507 243.036C251.638 243.463 252.674 244.11 253.554 244.94C254.434 245.769 255.141 246.765 255.635 247.869C256.128 248.974 256.399 250.165 256.43 251.375L258.955 347.101C259.014 349.552 258.104 351.928 256.422 353.711C254.74 355.493 252.422 356.539 249.974 356.62L216.702 357.723C215.49 357.765 214.283 357.564 213.149 357.135C212.015 356.705 210.978 356.054 210.098 355.22C209.218 354.385 208.512 353.384 208.022 352.275C207.531 351.165 207.266 349.969 207.241 348.756Z" fill="#CB3470"/>
<g style="mix-blend-mode:screen">
<path d="M242.443 341.98L238.17 252.186C238.119 251.046 238.519 249.932 239.284 249.085C240.049 248.239 241.117 247.729 242.255 247.666L243.474 247.6C244.035 247.567 244.597 247.645 245.128 247.83C245.659 248.014 246.148 248.303 246.568 248.678C246.987 249.053 247.328 249.507 247.571 250.014C247.814 250.522 247.954 251.072 247.984 251.634L252.245 341.439C252.296 342.58 251.895 343.695 251.129 344.541C250.363 345.388 249.294 345.897 248.155 345.958L246.936 346.025C246.376 346.055 245.815 345.975 245.285 345.788C244.756 345.601 244.268 345.311 243.851 344.935C243.433 344.56 243.094 344.105 242.853 343.598C242.611 343.091 242.472 342.541 242.443 341.98Z" fill="#244369"/>
</g>
<path d="M225.341 238.942L220.666 227.585L225.859 226.912L230.529 238.274L225.341 238.942Z" fill="#D1D6D0"/>
<path d="M205.549 262.075L202.638 181.028L207.208 180.834L210.125 261.882L205.549 262.075Z" fill="#F1F1F1"/>
<path d="M210.963 244.963C210.858 244.963 210.748 244.963 210.643 244.963C209.625 244.863 208.603 244.769 207.577 244.681C207.028 244.633 206.475 244.702 205.955 244.884C205.435 245.066 204.959 245.357 204.559 245.737C204.159 246.116 203.845 246.577 203.636 247.087C203.427 247.598 203.329 248.147 203.349 248.698L203.9 264.514C203.942 265.537 204.387 266.501 205.139 267.195C205.89 267.89 206.886 268.257 207.908 268.217C208.935 268.174 209.904 267.726 210.603 266.972C211.302 266.217 211.675 265.217 211.641 264.188L210.963 244.963Z" fill="#555555"/>
<path d="M202.191 181.039L195.685 162.243L200.785 161.995L206.811 181.232L202.191 181.039Z" fill="#BBBBBB"/>
<path d="M87.0258 30.472C80.239 24.6999 76.9532 16.5549 75.6024 15.8596C74.2517 15.1643 72.1567 13.3874 68.1321 13.713C64.1074 14.0385 63.5892 17.6144 59.2227 19.6948C54.8563 21.7752 56.2621 33.6616 51.2727 37.5575C46.2833 41.4534 87.0258 30.472 87.0258 30.472Z" fill="#FDD247"/>
<path d="M86.9928 42.3474C100.517 41.2437 104.348 28.6068 79.5555 30.6265C54.7626 32.6462 29.038 47.0655 45.7595 45.7025L86.9928 42.3474Z" fill="#E57E22"/>
<path d="M59.5425 38.2528C51.4105 43.738 46.3108 43.4344 48.3452 48.9748C49.5746 52.2858 39.5241 50.531 47.7939 62.3677C53.3842 70.3306 36.0783 68.0847 36.0177 79.1378C35.957 90.1909 46.0627 86.8082 44.6568 97.9828C43.251 109.157 72.3551 106.166 76.8705 87.8567C81.3858 69.547 80.5092 33.1925 72.8348 33.2256C64.9564 33.2642 62.5747 36.2055 59.5425 38.2528Z" fill="#222B56"/>
<path d="M87.1085 35.5433C98.8957 42.3253 96.9882 41.4921 94.8766 47.0104C93.6196 50.3213 103.235 50.8732 94.7939 62.6106C89.1208 70.5183 106.454 68.4489 106.372 79.5021C106.289 90.5552 96.2659 87.0676 97.5505 98.2643C98.8351 109.461 69.7695 106.161 65.4472 87.7795C61.1248 69.3981 62.2881 34.4176 69.9018 33.474C77.5156 32.5304 83.9439 33.7168 87.1085 35.5433Z" fill="#222B56"/>
<path d="M64.0854 73.4871C50.7049 72.3007 33.9117 79.6124 28.5418 87.8347C23.172 96.0569 7.13406 124.934 8.6557 134.983C10.1773 145.032 22.0528 156.206 28.5418 156.041C35.0308 155.875 37.2802 144.491 39.0169 146.367C40.0589 147.471 36.0067 153.497 43.659 157.658C51.3113 161.818 101.945 172.06 103.097 159.749C104.249 147.438 100.665 148.641 104.244 147.438C107.822 146.235 118.027 148.078 120.783 140.496C125.602 127.279 112.078 86.3613 100.985 79.7338C85.9397 70.75 64.0854 73.4871 64.0854 73.4871Z" fill="#CB3470"/>
<path d="M94.7498 351.824L96.8282 350.93C96.8282 350.93 95.891 345.997 97.6277 345.445C99.3643 344.893 93.7684 343.79 93.7684 343.79L92.5665 347.851L94.7498 351.824Z" fill="#062338"/>
<path d="M119.73 351.913C119.284 352.255 103.51 352.464 102.044 351.913C101.024 351.51 100.031 346.913 96.4809 346.648C93.2888 346.411 95.7422 351.929 94.7498 351.824C88.5254 351.157 87.125 351.383 87.2518 350.875C89.1649 343.221 82.4333 342.719 87.5661 334.712C89.7714 335.451 96.288 333.68 96.5747 333.057C101.024 336.047 105.947 343.977 107.265 344.805C110.413 346.736 119.322 347.939 119.73 351.913Z" fill="#0A3C60"/>
<path d="M34.4519 349.65L37.0872 347.57C37.0872 347.57 36.8336 343.707 38.3112 343.249C39.7887 342.791 34.1101 341.522 34.1101 341.522L32.9193 347.04L34.4519 349.65Z" fill="#062338"/>
<path d="M59.1896 353.723C58.8809 353.905 54.327 355.108 48.9902 354.087C45.9414 353.502 41.6356 352.382 39.6784 350.82C38.7026 350.036 38.4821 345.026 37.3463 344.656C33.0295 343.249 34.9867 349.771 34.4519 349.622C29.2089 348.397 28.2882 347.862 28.3874 347.415C29.49 341.897 27.1579 339.403 31.8111 334.431C33.8069 335.369 40.4062 332.411 40.748 331.843C44.6072 335.485 49.0729 345.754 50.2252 346.67C52.9266 348.872 59.2503 349.965 59.1896 353.723Z" fill="#0A3C60"/>
<path d="M107.794 135.551H58.8203V337.063H107.794V135.551Z" fill="#7367E4"/>
<path d="M60.5569 164.583C81.882 160.72 104.442 186.612 110.953 222.453H108.34V259.912H110.953C110.235 263.478 109.241 266.983 107.981 270.396C103.13 283.414 94.7939 292.436 84.1313 294.373C78.8001 295.345 73.3916 294.451 68.1761 292.011C65.4538 290.714 62.8899 289.106 60.5349 287.222C59.2962 286.239 58.0778 285.174 56.8796 284.027H58.2689V165.637H56.6701C57.9336 165.176 59.2339 164.824 60.5569 164.583Z" fill="#7367E4"/>
<path d="M61.0476 167.287C81.485 163.573 103.108 188.4 109.349 222.746H108.34V247.484H110.815C110.395 254.725 108.934 261.868 106.476 268.691C101.823 281.168 93.8401 289.81 83.6186 291.669C78.5134 292.602 73.331 291.747 68.3305 289.401C65.7205 288.159 63.262 286.62 61.0035 284.816C59.8182 283.877 58.6494 282.851 57.5026 281.753H58.2469V168.308H57.3372C58.5443 167.867 59.7852 167.526 61.0476 167.287Z" fill="#7267E3"/>
<path d="M61.5382 169.991C81.088 166.437 101.785 190.188 107.739 223.038C110.721 239.466 109.459 255.044 105.01 266.986C100.561 278.928 92.9249 287.189 83.15 288.965C73.3751 290.742 63.3025 285.699 54.961 276.097H58.2689V172.502H54.6247C56.774 171.287 59.1105 170.438 61.5382 169.991Z" fill="#7266E2"/>
<path d="M62.0289 172.723C80.6856 169.329 100.434 191.998 106.134 223.358C111.835 254.719 101.321 282.895 82.6648 286.267C73.3365 287.967 63.738 283.149 55.7549 273.983H58.2744V175.09H55.4351C57.4864 173.94 59.7149 173.14 62.0289 172.723Z" fill="#7166E1"/>
<path d="M62.5196 175.399C80.2886 172.165 99.0941 193.758 104.519 223.623C109.944 253.488 99.9377 280.329 82.1466 283.557C73.2593 285.174 64.1184 280.589 56.5157 271.859H58.2469V177.689H56.2346C58.1894 176.585 60.313 175.811 62.5196 175.399Z" fill="#7165E0"/>
<path d="M63.0103 178.103C79.8917 175.035 97.7434 195.546 102.909 223.905C108.075 252.263 98.5594 277.78 81.678 280.881C73.2373 282.421 64.5485 278.061 57.3317 269.767H58.2689V180.272H57.0395C58.8964 179.223 60.914 178.491 63.0103 178.103Z" fill="#7065DF"/>
<path d="M63.5009 180.807C79.4892 177.899 96.4203 197.329 101.305 224.208C106.19 251.088 97.1811 275.241 81.1873 278.15C73.1876 279.606 64.9619 275.473 58.1201 267.621H58.2689V182.86H57.8499C59.6062 181.865 61.5162 181.171 63.5009 180.807Z" fill="#7064DE"/>
<path d="M63.9971 183.511C79.0978 180.752 95.0806 199.117 99.6951 224.501C104.31 249.885 95.7973 272.697 80.6966 275.446C73.1435 276.82 65.3699 272.918 58.9085 265.513C58.1035 264.586 57.3151 263.603 56.5543 262.571H58.2689V187.07H56.2346C56.9976 186.473 57.8049 185.934 58.6493 185.459C60.3122 184.518 62.1193 183.86 63.9971 183.511Z" fill="#6F64DD"/>
<path d="M64.5043 186.215C78.7174 183.632 93.7629 200.904 98.1018 224.793C102.441 248.682 94.4355 270.154 80.2225 272.742C73.1104 274.038 65.7999 270.363 59.7189 263.361C58.1347 261.533 56.695 259.585 55.4131 257.533H58.2854V191.441H55.0823C57.597 188.752 60.8934 186.924 64.5043 186.215Z" fill="#6F63DC"/>
<path d="M64.9785 188.919C78.2873 186.518 92.4067 202.687 96.4809 225.086C100.555 247.484 93.0462 267.615 79.7208 270.038C73.0553 271.252 66.1969 267.83 60.4963 261.264C59.0125 259.549 57.6633 257.723 56.4606 255.8H58.2744V193.819H56.1684C58.5178 191.3 61.6004 189.585 64.9785 188.919Z" fill="#6E63DB"/>
<path d="M65.4692 191.623C77.9069 189.36 91.067 204.475 94.8655 225.384C98.6641 246.292 91.6624 265.071 79.2191 267.323C73.0002 268.454 66.5994 265.242 61.2791 259.134C59.8955 257.533 58.6367 255.828 57.5136 254.035H58.2689V196.197H57.2435C59.4369 193.845 62.3151 192.244 65.4692 191.623Z" fill="#6E62DA"/>
<path d="M65.9598 194.327C77.5375 192.224 89.7327 206.263 93.2611 225.676C96.7896 245.089 90.2785 262.527 78.7283 264.63C72.956 265.684 67.0128 262.698 62.073 257.026C59.4155 253.905 57.2225 250.416 55.5619 246.668H58.2689V202.461H55.3579C56.1932 201.055 57.1865 199.75 58.3185 198.57C60.3595 196.391 63.032 194.906 65.9598 194.327Z" fill="#6D62D9"/>
<path d="M66.4505 197.031C77.113 195.094 88.393 208.067 91.6513 225.969C94.9096 243.87 88.8947 259.989 78.2377 261.926C72.9064 262.897 67.4208 260.143 62.8614 254.907C60.4099 252.026 58.386 248.807 56.852 245.349H58.2689V209.022H54.5255C56.9513 202.521 61.1192 198.002 66.4505 197.031Z" fill="#6D61D7"/>
<path d="M66.9412 199.762C76.7161 197.985 87.0588 209.861 90.0415 226.289C93.0241 242.717 87.5219 257.472 77.747 259.249C67.9721 261.026 57.6349 249.156 54.6467 232.728H58.2689V210.727H56.014C58.2358 204.762 62.0565 200.629 66.9412 199.762Z" fill="#6C61D6"/>
<path d="M67.4319 202.439C76.3191 200.822 85.7191 211.621 88.4316 226.553C91.1441 241.486 86.1437 254.901 77.2564 256.518C68.3691 258.135 58.9912 247.341 56.2346 232.408H58.2469V212.454H57.475C59.5425 207.008 62.9882 203.25 67.4319 202.439Z" fill="#6C60D5"/>
<path d="M76.7818 253.801C84.7773 252.345 89.2789 240.271 86.8365 226.832C84.394 213.392 75.9324 203.678 67.9369 205.134C59.9414 206.59 55.4397 218.664 57.8822 232.103C60.3247 245.543 68.7863 255.257 76.7818 253.801Z" fill="#6B60D4"/>
<path d="M76.2904 251.097C83.3992 249.803 87.402 239.07 85.2309 227.124C83.0598 215.178 75.537 206.543 68.4282 207.838C61.3194 209.132 57.3166 219.865 59.4877 231.811C61.6588 243.757 69.1816 252.392 76.2904 251.097Z" fill="#6B5FD3"/>
<path d="M75.7991 248.394C82.0181 247.261 85.5197 237.87 83.62 227.417C81.7203 216.965 75.1387 209.409 68.9197 210.541C62.7006 211.674 59.1991 221.065 61.0988 231.518C62.9985 241.97 69.58 249.526 75.7991 248.394Z" fill="#6A5FD2"/>
<path d="M75.2865 244.668C80.595 243.692 83.5708 235.666 81.9331 226.742C80.2955 217.817 74.6645 211.374 69.3561 212.35C64.0476 213.326 61.0718 221.352 62.7095 230.276C64.3471 239.2 69.9781 245.644 75.2865 244.668Z" fill="#6A5ED1"/>
<path d="M74.8163 242.986C79.2589 242.177 81.7603 235.469 80.4034 228.003C79.0465 220.537 74.345 215.14 69.9024 215.949C65.4598 216.758 62.9583 223.466 64.3153 230.932C65.6722 238.398 70.3736 243.795 74.8163 242.986Z" fill="#695ED0"/>
<path d="M74.3249 240.282C77.8778 239.636 79.8779 234.269 78.7924 228.296C77.7069 222.323 73.9467 218.006 70.3938 218.653C66.8409 219.299 64.8407 224.666 65.9262 230.639C67.0118 236.612 70.772 240.929 74.3249 240.282Z" fill="#695DCF"/>
<path d="M73.8005 237.599C76.4667 237.114 77.9688 233.089 77.1554 228.609C76.342 224.129 73.5212 220.891 70.855 221.376C68.1887 221.861 66.6867 225.885 67.5 230.365C68.3134 234.845 71.1342 238.084 73.8005 237.599Z" fill="#685DCE"/>
<path d="M71.3628 224.07C73.138 223.75 75.018 225.908 75.5638 228.893C76.1096 231.879 75.1062 234.566 73.3255 234.886C71.5447 235.206 69.6702 233.054 69.1299 230.063C68.5896 227.072 69.5875 224.396 71.3628 224.07Z" fill="#685CCD"/>
<path d="M71.8534 226.802C72.7411 226.642 73.6838 227.723 73.954 229.213C74.2241 230.703 73.7224 232.05 72.8513 232.21C71.9802 232.37 71.0265 231.294 70.7508 229.798C70.4751 228.303 70.9658 226.94 71.8534 226.802Z" fill="#675CCC"/>
<path d="M70.6295 243.599C74.9739 232.916 67.5201 183.301 83.7123 136.677C73.2869 133.305 57.2986 136.258 54.123 139.856C47.9647 146.842 36.3154 162.718 34.7331 173.092C32.4286 188.251 50.0432 236.183 49.8392 239.979C49.7235 242.259 43.3337 249.946 39.6619 255.055C27.2572 272.322 34.4684 322.815 31.7945 334.519C31.6512 335.142 42.231 337.228 41.8837 333.079C56.8686 286.675 67.9666 250.161 70.6295 243.599Z" fill="#7367E4"/>
<path d="M61.7478 77.4382C58.1311 79.0661 52.9267 88.4748 51.6531 92.608C49.718 99.0533 58.6328 116.579 51.8185 138.41C48.2735 149.761 94.9427 150.158 94.2701 145.893C91.8829 131.219 95.9627 101.796 94.3969 94.0206C93.173 87.8126 86.7501 78.9116 80.7628 75.6944C76.6941 73.4981 71.3738 73.1118 61.7478 77.4382Z" fill="#FFF3C9"/>
<path d="M43.2344 153.552C40.7259 159.55 36.977 177.308 34.5181 183.036C32.6326 187.451 32.379 187.512 30.5761 186.005C28.7733 184.499 28.2882 180.663 26.546 177.38C24.8038 174.097 25.2449 171.177 29.0159 169.693C32.7869 168.209 29.0159 153.552 29.0159 153.552H43.2344Z" fill="#232B59"/>
<path d="M25.4324 173.606C25.4324 171.349 27.9188 169.704 28.4867 169.71C29.4527 169.819 30.3812 170.147 31.2017 170.669C32.0223 171.191 32.7133 171.894 33.2225 172.723C34.4079 174.786 35.9791 175.796 37.0266 175.564C37.4897 175.465 36.8557 177.772 36.6903 180.437C36.4863 183.698 37.0211 187.545 34.1873 187.699C33.2611 183.958 25.4324 173.606 25.4324 173.606Z" fill="#113D9C"/>
<path d="M25.9726 172.171C24.0375 173.357 26.1546 183.246 30.08 186.75C31.6843 188.179 35.8192 188.356 35.9019 186.104C36.0508 182.164 32.9579 181.243 31.6292 178.622C30.7581 176.889 30.8408 174.891 29.9752 173.589C28.8505 171.873 27.3454 171.349 25.9726 172.171Z" fill="#929EE0"/>
<path d="M60.998 146.538C62.9938 152.47 57.1388 170.819 56.819 178.279C56.7032 181.072 56.5654 184.272 57.1939 186.722C58.7486 192.759 54.7681 193.262 52.8385 191.926C50.9088 190.591 49.9771 187.225 47.9427 184.112C45.9084 181 44.69 178.566 47.9427 176.155C52.3533 172.883 44.282 152.796 44.282 152.796L60.998 146.538Z" fill="#232B59"/>
<path d="M44.6568 180.967C44.0228 178.798 46.9117 176.133 47.4465 175.94C49.1005 175.388 50.5119 176.37 52.2209 178.02C53.93 179.67 55.7439 180.2 56.6701 179.676C57.5963 179.151 59.6197 191.264 55.7494 192.848C53.8473 189.537 44.6568 180.967 44.6568 180.967Z" fill="#113D9C"/>
<path d="M45.1365 179.521C44.2434 181.055 44.7065 182.159 45.9855 183.721C46.7463 184.648 48.0199 185.177 48.5767 186.104C50.0598 188.577 51.2451 192.87 53.8859 193.278C56.5268 193.687 57.883 191.181 57.4916 188.963C56.9678 185.966 47.4796 175.526 45.1365 179.521Z" fill="#929EE0"/>
<path d="M19.4836 158.287C25.1071 160.792 47.4079 159.142 48.7366 161.233C50.148 163.441 54.735 166.128 60.4908 166.526C66.5167 166.939 69.4883 158.165 68.5235 156.841C67.261 155.103 65.1053 156.173 65.4471 152.746C65.5629 151.554 63.9365 152.614 61.9352 152.912C59.4377 153.282 58.5667 152.106 56.6756 152.575C55.0464 153.017 53.4493 153.57 51.8957 154.231C50.3465 154.656 19.2796 137.35 14.5713 139.199C9.86306 141.048 7.1671 152.796 19.4836 158.287Z" fill="#F7B690"/>
<path d="M12.8513 135.198C10.5192 144.519 11.054 147.846 13.4632 152.266C15.8725 156.686 32.3294 157.823 39.1437 156.041C45.958 154.258 45.4012 154.545 49.1722 152.448C52.9432 150.351 62.5417 150.539 60.8767 146.196C57.7949 138.139 35.3727 137.527 35.3727 137.527L12.8513 135.198Z" fill="#232B59"/>
<path d="M16.1702 98.4518C6.38424 102.237 -0.374939 116.265 -4.15044e-05 118.643C1.65392 128.698 17.4603 129.768 17.4603 129.768L16.1702 98.4518Z" fill="#F7C446"/>
<path d="M16.1702 98.4518C9.14083 100.698 5.14376 139.055 10.6184 146.538C15.0289 152.608 43.3337 144.447 42.0822 138.079C40.7315 131.197 43.273 104.45 39.6619 100.554C36.0508 96.6584 26.3751 95.185 16.1702 98.4518Z" fill="#FDD247"/>
<path d="M38.5924 79.1048C37.7378 78.713 38.1072 76.7208 37.8756 75.3302C37.7488 76.4339 30.0359 72.7256 25.8679 75.3302C22.4497 77.4603 22.56 86.0081 21.5621 86.7034C20.1672 86.8193 20.9611 96.3605 24.054 98.0711C27.8361 100.163 33.3107 99.4507 33.84 97.8338C34.1175 97.0696 34.3026 96.2748 34.3913 95.4665C35.5877 95.7479 37.589 95.759 38.7743 94.7822C41.5529 92.5197 45.98 82.482 38.5924 79.1048Z" fill="#F7B690"/>
<path d="M37.997 76.1524C41.3049 73.912 36.9494 64.3598 26.9154 65.5407C16.4403 66.7713 9.05817 73.1394 9.05817 80.5119C9.05817 90.4448 17.9179 95.4941 20.8399 97.431C23.7619 99.3679 28.7623 96.3273 30.2123 94.4952C31.6623 92.6632 31.2378 85.8701 30.4163 84.8437C29.5948 83.8173 26.7886 79.9159 28.211 78.2715C28.9884 77.3775 30.2674 77.4492 31.9435 78.4756C34.0923 78.0998 36.148 77.3109 37.997 76.1524Z" fill="#232B59"/>
<path d="M39.094 100.03C52.9432 110.984 62.3046 96.8019 66.3899 96.664C70.4752 96.526 64.0082 115.012 55.3635 116.618C46.7188 118.224 36.1114 114.367 32.7594 108.473C29.4074 102.58 39.094 100.03 39.094 100.03Z" fill="#FDD247"/>
<path d="M98.6863 139.894C89.3138 135.375 63.7436 128.642 61.5163 128.609C60.4136 128.609 53.9522 125.613 52.3037 124.973C50.6553 124.333 59.3772 119.973 60.4302 120.967C61.4832 121.96 95.224 119.283 98.179 122.738C101.134 126.192 98.6863 139.894 98.6863 139.894Z" fill="#F7B690"/>
<path d="M59.0573 127.837C56.1574 126.926 50.126 131.523 45.5886 129.801C43.7748 129.128 36.3871 124.162 35.4608 121.954C34.5346 119.747 42.1043 121.954 43.5763 121.993C45.0483 122.032 53.6213 121.375 52.662 119.885C51.7027 118.395 45.7981 119.493 45.8973 116.204C45.8973 115.713 47.6781 116.679 49.7566 116.359C51.0081 116.171 52.3478 115.52 53.7812 115.625C56.8686 115.846 61.2902 120.012 61.5603 121.436C61.8305 122.859 62.9166 129.056 59.0573 127.837Z" fill="#F7B690"/>
<path d="M64.2508 99.8811C62.9772 98.2973 62.9 95.8582 63.3907 95.4664C64.0391 94.9581 64.587 94.333 65.0061 93.6233C65.2211 93.0715 65.6125 92.3872 65.8165 93.4633C66.0205 94.5394 65.0281 95.5547 65.5409 95.6706C66.0536 95.7865 67.0901 93.3585 67.4705 92.5197C67.8509 91.6809 68.2203 91.5043 68.4463 91.5926C68.8323 91.7361 67.9777 94.1696 68.2313 94.2579C68.4849 94.3462 69.9569 91.874 70.5524 92.1168C71.0265 92.31 69.5104 94.6939 69.6647 94.7987C69.8191 94.9036 71.0486 93.2315 71.3573 93.5792C71.7763 94.0593 70.398 96.0183 70.5579 96.1231C70.7178 96.228 71.9472 95.1519 72.1181 95.3616C72.5592 95.9134 69.9845 99.0478 69.4332 99.6217C68.4752 100.397 67.3163 100.883 66.0922 101.023C65.1991 100.946 64.2508 99.8811 64.2508 99.8811Z" fill="#F7B690"/>
<path d="M40.6322 115.172C40.585 115.171 40.5384 115.162 40.4944 115.145C38.1403 114.212 33.6691 111.045 32.0151 108.219C31.9901 108.177 31.9738 108.129 31.9671 108.08C31.9603 108.031 31.9633 107.981 31.9759 107.933C31.9884 107.885 32.0103 107.84 32.0402 107.801C32.0701 107.761 32.1074 107.728 32.1502 107.703C32.1929 107.678 32.2401 107.662 32.2891 107.655C32.3381 107.649 32.388 107.651 32.4359 107.664C32.4837 107.677 32.5287 107.698 32.5681 107.728C32.6075 107.758 32.6407 107.796 32.6656 107.839C34.2424 110.526 38.5207 113.55 40.7701 114.46C40.8167 114.478 40.8594 114.505 40.8956 114.539C40.9317 114.574 40.9607 114.615 40.9807 114.661C41.0007 114.707 41.0114 114.756 41.0122 114.806C41.0129 114.856 41.0037 114.905 40.9851 114.952C40.954 115.019 40.9041 115.075 40.8415 115.115C40.7788 115.154 40.7061 115.174 40.6322 115.172Z" fill="#F7C446"/>
<path d="M79.4617 64.0729C78.7505 68.2613 80.9447 79.4358 80.1839 80.5064C79.4231 81.5769 78.0117 81.6707 76.7547 81.6707C74.6542 81.7259 66.5828 79.1654 65.9323 77.1623C65.381 75.5068 67.3326 63.6038 66.8695 58.1242C66.7923 57.175 79.4617 64.0729 79.4617 64.0729Z" fill="#FFC5B4"/>
<path d="M84.6992 54.3166C84.9363 50.9614 84.6662 46.3868 83.751 43.28C82.8358 40.1732 80.9613 37.2099 78.0999 35.6978C74.6432 33.8713 63.2143 39.1082 62.2881 42.3805C61.8029 44.1629 63.3466 51.6016 59.7575 48.7707C53.1417 48.0643 59.8513 62.296 62.1889 57.3792C64.7304 63.0079 72.2725 65.8167 76.9477 65.2814C80.8345 64.8289 84.2802 60.177 84.6992 54.3166Z" fill="#F7B690"/>
<path d="M250.883 138.802C250.415 137.008 248.403 129.272 250.85 125.911C252.918 123.08 250.205 120.641 252.262 120.161C253.155 119.957 256.535 122.037 257.196 125.536C257.543 127.379 255.3 129.398 257.196 133.228C261.64 142.19 251.451 140.981 250.883 138.802Z" fill="#FFC5B4"/>
<path fill-rule="evenodd" clip-rule="evenodd" d="M302.878 305.504C304.483 308.357 317.18 301.641 317.351 299.649C318.078 291.007 320.289 264.558 319.071 257.577C317.852 250.597 314.544 243.655 309.081 240.04C302.101 235.416 291.146 237.872 290.507 247.766C289.658 260.855 299.163 298.893 302.878 305.504Z" fill="#FFC5B4"/>
<path fill-rule="evenodd" clip-rule="evenodd" d="M317.351 299.643C307.741 296.641 297.635 302.855 305.674 309.306C315.382 317.109 347.232 334.591 350.127 336.152L354.151 330.849C340.197 317.854 327.164 302.717 317.351 299.643Z" fill="#FFC5B4"/>
<path fill-rule="evenodd" clip-rule="evenodd" d="M352.845 329.801C353.324 330.48 353.738 331.699 353.253 332.389C352.872 332.941 349.664 334.806 349.482 335.43C349.344 335.877 349.989 337.67 349.939 339.999C349.97 341.954 349.837 343.909 349.542 345.843C349.112 348.502 351.058 350.257 352.85 347.868L363 334.585C361.203 333.261 354.46 329.404 352.845 329.801Z" fill="#007AA9"/>
<path d="M297.569 162.05C289.994 169.439 286.135 184.581 292.547 189.774C302.553 197.864 318.459 193.19 314.864 202.196C312.598 207.83 322.235 212.035 328.89 211.902C325.157 205.788 326.778 204.48 328.438 202.56C332.115 198.316 327.335 196.242 328.78 194.343C331.944 190.216 324.275 189.603 325.935 187.33C329.794 182.065 321.083 178.539 322.075 176.745C325.863 170.063 318.266 170.471 319.914 163.104C321.563 155.737 297.569 162.05 297.569 162.05Z" fill="#222B56"/>
<path d="M257.582 133.946C259.418 138.36 271.492 158.607 274.199 160.88C275.985 162.381 264.363 170.261 263.492 169.522C261.083 167.392 250.955 140.43 250.205 135.756C249.367 130.535 255.901 129.906 257.582 133.946Z" fill="#FFC5B4"/>
<path d="M290.584 189.432C287.96 189.211 264.672 171.972 263.492 169.522C261.778 165.918 271.547 158.392 274.199 160.88C277.545 164.02 296.687 174.019 301.875 177.761C305.812 180.603 290.584 189.432 290.584 189.432Z" fill="#FFC5B4"/>
<path fill-rule="evenodd" clip-rule="evenodd" d="M313.701 303.506C314.252 297.099 318.078 251.276 312.554 246.806C305.492 241.083 287.629 227.707 287.629 237.425C287.629 274.949 316.022 351.239 317.4 354.6H324.121C321.089 335.645 319.302 313.737 313.701 303.506Z" fill="#F7B690"/>
<path fill-rule="evenodd" clip-rule="evenodd" d="M323.04 351.002C322.787 351.797 322.07 352.867 321.226 352.906C320.565 352.906 317.136 351.515 316.524 351.747C316.088 351.913 315.052 353.513 313.177 354.887C311.645 356.106 310.013 357.193 308.298 358.137C305.927 359.412 305.729 362 308.717 362H325.422C325.383 359.793 324.347 352.067 323.04 351.002Z" fill="#007AA9"/>
<path d="M321.838 184.775C321.838 202.593 315.603 212.62 315.278 223.066C302.95 231.812 287.64 228.706 287.64 223.066C287.64 217.978 286.78 201.329 288.583 186.954C289.426 180.255 292.751 175.106 294.763 174.886C305.2 173.749 321.838 171.376 321.838 184.775Z" fill="#FDD247"/>
<path d="M309.577 161.824C308.987 166.901 309.605 174.207 309.875 175.024C307.984 176.994 303.309 177.948 300.16 177.948C297.889 177.948 297.718 176.293 297.718 175.526C297.718 172.402 299.058 166.697 298.396 163.386C297.994 161.377 309.577 161.824 309.577 161.824Z" fill="#FFC5B4"/>
<path d="M300.199 141.009C295.717 143.873 288.484 157.178 293.032 163.242C296.252 167.541 306.148 167.949 308.855 166.294C309.18 170.118 317.863 167.701 314.974 164.489C323.658 161.04 324.672 148.911 320.251 142.157C315.829 135.402 305.608 137.554 300.199 141.009Z" fill="#F7B690"/>
<path d="M322.809 144.16C322.257 134.652 309.632 119.924 302.437 129.349C293.771 128.46 295.618 142.273 295.502 143.729C298.021 145.043 300.431 143.029 304.323 140.865C307.631 142.924 304.924 153.039 318.189 153.282C312.885 160.163 312.857 162.282 313.607 164.153C317.384 164.567 314.71 167.221 313.993 169.274C319.506 169.732 327.809 164.655 326.624 155.235C325.543 146.742 322.809 144.16 322.809 144.16Z" fill="#222B56"/>
<path d="M317.047 191.733C315.03 193.096 284.045 198.245 281.432 196.986C276.856 194.779 278.543 182.705 281.901 182.694C285.804 182.694 313.431 176.111 317.345 178.279C321.259 180.448 320.41 189.471 317.047 191.733Z" fill="#F7B690"/>
<path d="M287.64 223.066C287.64 229.274 286.118 258.19 291.615 284.578C316.149 284.578 336.393 276.516 346.791 263.741C338.521 247.28 317.119 227.988 315.278 223.066H287.64Z" fill="#007AA9"/>
<path d="M248.783 184.063C253.287 183.847 279.784 182.065 281.901 182.694C284.018 183.323 283.555 196.987 281.432 196.987C280.33 196.987 253.094 191.937 248.695 191.154C243.772 190.276 245.2 184.228 248.783 184.063Z" fill="#F7B690"/>
<path d="M250.955 191.617C247.057 190.856 243.634 189.443 241.235 191.143C238.429 193.124 236.461 194.343 233.44 192.721C229.79 190.756 231.13 189.277 231.003 187.754C230.926 186.767 224.145 188.488 224.15 185.961C224.15 184.995 227.271 185.177 232.9 184.824C237.696 184.521 242.327 184.747 248.783 184.074C254.379 185.1 253.64 192.141 250.955 191.617Z" fill="#F7B690"/>
</g>
<defs>
<clipPath id="clip0">
<rect width="363" height="362" fill="white"/>
</clipPath>
</defs>
</svg>
