<svg width="42" height="42" viewBox="0 0 42 42" fill="none" xmlns="http://www.w3.org/2000/svg">
<rect width="42" height="5" rx="2.04878" fill="white"/>
<rect y="10" width="42" height="5" rx="2.04878" fill="white"/>
<rect y="20" width="42" height="5" rx="2.04878" fill="white"/>
<path d="M10.4311 39L10.4188 32.7307L7.30878 37.9551H6.74331L3.63326 32.7676V39H2.45317V30.3951H3.46117L7.05063 36.4431L10.5909 30.3951H11.5989L11.6112 39H10.4311ZM20.4383 37.9305V39H14.1936V30.3951H20.2662V31.4646H15.4229V34.1075H19.7376V35.1524H15.4229V37.9305H20.4383ZM29.829 30.3951V39H28.821L23.658 32.5832V39H22.4288V30.3951H23.4368L28.5997 36.8119V30.3951H29.829ZM35.9695 39.0983C34.8221 39.0983 33.9289 38.7705 33.2896 38.1149C32.6504 37.4593 32.3308 36.5169 32.3308 35.2876V30.3951H33.5601V35.2384C33.5601 37.0823 34.3673 38.0043 35.9817 38.0043C36.7685 38.0043 37.3708 37.7789 37.7888 37.3282C38.2067 36.8693 38.4157 36.1727 38.4157 35.2384V30.3951H39.6081V35.2876C39.6081 36.5251 39.2885 37.4716 38.6493 38.1272C38.01 38.7746 37.1168 39.0983 35.9695 39.0983Z" fill="white"/>
</svg>
