<svg width="54" height="54" viewBox="0 0 54 54" fill="none" xmlns="http://www.w3.org/2000/svg">
<g clip-path="url(#clip0)">
<path d="M26.8287 3.07263e-07C21.5222 -0.000802618 16.3346 1.57203 11.922 4.5196C7.50939 7.46717 4.06996 11.6571 2.03868 16.5594C0.0074067 21.4618 -0.524484 26.8564 0.510276 32.0611C1.54504 37.2658 4.09997 42.0467 7.85197 45.7993C11.604 49.5518 16.3845 52.1075 21.589 53.143C26.7935 54.1786 32.1882 53.6475 37.0909 51.617C41.9936 49.5864 46.184 46.1476 49.1322 41.7355C52.0805 37.3233 53.6541 32.136 53.6541 26.8294C53.6541 19.7145 50.828 12.891 45.7974 7.85959C40.7668 2.82822 33.9436 0.00107685 26.8287 3.07263e-07V3.07263e-07ZM34.9478 32.3707L32.5933 34.709C32.4785 34.8353 32.3407 34.9387 32.1873 35.0134C32.0284 35.0912 31.8587 35.1446 31.6839 35.1718H31.5784C31.5013 35.1765 31.4241 35.1765 31.347 35.1718C30.9822 35.1587 30.6187 35.1208 30.259 35.0581C29.6167 34.9496 28.9897 34.7643 28.3917 34.506C27.5283 34.1323 26.7019 33.6784 25.9235 33.1501C24.859 32.4292 23.8726 31.5993 22.9803 30.6738C22.2356 29.9492 21.5488 29.1674 20.9262 28.3355C20.4385 27.6802 20.0002 26.9895 19.615 26.2692C19.3199 25.7185 19.0714 25.1441 18.8721 24.552C18.7265 24.1186 18.6139 23.6749 18.5351 23.2246C18.4837 22.9352 18.4605 22.6415 18.4661 22.3477C18.4661 22.1366 18.4661 22.0148 18.4661 21.9945C18.4932 21.8184 18.5466 21.6474 18.6244 21.4871C18.6984 21.3342 18.8003 21.1966 18.9248 21.0811L21.2834 18.7266C21.3554 18.6484 21.4425 18.5857 21.5396 18.5425C21.6366 18.4992 21.7414 18.4762 21.8477 18.4749C21.9941 18.4734 22.1369 18.5205 22.2536 18.6089C22.3731 18.6991 22.475 18.8106 22.5541 18.9377L24.4499 22.5304C24.5585 22.7136 24.596 22.9303 24.5554 23.1393C24.5136 23.3531 24.409 23.5495 24.255 23.7036L23.3863 24.5723C23.3592 24.6062 23.3385 24.6447 23.3254 24.686C23.3108 24.7292 23.3026 24.7744 23.301 24.82C23.366 25.1163 23.4726 25.4019 23.6176 25.6684C23.8084 26.0333 24.0283 26.3822 24.2753 26.7117C24.6547 27.2144 25.0742 27.6855 25.5297 28.1204C25.9675 28.5808 26.4412 29.0057 26.9465 29.391C27.2776 29.631 27.6248 29.8481 27.9857 30.0405C28.1871 30.151 28.4011 30.2369 28.623 30.2963L28.8423 30.3409C28.8828 30.3381 28.9226 30.3285 28.96 30.3125C29.0026 30.3026 29.0418 30.2816 29.0737 30.2516L30.0845 29.2286C30.2874 29.0435 30.5528 28.942 30.8274 28.9444C30.9936 28.9367 31.1588 28.9731 31.3064 29.05L34.7286 31.0798C34.8423 31.1383 34.9418 31.221 35.0203 31.3219C35.0988 31.4229 35.1544 31.5397 35.1832 31.6643C35.2017 31.7933 35.1888 31.9248 35.1457 32.0477C35.1026 32.1707 35.0305 32.2814 34.9356 32.3707H34.9478Z" fill="#C7856B"/>
</g>
<defs>
<clipPath id="clip0">
<rect width="53.6548" height="53.6548" fill="white"/>
</clipPath>
</defs>
</svg>
