<svg width="1440" height="395" preserveAspectRatio="none" viewBox="0 0 1440 395" fill="none" xmlns="http://www.w3.org/2000/svg">
<path d="M0 71.9986C0 71.9986 160 -88.0004 470 71.9986C780 231.997 893.001 114.997 1045 71.9986C1197 28.9996 1440 71.9986 1440 71.9986V394.999H0V71.9986Z" fill="#2A396F" fill-opacity="0.55"/>
<path d="M0 275C0 275 420 139 566 194C712 249 941 275 1071 235C1201 195 1440 71.9987 1440 71.9987V394.999H0V275Z" fill="#2A396F" fill-opacity="0.55"/>
<path d="M0 145C0 145 456 -57.9989 766 102C1076 261.999 1148 154.999 1300 112C1452 69.0011 1440 71.9987 1440 71.9987V394.999H0V145Z" fill="#2A396F" fill-opacity="0.55"/>
</svg>
